<?xml version="1.0" encoding="UTF-8"?><svg id="_圖層_1" xmlns="http://www.w3.org/2000/svg" viewBox="0 0 336.78 152.89"><defs><style>.cls-1{fill:#fff;}.cls-2{fill:none;stroke:#fff;stroke-miterlimit:10;stroke-width:1.29px;}</style></defs><path class="cls-1" d="m68.45,64.28c0,10.71-10.43,17.48-29.08,17.48h-19.61V17.81h20.48c16.13,0,23.67,6.06,23.67,15.2,0,8.35-7.73,13.44-15.46,15.02v.18c11.01.7,20,6.68,20,16.08h0Zm-29.56-45.06h-12.56v28.9h14.2c10.24,0,16.33-6.32,16.33-14.4s-5.7-14.49-17.97-14.49Zm22.22,46.2c0-9.49-7.15-15.9-18.74-15.9h-16.04v30.22c2.22.44,8.5.62,11.4.62,16.23,0,23.38-5.53,23.38-14.93h0Z"/><path class="cls-1" d="m124.39,80.53l-5.7,1.93-2.51-7.55v-.35c-5.12,4.83-12.08,8.26-19.32,8.26-10.62,0-16.13-5.18-16.13-16.43v-29.69l5.7-1.93h.39v31.27c0,3.78,0,14.23,12.65,14.23,5.6,0,12.17-3.08,16.71-7.82v-35.75l5.7-1.93h.39v39.18l2.13,6.59h0Z"/><path class="cls-1" d="m179.26,86.6c0,8.87-10.82,16.25-25.4,16.25-12.36,0-20.97-5.27-20.97-13.08,0-2.02.58-4.22,1.83-6.59l3.96-1.05h.39c-1.06,2.54-1.64,4.92-1.64,7.03,0,7.2,5.99,12.3,16.42,12.3,12.46,0,20.58-4.92,20.58-12.65,0-5.01-4.25-7.99-12.17-8.44l-14.3-.79c-5.99-.35-11.3-1.93-11.3-6.59,0-3.16,2.13-5.18,6.28-7.38l2.32-1.23c-5.8-2.63-9.57-7.64-9.57-13.97,0-9.31,8.31-15.99,19.32-15.99,4.44,0,8.5,1.14,11.69,3.08,2.9-3.16,7.15-5.62,12.85-5.62l-.78,5.89c-1.64-.44-3.47-.7-5.02-.7-2.32,0-4.25.44-5.8,1.32,3.86,2.81,6.18,7.03,6.18,12.03,0,9.31-8.31,15.9-19.23,15.9-2.9,0-5.7-.44-8.11-1.32l-2.51,1.5c-2.51,1.49-3.19,2.99-3.19,4.31,0,2.19,1.83,3.34,7.34,3.6l14.69.88c10.14.53,16.13,4.22,16.13,11.33h0Zm-37.29-36.19c0,8.52,5.31,14.49,12.95,14.49s12.95-5.89,12.95-14.49-5.31-14.58-12.95-14.58-12.95,6.06-12.95,14.58h0Z"/><path class="cls-1" d="m233.27,80.53l-5.7,1.93-2.51-7.55v-.35c-5.12,4.83-12.08,8.26-19.32,8.26-10.62,0-16.13-5.18-16.13-16.43v-29.69l5.7-1.93h.39v31.27c0,3.78,0,14.23,12.65,14.23,5.6,0,12.17-3.08,16.71-7.82v-35.75l5.7-1.93h.39v39.18l2.13,6.59h0Z"/><path class="cls-1" d="m245.45,56.03h20.77v2.72h-20.77s0-2.72,0-2.72Z"/><path class="cls-1" d="m274.43,77.98l1.45-4.31c4.73,4.57,13.72,7.73,21.15,7.73,9.57,0,16.71-5.36,16.71-13.17,0-8.78-8.11-12.74-15.46-15.9l-4.83-2.02c-8.11-3.51-17.77-7.9-17.77-17.66,0-9.13,8.41-15.9,21.06-15.9,7.34,0,14.87,2.37,19.32,4.83l-1.16,3.86c-4.44-3.86-11.4-7.29-19.03-7.29-9.37,0-14.78,5.18-14.78,11.59,0,7.82,7.24,11.24,15.26,14.76l4.83,2.02c9.27,4.04,17.77,8.08,17.77,18.45,0,11.33-10.53,17.83-22.61,17.83-7.83,0-16.71-2.37-21.93-4.83h0Z"/><path class="cls-1" d="m249.79,38.29c-7.24,0-13.12-5.41-13.12-12.07s5.88-12.1,13.12-12.1,13.12,5.41,13.12,12.1-5.88,12.07-13.12,12.07Zm0-22.82c-6.26,0-11.34,4.8-11.34,10.76s5.09,10.73,11.34,10.73,11.31-4.8,11.31-10.73-5.05-10.76-11.31-10.76Zm6.63,17.68h-2.22l-2.03-3.22c-1.62-2.57-2.41-3.01-3.77-3.01h-.87v6.24h-1.92v-11.14c0-1.3-.11-2.37-.9-2.67v-.27h4.56c2.9,0,4.79,1.47,4.79,3.84,0,1.23-.75,2.84-2.83,3.39,1.09.52,1.85,1.55,2.6,2.78l2.6,4.08h0Zm-7.43-12.71h-1.47v5.04h1.47c1.92,0,3.01-.89,3.01-2.54s-1.09-2.5-3.01-2.5Z"/><path class="cls-1" d="m90.29,137.83c3.82-.96,7.88-2.72,9.95-4.39l1.45,1.25c-3,1.78-7.14,3.34-11.17,4l-.23-.85h0Zm.2-16.44h25.05v1.14h-25.05v-1.14Zm7-5.22h-5.78v-1.13h5.78v-2.8h1.81v2.8h7.23v-2.8h1.81v2.8h5.98v1.13h-5.98v3.62h-10.85v-3.62h0Zm-3.4,8.16h17.82v8.67h-17.82v-8.67Zm7.96,3.71v-2.61h-6.04v2.61h6.04Zm0,3.85v-2.78h-6.04v2.78h6.04Zm4.48-13.18v-2.55h-7.23v2.55h7.23Zm3.43,9.32v-2.61h-6.04v2.61h6.04Zm0,3.85v-2.78h-6.04v2.78h6.04Zm-5.58,2.58l.28-.85c3.43.65,7.68,2.13,10.23,3.29l-1.08,1.81c-2.01-1.19-6.29-3.15-9.44-4.25Z"/><path class="cls-1" d="m149.37,121.71l-1.16,2.09c-4.42-1.76-9.07-5.39-11.56-9.04-3.06,4.14-7.82,7.79-12.81,9.8l-.39-.82c4.53-2.16,9.55-6.55,12.16-11.7l2.27.88-.68,1.08c3.6,4.17,8.62,6.6,12.19,7.71h0Zm-11.93,14.54h10.31v1.3h-22.64v-1.3h10.29v-8.76h-9.16v-1.1h9.16v-3.97h-4.99v-1.11h12.04v1.11h-5.02v3.97h9.09v1.1h-9.09v8.76h0Zm-4.17-1.98l-1.93,1.08c-.82-1.93-2.27-4.53-3.37-6.38l.71-.57c1.5,1.5,3.43,4.02,4.59,5.86h0Zm5.92.57c1.27-1.67,2.83-4.31,3.77-6.38l1.96,1.16c-1.33,1.98-3.51,4.51-5.07,5.81l-.65-.6h0Z"/><path class="cls-1" d="m179.17,117.14v21.37h-1.96v-2.38h-14.59v2.44h-1.98v-21.43h6.49c.63-1.78,1.16-3.49,1.61-5.27l2.52.88c-.99,1.81-1.96,3.29-2.86,4.39h10.77Zm-16.55,1.16v4.56h14.59v-4.56h-14.59Zm0,5.67v4.82h14.59v-4.82h-14.59Zm14.59,11.02v-5.1h-14.59v5.1h14.59Z"/><path class="cls-1" d="m197.78,134.35v-1.56h-4.14v3.29h-1.84v-22.07h7.79v20.34h-1.81Zm-4.14-14.68h4.14v-4.56h-4.14v4.56Zm0,5.98h4.14v-4.88h-4.14v4.88Zm4.14,6.01v-4.9h-4.14v4.9h4.14Zm15.02,6.21c-2.92-1.78-4.28-6.17-4.84-11.45h-4.51v8.84c1.9-.43,3.62-.94,4.93-1.36l.34.79c-2.44,1.36-6.01,2.67-9.01,3.37l-.74-1.98c.88-.11,1.76-.28,2.64-.43v-22.14h12.66v7.09h-4.87c.03,1.67.08,3.23.2,4.67h5.58v1.14h-5.47c.54,4.96,1.78,8.42,4,9.89,1.1.74,1.33-.23,1.33-5.07h.85c1.1,6.04.06,8.61-3.09,6.63h0Zm-9.35-18.36h9.04v-4.87h-9.04v4.87Zm4.39,5.78c-.14-1.5-.2-3.09-.23-4.67h-4.17v4.67h4.39Z"/><path class="cls-1" d="m233.37,132.9c-2.04,1.93-5.95,4.42-8.73,5.41l-.43-.76c2.69-1.33,5.95-3.93,7.43-5.72l1.73,1.08Zm15.81-11.59v1.11h-12.27c-1.33,1.3-3.03,2.49-4.62,3.4,2.18,0,4.42-.12,6.29-.28,1.13-.82,2.16-1.7,3-2.61l1.87,1.11c-2.78,2.44-6.83,4.51-10.49,5.86,4.05-.11,8.27-.45,10.88-.79-.63-.76-1.25-1.5-1.78-2.07l.57-.63c1.76,1.22,4.08,3.57,5.5,5.13l-1.5,1.25c-.54-.79-1.33-1.87-2.18-2.95-1.65.34-3.91.68-6.35.96v5.47c0,2.21-1.22,3.65-6.15,1.22l.31-.79c3.71.85,4.02.54,4.02-.85v-4.85c-3.8.4-7.74.65-10.11.68l-.45-1.85c1.3.11,2.89.14,4.59.11,2.15-.82,4.53-1.98,6.69-3.34-2.78.51-5.67.85-8.05,1.02l-.48-1.9c.82.06,1.67.08,2.55.08,1.39-1.11,2.52-2.16,3.54-3.4h-10.26v-1.11h11.48v-2.13h-7.99v-1.1h7.99v-1.96h-9.41v-1.14h9.41v-2.69h1.9v2.69h9.6v1.14h-9.6v1.96h8.1v1.1h-8.1v2.13h11.51,0Zm-8.3,10.31c2.47,1.25,5.84,3.46,7.85,5.15l-1.47,1.59c-1.65-1.76-4.59-4.33-6.83-6.04l.45-.71h0Z"/><line class="cls-2" x1="17.82" y1="126.37" x2="65.06" y2="126.37"/><line class="cls-2" x1="270.17" y1="126.37" x2="317.4" y2="126.37"/></svg>