<?xml version="1.0" encoding="utf-8"?>
<!-- Generator: Adobe Illustrator 24.1.2, SVG Export Plug-In . SVG Version: 6.00 Build 0)  -->
<svg version="1.1" xmlns="http://www.w3.org/2000/svg" xmlns:xlink="http://www.w3.org/1999/xlink" x="0px" y="0px"
	 viewBox="0 0 512 512" style="enable-background:new 0 0 512 512;" xml:space="preserve">
<style type="text/css">
	.st0{display:none;}
	.st1{display:inline;fill:#050505;}
	.st2{fill:#FFFFFF;}
</style>
<g id="圖層_2" class="st0">
	<rect class="st1" width="512" height="509.3"/>
</g>
<g id="Layer_1">
	<g>
		<path class="st2" d="M338,195.4v25.9c0,6.2-5.1,11.3-11.3,11.3c-6.2,0-11.3-5.1-11.3-11.3v-26c-11.3,4.5-17,14.7-17,26
			c0,15.6,12.7,28.3,28.3,28.3S355,237,355,221.4C355,210.2,349.3,199.9,338,195.4z"/>
		<path class="st2" d="M315.3,156.2c0-32.8-26.7-59.5-59.5-59.5c-32.8,0-59.5,26.7-59.5,59.5v14.2h119V156.2z"/>
		<path class="st2" d="M196.4,195.4v25.9c0,6.2-5.1,11.3-11.3,11.3s-11.3-5.1-11.3-11.3v-26c-11.3,4.5-17,14.7-17,26
			c0,15.6,12.7,28.3,28.3,28.3s28.3-12.7,28.3-28.3C213.4,210.2,207.7,199.9,196.4,195.4z"/>
		<path class="st2" d="M255.8-0.1C114.7-0.1,0.3,114.3,0.3,255.4s114.4,255.5,255.5,255.5s255.5-114.4,255.5-255.5
			S397-0.1,255.8-0.1z M410.9,435.8c-0.5,0.6-1.3,0.9-2.1,0.9H102.9c-0.8,0-1.5-0.3-2.1-0.9c-0.5-0.6-0.8-1.4-0.7-2.1L119.9,173
			c0.1-1.5,1.3-2.6,2.8-2.6h51v-14.2c0-45.3,36.9-82.2,82.2-82.2c45.3,0,82.2,36.9,82.2,82.2v14.2h51c1.5,0,2.7,1.1,2.8,2.6
			l19.8,260.6C411.7,434.4,411.4,435.2,410.9,435.8z"/>
	</g>
</g>
</svg>
