<?xml version="1.0" encoding="utf-8"?>
<!-- Generator: Adobe Illustrator 27.3.1, SVG Export Plug-In . SVG Version: 6.00 Build 0)  -->
<svg version="1.1" id="圖層_1" xmlns="http://www.w3.org/2000/svg" xmlns:xlink="http://www.w3.org/1999/xlink" x="0px" y="0px"
	 viewBox="0 0 407.2 405.2" style="enable-background:new 0 0 407.2 405.2;" xml:space="preserve">
<g>
	<path d="M203.6,10.6c-106,0-192,86-192,192s86,192,192,192c106,0,192-86,192-192S309.7,10.6,203.6,10.6z M318.6,252.9
		c-0.8,24.5-10.8,44.6-33.9,56.2c-11.1,5.6-23.2,7.7-35.5,7.8c-30.6,0.2-61.1,0.2-91.7,0c-11.4-0.1-22.6-2-33.1-6.7
		c-21.6-9.7-32.2-27.3-35.5-50c-0.8-5.3-0.9-10.7-0.9-16c-0.1-13.8,0-27.7,0-41.5c0-15.2,0-30.4,0-45.7c0-9.7,1.6-19.1,5-28.2
		c8.8-23.3,26.5-35.3,50.4-39.1c6.6-1.1,13.4-1.3,20.1-1.3c28.4-0.1,56.9-0.1,85.4,0c10.3,0,20.4,1.6,30,5.2
		c21.9,8.4,34.1,24.7,38.4,47.3c1.2,6.2,1.6,12.6,1.6,18.9C319,190.8,319.6,221.9,318.6,252.9z"/>
	<path d="M154.9,295.3c-18.5-0.6-34-7.1-41.4-25.7c-2.4-6-4-12.7-4.1-19.2c-0.4-31.9-0.6-63.9,0-95.8c0.3-16.5,6.5-30.7,21.9-39.1
		c7.3-4,15.5-5.6,23.7-5.7c32.3-0.2,64.6-0.4,96.9,0.1c18.7,0.3,34.3,7.1,41.7,25.8c2.4,6,4,12.8,4,19.2c0.4,31.8,0.6,63.6,0,95.4
		c-0.4,21.9-12.1,42.1-39.9,44.2C242.5,295.8,171.1,295.8,154.9,295.3z M203.4,141.9c-33.7,0.1-60.6,27.1-60.6,61
		c0,33.6,27.2,60.5,61.1,60.5c33.4,0,60.5-27.3,60.4-60.8C264.2,168.7,237.2,141.8,203.4,141.9z M264.6,154.1
		c6.7,0.1,12.3-5.3,12.3-11.9c0-6.6-5.6-12.2-12.2-12.2c-6.5,0-11.9,5.3-12,11.8C252.6,148.7,257.7,154,264.6,154.1z"/>
	<path d="M203.5,163.2c21.6,0,39.7,18.2,39.4,39.7c-0.3,21.6-18,39.3-39.5,39.2c-21.6,0-39.7-18.2-39.4-39.7
		C164.3,180.8,182.1,163.2,203.5,163.2z"/>
</g>
</svg>
