<?xml version="1.0" encoding="utf-8"?>
<!-- Generator: Adobe Illustrator 27.3.1, SVG Export Plug-In . SVG Version: 6.00 Build 0)  -->
<svg version="1.1" id="圖層_1" xmlns="http://www.w3.org/2000/svg" xmlns:xlink="http://www.w3.org/1999/xlink" x="0px" y="0px"
	 viewBox="0 0 407.2 405.2" style="enable-background:new 0 0 407.2 405.2;" xml:space="preserve">
<path d="M203.6,10.6c-106,0-192,86-192,192s86,192,192,192c1.2,0,2.3,0,3.5,0v-0.2V390c0,0,0-94.1,0.1-141.1c0-3.5-1-4.4-4.4-4.4
	c-12.1,0.2-24.2,0.1-36.5,0.1v-47.6h40.6c0.1-1.7,0.2-3,0.2-4.3c0.1-12.3-0.3-24.7,0.2-37c0.9-19.8,8-36.6,25.2-47.9
	c9.4-6.2,20-9.2,31.1-9.3c13.3-0.1,26.6,0.9,40,1.4c0.5,0,0.9,0.3,1.5,0.5v42.3c-5.9,0-11.8-0.1-17.6,0c-5.6,0.2-11.2,0.3-16.7,1.1
	c-7.7,1.2-13.1,6-13.6,13.8c-0.7,12.9-0.2,25.8-0.2,39.2h46.8c-2.1,16-4.1,31.6-6.2,47.6h-41v140.9v1.7c0,0,0,0,0,0v0
	c80.2-23,138.9-96.9,138.9-184.6C395.6,96.6,309.7,10.6,203.6,10.6z"/>
</svg>
