<?xml version="1.0" encoding="utf-8"?>
<!-- Generator: Adobe Illustrator 27.3.1, SVG Export Plug-In . SVG Version: 6.00 Build 0)  -->
<svg version="1.1" id="圖層_1" xmlns="http://www.w3.org/2000/svg" xmlns:xlink="http://www.w3.org/1999/xlink" x="0px" y="0px"
	 viewBox="0 0 407.2 405.2" style="enable-background:new 0 0 407.2 405.2;" xml:space="preserve">
<g>
	<path d="M203.6,10.6c-106,0-192,86-192,192s86,192,192,192s192-86,192-192S309.7,10.6,203.6,10.6z M303.7,240.6
		c-0.6,18.1-17.5,33.6-35.7,33.8c-21.6,0.2-43.2,0.1-64.7,0.1c0,0,0,0,0,0c-20.7,0-41.4,0.1-62.1,0c-18.8-0.1-33.5-11.9-37.6-30.2
		c-0.7-3.1-0.9-6.4-0.9-9.6c-0.1-21.5-0.1-42.9,0-64.4c0.1-19.2,11.1-34,28.7-38.4c3.6-0.9,7.4-1.2,11.1-1.2
		c40.7-0.1,81.3-0.1,122,0c22.6,0,38.8,14.4,39.5,37.1C304.8,191.9,304.5,216.3,303.7,240.6z"/>
	<path d="M180.1,171.6c17.7,10.3,35.2,20.5,53.2,31c-18,10.4-35.3,20.5-53.2,30.9C180.1,212.7,180.1,192.5,180.1,171.6z"/>
</g>
</svg>
