<?xml version="1.0" encoding="utf-8"?>
<!-- Generator: Adobe Illustrator 26.3.1, SVG Export Plug-In . SVG Version: 6.00 Build 0)  -->
<svg version="1.1" id="圖層_1" xmlns="http://www.w3.org/2000/svg" xmlns:xlink="http://www.w3.org/1999/xlink" x="0px" y="0px"
	 viewBox="0 0 103.3 100.7" style="enable-background:new 0 0 103.3 100.7;" xml:space="preserve">
<style type="text/css">
	.st0{fill:#70888A;}
	.st1{fill:#D37460;}
	.st2{fill:#F7EDD0;}
	.st3{fill:#354253;}
	.st4{fill:none;stroke:#354253;stroke-width:0.3265;stroke-miterlimit:10;}
	.st5{fill:none;stroke:#354253;stroke-width:0.2909;stroke-miterlimit:10;}
	.st6{fill:none;stroke:#354253;stroke-width:0.2682;stroke-miterlimit:10;}
	.st7{fill:#354152;}
	.st8{font-family:'SentyTang';}
	.st9{font-size:21px;}
</style>
<g>
	<path class="st1" d="M44.1,56.6c-0.3-4.2-1.1-8.3-2.9-12.1c-1.4-3-3.5-5.8-6.4-7.5c-2.9-1.7-6.5-2.3-9.6-0.9c-4.5,2-5.1,7-5.3,11.4
		c-0.2,5.1,1.4,10.2,4.5,14.2c3.7,4.9,9.6,8.1,15.8,8.6c1.1,0.1,2.4,0,3.2-0.8c0.8-0.8,0.9-2.1,0.9-3.2C44.4,63,44.4,59.8,44.1,56.6
		z"/>
	<path class="st1" d="M71.4,20.5c0-0.1,0.1-0.2,0.1-0.3c0.8-3.1-1.4-6.2-3.9-8.2C62.3,7.6,55.2,5.8,48.5,7c-4,0.7-7.8,2.5-10.9,5
		c-2.5,2-8,6.8-2.9,9.1c1.2,0.5,2.5,0.7,3.6,1.2c3.3,1.3,5.4,4.8,8.4,6.6c3.1,1.9,7,2,10.4,1.1c3.5-0.9,6.6-2.8,9.6-4.8
		C68.7,24,70.7,22.6,71.4,20.5z"/>
	<path class="st1" d="M86,48.6c0-3.7-0.8-7.3-2.4-10.6c-0.4-0.9-0.9-1.8-1.8-2.2c-1.2-0.5-2.5,0.1-3.6,0.7c-4,2.2-8.1,4.4-11.5,7.5
		c-5.1,4.6-7.7,11.2-7.5,18.1c0.1,2.2,0.7,4.4,2.2,6c2.8,2.9,7.6,2.7,11.3,1.2c5.7-2.4,10.2-7.4,12.2-13.3
		C85.6,53.7,86,51.1,86,48.6z"/>
</g>
<g>
	<g>
		<path class="st2" d="M57.2,13.8c-1.2-3.7-4.6-5.7-8.4-5.2c-1.6,0.2-0.9,2.6,0.7,2.4c2.5-0.4,4.7,1.1,5.4,3.5
			C55.3,16,57.7,15.4,57.2,13.8L57.2,13.8z"/>
	</g>
</g>
<g>
	<g>
		<path class="st2" d="M61.5,15.2c-2,2.2-4.4,3.9-7.2,4.9c-1.5,0.6-0.8,3,0.7,2.4c3.2-1.2,5.9-3.1,8.2-5.6
			C64.3,15.8,62.6,14.1,61.5,15.2L61.5,15.2z"/>
	</g>
</g>
<g>
	<g>
		<path class="st2" d="M72.2,19.5c-2.6-9.2-11-14.9-20.5-14c-1.6,0.2-1.6,2.6,0,2.5c8.5-0.9,15.8,3.9,18.1,12.2
			C70.3,21.7,72.7,21,72.2,19.5L72.2,19.5z"/>
	</g>
</g>
<g>
	<g>
		<path class="st2" d="M22.2,35.3c-5.4,12-2.4,25.5,8.1,33.6c1.2,1,3-0.8,1.7-1.7c-9.5-7.4-12.7-19.6-7.7-30.6
			C25,35.1,22.9,33.9,22.2,35.3L22.2,35.3z"/>
	</g>
</g>
<g>
	<g>
		<path class="st2" d="M26,36.9c10,2.2,16.6,10.7,16.2,20.9c-0.1,1.6,2.4,1.6,2.5,0c0.4-11.3-6.9-20.8-18-23.3
			C25.1,34.2,24.4,36.5,26,36.9L26,36.9z"/>
	</g>
</g>
<g>
	<g>
		<path class="st2" d="M24.9,44.8c2.6,0.4,6,0.9,7,3.7c0.5,1.5,2.9,0.8,2.4-0.7c-1.4-3.7-5.1-4.8-8.7-5.4
			C24,42.2,23.3,44.5,24.9,44.8L24.9,44.8z"/>
	</g>
</g>
<g>
	<g>
		<path class="st2" d="M26.1,53.4c-1.2,2.1-1.5,4.7-0.6,7c0.6,1.5,3,0.8,2.4-0.7c-0.7-1.7-0.6-3.5,0.3-5.1
			C29,53.3,26.9,52,26.1,53.4L26.1,53.4z"/>
	</g>
</g>
<g>
	<g>
		<path class="st2" d="M80,34.2c-2.5,4.7-9.4,5.6-13.4,8.6c-3.3,2.5-5.4,5.9-5.5,10.1c0,1.6,2.5,1.6,2.5,0
			c0-11.1,14.3-9.5,18.6-17.5C82.9,34,80.7,32.8,80,34.2L80,34.2z"/>
	</g>
</g>
<g>
	<g>
		<path class="st2" d="M78.2,47.1c-2.9,9.5-9.7,17-18.7,21c-1.4,0.6-0.2,2.8,1.2,2.1c9.6-4.3,16.8-12.4,19.9-22.5
			C81,46.3,78.7,45.6,78.2,47.1L78.2,47.1z"/>
	</g>
</g>
<g>
	<g>
		<path class="st2" d="M71.3,61.3c0.5-2.2,0.2-4.3-0.8-6.3c-0.7-1.4-2.8-0.2-2.1,1.2c0.7,1.4,0.9,2.9,0.6,4.4
			C68.6,62.2,71,62.8,71.3,61.3L71.3,61.3z"/>
	</g>
</g>
<g>
	<g>
		<path class="st3" d="M35.1,13.4c-1.5,2.1-2.7,4.3-3.7,6.8c-0.2,0.5,0.3,1.2,0.9,1.2c5.4-0.2,8.2,4.6,12.3,7.2
			c3.2,2.1,7.1,2.9,10.9,2.7c6.9-0.5,13.2-4.4,16.9-10.2c0.6-1-0.9-1.9-1.6-0.9C66,27.6,55.9,31.8,47.5,28
			c-5.5-2.5-8.6-8.7-15.2-8.5c0.3,0.4,0.6,0.8,0.9,1.2c0.9-2.3,2-4.3,3.5-6.3C37.3,13.4,35.8,12.5,35.1,13.4L35.1,13.4z"/>
	</g>
</g>
<g>
	<g>
		<path class="st3" d="M39.9,11.3c8.4-8.2,29.8-4.4,31,8.8c0.1,1.2,1.9,1.2,1.8,0C71.3,5.3,48.2,0.6,38.6,10
			C37.7,10.9,39,12.1,39.9,11.3L39.9,11.3z"/>
	</g>
</g>
<g>
	<g>
		<path class="st3" d="M45.7,16c11.5-1.9,23,1.7,31.4,9.8c0.8,0.8,2.1-0.5,1.3-1.3c-8.9-8.6-21-12.3-33.2-10.3
			C44.1,14.4,44.5,16.2,45.7,16L45.7,16z"/>
	</g>
</g>
<g>
	<g>
		<path class="st3" d="M56.2,14.2c-1.3-2.6-3.7-4.4-6.6-5c-1.1-0.2-1.6,1.5-0.5,1.8c2.4,0.5,4.4,2,5.5,4.2
			C55.2,16.2,56.8,15.2,56.2,14.2L56.2,14.2z"/>
	</g>
</g>
<g>
	<g>
		<path class="st3" d="M62.2,15.8c-1.1,2-2.9,3.4-5.1,4.1c-1.1,0.3-0.6,2.1,0.5,1.8c2.6-0.8,4.8-2.5,6.2-4.9
			C64.4,15.7,62.8,14.8,62.2,15.8L62.2,15.8z"/>
	</g>
</g>
<g>
	<g>
		<path class="st3" d="M80.8,33.2c-5.1,6.3-14.1,6.7-18.6,13.7c-4.3,6.7-3.9,14.9-2.5,22.4c0.2,1.2,2,0.7,1.8-0.5
			c-1.6-8.5-1.8-18.7,5.7-24.7c4.7-3.8,11-4.8,15-9.7C82.8,33.6,81.5,32.3,80.8,33.2L80.8,33.2z"/>
	</g>
</g>
<g>
	<g>
		<path class="st3" d="M80.8,34.4c9.7,13.5,0.4,41.7-19.5,34.4c-1.1-0.4-1.6,1.4-0.5,1.8c21.3,7.9,32.2-22.2,21.5-37
			C81.7,32.5,80.1,33.4,80.8,34.4L80.8,34.4z"/>
	</g>
</g>
<g>
	<g>
		<path class="st3" d="M54,71.9c13.3-2,23.7-11.2,27.3-24.2c0.3-1.1-1.4-1.6-1.8-0.5c-3.5,12.4-13.4,21-26.1,22.9
			C52.3,70.4,52.8,72.1,54,71.9L54,71.9z"/>
	</g>
</g>
<g>
	<g>
		<path class="st3" d="M70.6,63.3c0.3-2.5,0.1-4.9-0.4-7.4c-0.3-1.1-2-0.7-1.8,0.5c0.5,2.3,0.7,4.6,0.4,6.9
			C68.6,64.5,70.4,64.5,70.6,63.3L70.6,63.3z"/>
	</g>
</g>
<g>
	<g>
		<path class="st3" d="M77,58.2c1.5-1.2,3.2-2,5.1-2.5c1.1-0.3,0.7-2.1-0.5-1.8c-2,0.5-3.8,1.4-5.5,2.7C75.1,57.3,76.1,58.9,77,58.2
			L77,58.2z"/>
	</g>
</g>
<g>
	<g>
		<path class="st3" d="M26.1,27.1c-3.1,12.2-3.9,26.5,7.4,34.8c0.9,0.7,1.9-0.9,0.9-1.6c-10.5-7.8-9.4-21.5-6.5-32.8
			C28.2,26.4,26.4,25.9,26.1,27.1L26.1,27.1z"/>
	</g>
</g>
<g>
	<g>
		<path class="st3" d="M25.8,35.2c8.3,1.8,15,7.8,16.9,16.2c1.4,6.4-1.3,12.8,1.6,18.9c0.5,1.1,2.1,0.1,1.6-0.9
			c-2.4-4.9-0.5-10-0.9-15.2c-0.2-3.2-1.2-6.3-2.7-9.1c-3.3-6.2-9.2-10.2-15.9-11.6C25.2,33.2,24.7,34.9,25.8,35.2L25.8,35.2z"/>
	</g>
</g>
<g>
	<g>
		<path class="st3" d="M25,33.7c-7.3,6.2-7.2,17.7-3.4,25.8c3.9,8.5,14.3,12.8,23.4,11.8c1.2-0.1,1.2-2,0-1.8
			c-7.6,0.8-17.5-2.6-21.2-9.6c-4-7.6-4.6-18.9,2.5-24.8C27.2,34.2,25.9,32.9,25,33.7L25,33.7z"/>
	</g>
</g>
<g>
	<g>
		<path class="st3" d="M26.9,55c-0.4,1.5-0.6,3-0.7,4.5c-0.1,1.2,1.8,1.2,1.8,0c0.1-1.4,0.3-2.7,0.6-4C29,54.4,27.2,53.9,26.9,55
			L26.9,55z"/>
	</g>
</g>
<g>
	<g>
		<path class="st3" d="M25.7,45.7c2.1,0.5,4,1.4,5.7,2.6c1,0.7,1.9-0.9,0.9-1.6c-1.9-1.3-4-2.2-6.2-2.8C25,43.7,24.6,45.5,25.7,45.7
			L25.7,45.7z"/>
	</g>
</g>
<g>
	<text transform="matrix(1 0 0 1 33.2184 95.0995)" class="st7 st8 st9">有機</text>
</g>
<image style="overflow:visible;" width="5734" height="3825" xlink:href="../../gutco/品牌_好蓮沱茶/好蓮沱茶產品照/20220107-圈點8930.png"  transform="matrix(2.888181e-02 0 0 2.888181e-02 88.7014 -20.4622)">
</image>
</svg>
