<?xml version="1.0" encoding="UTF-8"?><svg id="_層_1" xmlns="http://www.w3.org/2000/svg" xmlns:xlink="http://www.w3.org/1999/xlink" viewBox="0 0 103.35 100.72"><defs><style>.cls-1{fill:none;}.cls-2{clip-path:url(#clippath);}.cls-3{fill:#354354;}.cls-4{opacity:.27;}</style><clipPath id="clippath"><circle class="cls-1" cx="51.68" cy="50.36" r="45.19"/></clipPath></defs><g class="cls-2"><g><g><path class="cls-3" d="M60.68,39.73c.02,.81-.07,1.55-.29,2.33s.79,1.38,1.34,.78c1.86-2.01,4.53-2.54,7-1.3,.92,.46,1.73-.92,.81-1.38-3.09-1.55-6.58-1.01-8.94,1.55l1.34,.78c.26-.92,.37-1.8,.35-2.76-.02-1.03-1.63-1.03-1.6,0h0Z"/><path class="cls-3" d="M58.87,48.11c-.5,1.61-1,3.23-1.51,4.84-.16,.51-.36,2.08-.75,2.42-.56,.48-1.56,.18-2.23,.13-1.03-.07-1.03,1.53,0,1.6,.74,.05,2.17,.43,2.89,.1,.59-.27,.7-.82,.88-1.4,.77-2.41,1.51-4.84,2.26-7.26,.31-.99-1.24-1.41-1.55-.43h0Z"/><path class="cls-3" d="M57.41,37.33c6.77,1.66,12.26-.71,15.41-6.99,.46-.92-.92-1.73-1.38-.81-2.83,5.63-7.52,7.74-13.6,6.25-1-.25-1.43,1.3-.43,1.55h0Z"/><path class="cls-3" d="M73.31,26.39c7.01,1.83,7.57,10.5,5.41,16.09-1.65,4.27-4.5,7.96-8.33,10.49-.86,.57-.06,1.95,.81,1.38,5.15-3.4,9.26-9.16,10.16-15.35,.84-5.74-1.56-12.58-7.62-14.17-1-.26-1.43,1.29-.43,1.55h0Z"/><path class="cls-3" d="M33.09,25.16c4.12-6.97,10.18-11.8,18.42-12.53,8.04-.72,20.63,2.65,20.93,12.65,.03,1.02,1.62,1.02,1.58,0-.29-9.71-11.41-14.3-19.79-14.34-9.9-.05-17.54,5.01-22.51,13.42-.52,.88,.85,1.68,1.37,.8h0Z"/><path class="cls-3" d="M49.95,63.78c1.29-.71,6.08-1.97,6.82,.07,.35,.96,1.89,.55,1.55-.43-1.21-3.39-6.75-2.35-9.17-1.03-.9,.5-.1,1.88,.81,1.38h0Z"/><path class="cls-3" d="M51.22,106.44c5.81-12.14,11.12-24.56,11.98-38.15,.06-1.03-1.54-1.03-1.6,0-.84,13.31-6.07,25.46-11.76,37.34-.44,.93,.94,1.74,1.38,.81h0Z"/><path class="cls-3" d="M57.78,69.94c-1.05,3.85-2.75,11.46-6.5,13.87-2.42,1.55-10.17-.82-12.56-2.29-1.06-.65-.78-.18-.55-2.19,.22-1.83,.47-3.65,.56-5.49,.19-3.96-.12-8.07-2.44-11.42-.61-.88-2.06-.04-1.45,.85,3.6,5.17,1.82,11.28,1.53,17.03-.16,3.19,2.45,3.07,5.28,3.93,3.1,.95,7.95,3.13,10.81,.76,3.91-3.24,5.68-10,6.93-14.61,.28-1.04-1.33-1.49-1.61-.45h0Z"/><path class="cls-3" d="M27.62,58.96c-6.91,5-12.66,11.28-17.81,18.04-3.62,4.75-8.31,10.32-10.76,15.8-1.94,4.34-3.42,13.69,1.9,16.35,7.44,3.72,13.71-3.12,17.37-8.64,.57-.86-.82-1.67-1.38-.81-2.22,3.35-4.76,7.07-8.83,8.29-3.19,.96-7.52,.42-8.67-3.19-.36-1.12-.39-3.62-.36-4.81,.12-5.75,3.49-9.86,6.53-14.35,6.38-9.43,13.53-18.58,22.83-25.31,.83-.6,.03-1.99-.81-1.38h0Z"/><path class="cls-3" d="M84.71,107.32c-2.55-1.67-8.49-4.04-9.8-6.88-.53-1.16-.29-3.47-.47-4.75-.28-1.92-.67-3.81-1.15-5.69-2.03-7.93-5.68-15.32-10.2-22.11-.57-.85-1.96-.05-1.38,.81,5.48,8.24,9.75,17.44,11.15,27.31,.42,2.98-.17,4.57,1.98,6.5,2.73,2.45,6.01,4.19,9.07,6.19,.87,.57,1.67-.82,.81-1.38h0Z"/><path class="cls-3" d="M57.1,89.04c.81,6.19,1.62,15.68,6.04,20.7,1.21,1.37,3.14,2.02,4.77,2.77,4.33,2.01,8.79,3.84,13.42,5.01,1,.25,1.43-1.29,.43-1.55-4.12-1.04-8.1-2.62-11.97-4.36-1.75-.79-4.09-1.5-5.42-2.91-4.15-4.39-4.96-14.19-5.67-19.68-.13-1.01-1.74-1.02-1.6,0h0Z"/><path class="cls-3" d="M15.44,86.63c-.55-4.61,.46-10.45,4.2-13.65,2.12-1.81,5.91-2.44,8.39-1.33,2.99,1.34,4.2,3.43,2.3,6.4-.56,.87,.83,1.68,1.38,.81,1.32-2.06,2.25-4.4,.39-6.42-2.05-2.22-5.14-3.34-8.05-2.85-7.97,1.34-11.09,9.66-10.22,17.04,.12,1.01,1.72,1.02,1.6,0h0Z"/><path class="cls-3" d="M24.81,75.47c1.2,.98,2.41,1.96,3.61,2.94,.67,.55,1.56,1.06,1.77,1.98,.16,.71-.09,1.63-.24,2.31-.22,1.01,1.33,1.44,1.55,.43,.31-1.45,.67-3.26-.37-4.5-1.37-1.64-3.52-2.94-5.18-4.3-.79-.65-1.93,.48-1.13,1.13h0Z"/><path class="cls-3" d="M23.55,79.98l3.95,2.42c.58,.36,1.51,.74,1.95,1.27,1.3,1.57-.23,1.87-1.12,2.1-1,.26-.57,1.81,.43,1.55,1.81-.47,3.64-1.83,2.52-3.91-.53-.98-1.56-1.54-2.47-2.1-1.48-.91-2.96-1.82-4.44-2.73-.88-.54-1.69,.85-.81,1.38h0Z"/><path class="cls-3" d="M22.54,84.15c1.47,.74,3.7,1.77,4.61,3.19,1.36,2.12-2.95,3.23-4.38,3.55-1.01,.23-.58,1.77,.43,1.55,2.17-.49,5.88-1.54,5.9-4.35,.02-2.53-3.88-4.39-5.74-5.32-.92-.46-1.73,.92-.81,1.38h0Z"/><path class="cls-3" d="M32.13,78.5c.42-.19,.84-.36,1.27-.51,.2-.07,.4-.13,.6-.19,.35-.01,.35-.1,0-.26-.07,.65-.19,1.19-.48,1.81-.57,1.23-1.45,2.77-2.66,3.47-.89,.51-.09,1.9,.81,1.38,1.87-1.08,3.47-3.74,3.87-5.82,.15-.78,.1-1.85-.78-2.18-1.01-.38-2.56,.53-3.45,.93-.94,.42-.12,1.81,.81,1.38h0Z"/><path class="cls-3" d="M7.36,91.93c2.39-1.76,4.77-3.53,7.16-5.29,.82-.61,.02-2-.81-1.38-2.39,1.76-4.77,3.53-7.16,5.29-.82,.61-.02,2,.81,1.38h0Z"/><path class="cls-3" d="M15.01,88.51c.18,1.3,1.26,1.96,2.52,1.83,.93-.09,1.8-.7,2.75-.5,.83,.18,2.04,1.28,1.89,2.22-.16,1.01,1.38,1.44,1.55,.43,.23-1.43-.54-2.71-1.68-3.55-.57-.42-1.23-.69-1.94-.73-.78-.05-3.37,1.06-3.54-.12-.14-1.02-1.69-.58-1.55,.43h0Z"/><path class="cls-3" d="M26.53,76.54c.35-.06,.7-.09,1.05-.12,.18-.01,.36-.02,.54-.02h.18c.26,.03,.25-.02-.05-.16l-.19-.71c-.04,.15-.22,.35-.3,.48-.12,.19-.24,.38-.36,.57-.5,.8,.77,1.54,1.27,.74,.27-.43,.68-.91,.81-1.41,.07-.24,0-.54-.19-.71-.39-.36-.94-.28-1.44-.26-.57,.02-1.15,.09-1.71,.18-.39,.06-.61,.55-.51,.9,.12,.42,.51,.58,.9,.51h0Z"/><path class="cls-3" d="M70.7,32.3c3.11,6.36,2.43,11.8-.33,18.04-1.72,3.87-.69,8.09-3.07,11.93-3.42,5.49-9.81,7.23-15.85,5.89-4.94-1.1-10.88-3.25-12.99-8.24-.4-.95-1.78-.13-1.38,.81,4.11,9.73,21.08,12.5,28.7,5.77,5.17-4.56,5.04-11.31,7.17-17.27s2.01-11.88-.85-17.73c-.45-.93-1.84-.11-1.38,.81h0Z"/><path class="cls-3" d="M51.7,37.26c-1.59-2.39-3.92-4.38-6.42-5.77-1.13-.63-2.14,1.1-1.01,1.73,2.2,1.22,4.3,2.95,5.7,5.05,.71,1.07,2.45,.07,1.73-1.01h0Z"/><circle class="cls-3" cx="46.09" cy="42.29" r="2.22"/><circle class="cls-3" cx="63.97" cy="46.68" r="1.57"/><path class="cls-3" d="M59.69,58.27c.9,.82,1.55,1.81,1.91,2.97,.31,.98,1.86,.56,1.55-.43-.44-1.42-1.23-2.68-2.33-3.68-.76-.69-1.9,.44-1.13,1.13h0Z"/></g><g><path class="cls-3" d="M54.37,41.63c-.34,8.09-6.47,14.67-14.76,14.76-7.97,.09-14.86-6.79-14.76-14.76s6.66-14.76,14.76-14.76,14.42,6.72,14.76,14.76c.04,.91,1.45,.91,1.41,0-.37-8.8-7.09-16.18-16.18-16.18s-16.18,7.37-16.18,16.18,7.37,16.18,16.18,16.18c9.09,0,15.8-7.38,16.18-16.18,.04-.91-1.37-.91-1.41,0Z"/><path class="cls-3" d="M57.01,41.63c-.35,9.59-7.73,17.6-17.6,17.6s-17.6-8-17.6-17.6,8-17.6,17.6-17.6,17.25,8.01,17.6,17.6c.04,1.08,1.72,1.09,1.68,0-.39-10.49-8.5-19.29-19.29-19.29s-19.29,8.78-19.29,19.29,8.79,19.32,19.29,19.29,18.9-8.77,19.29-19.29c.04-1.08-1.64-1.08-1.68,0Z"/><path class="cls-3" d="M35.11,62.48l-7.1-2.9,.49,.87,1.19-2.93-.87,.49,7.1,2.9-.49-.87-1.19,2.93c-.34,.84,1.02,1.21,1.36,.38l1.19-2.93c.16-.38-.18-.74-.49-.87l-7.1-2.9c-.38-.16-.74,.18-.87,.49l-1.19,2.93c-.16,.38,.18,.74,.49,.87l7.1,2.9c.84,.34,1.21-1.02,.38-1.36Z"/><path class="cls-3" d="M31.81,66.09l-3.95-1.61,.44,.78,1.71-4.18-.78,.44,3.95,1.61-.44-.78-1.71,4.18c-.31,.75,.91,1.08,1.22,.34l1.71-4.18c.14-.34-.16-.66-.44-.78l-3.95-1.61c-.34-.14-.66,.16-.78,.44l-1.71,4.18c-.14,.34,.16,.66,.44,.78l3.95,1.61c.75,.31,1.08-.91,.34-1.22Z"/><path class="cls-3" d="M22.46,91.73l-3.27,8.01,.92-.52-7.1-2.9,.52,.92,3.18-7.61c.37-.89-1.08-1.28-1.45-.4l-3.18,7.61c-.17,.4,.19,.79,.52,.92l7.1,2.9c.41,.17,.79-.19,.92-.52l3.27-8.01c.37-.89-1.09-1.28-1.45-.4h0Z"/><path class="cls-3" d="M24.44,70.51l2.39-5.87-.92,.52,7.1,2.9-.52-.92-2.07,5.08c-.37,.89,1.09,1.28,1.45,.4l2.07-5.08c.17-.41-.19-.79-.52-.92l-7.1-2.9c-.41-.17-.79,.19-.92,.52l-2.39,5.87c-.37,.89,1.09,1.28,1.45,.4h0Z"/><g class="cls-4"><path class="cls-3" d="M31.94,31.78c-.83,.7-1.53,1.54-2.11,2.45-.39,.61-.14,1.55,.49,1.89,.69,.36,1.47,.15,1.89-.49,.29-.45,.38-.57,.7-.93,.3-.34,.64-.66,.98-.96,.55-.47,.52-1.47,0-1.95-.59-.54-1.36-.5-1.95,0h0Z"/></g><g class="cls-4"><path class="cls-3" d="M28.25,37.22c-1.66,3.02-1.89,7.68,.38,10.44,1.13,1.37,3.07-.59,1.95-1.95-1.41-1.7-.93-5.31,.05-7.09,.86-1.56-1.53-2.95-2.38-1.39h0Z"/></g></g></g></g></svg>