<?xml version="1.0" encoding="utf-8"?>
<!-- Generator: Adobe Illustrator 26.3.1, SVG Export Plug-In . SVG Version: 6.00 Build 0)  -->
<svg version="1.1" id="圖層_1" xmlns="http://www.w3.org/2000/svg" xmlns:xlink="http://www.w3.org/1999/xlink" x="0px" y="0px"
	 viewBox="0 0 103.3 100.7" style="enable-background:new 0 0 103.3 100.7;" xml:space="preserve">
<style type="text/css">
	.st0{fill:#70888A;}
	.st1{fill:#D37460;}
	.st2{fill:#F7EDD0;}
	.st3{fill:#354253;}
	.st4{fill:none;stroke:#354253;stroke-width:0.3265;stroke-miterlimit:10;}
	.st5{fill:none;stroke:#354253;stroke-width:0.2909;stroke-miterlimit:10;}
	.st6{fill:none;stroke:#354253;stroke-width:0.2682;stroke-miterlimit:10;}
	.st7{fill:#354152;}
	.st8{font-family:'SentyTang';}
	.st9{font-size:21px;}
</style>
<path class="st0" d="M63.3,35.3c-0.8-2.2-1.9-4.2-3.1-6.2c-0.8-1.4-2.2-3-3.7-2.6c-0.9,0.3-1.5,1.1-1.9,1.9
	c-1.5,2.8-2.4,5.9-2.6,9.1c-1.5-1.6-1.8-3.8-2.2-6c-0.4-2.1-0.8-4.4-2.5-5.8c-5.2-4.5-11.5,9.9-12.6,13.5c-1.4,4.6-1,10.2,2.3,13.7
	c2.6,2.8,6.7,4,10.3,3c3.7-0.9,6.7-4,7.6-7.7c2.7,1.1,6.1-0.2,7.8-2.7c1.7-2.4,1.9-5.6,1.2-8.5C63.7,36.6,63.5,35.9,63.3,35.3z"/>
<path class="st1" d="M84.2,41.6c0.1-2.4-0.1-4.9-0.5-7.3c-2.5-13-13-24.1-25.8-27.4c-10.2-2.6-21.5-0.1-30,6.1
	c-9.4,6.9-13.2,19.3-12,30.6c0.1,1,0.2,1.9,0.4,2.8C18,56,23.7,64.8,32,70c11.2,7.1,26.6,6.7,37.5-0.9
	C78.4,62.9,83.8,52.3,84.2,41.6z M72.4,59.8c-3.4-3.3-6.6-6.8-9.6-10.5c-1-1.3-3.3-1.1-4.3,0c-1.3,1.3-1,3.1,0,4.3
	c2.9,3.7,6.5,6.1,9.9,9.4c-0.6,0.5-1.7,2-2.3,2.5c-1.7,1.2-3.5,2.2-5.4,3.1c-0.5-0.3-1.2-0.5-2-0.2c-11.8,4.1-25-0.3-32.3-10.4
	c-7.3-10.2-7.7-24.1-1.4-34.9c0.4-0.6,0.8-1.3,1.2-1.9c2.9,3.2,6.1,6,9.5,8.5c1.3,1,3.4,0.2,4.2-1.1c0.9-1.6-6.9-8.3-9.5-11.1
	c0.2-0.2,7.6-4.4,11.2-5.9c0.2,0,0.4,0,0.7,0c8.8-1.2,18.4,0.7,25.6,6.1c6.5,4.9,10.9,12.7,10.9,20.9c0,0.7,0.2,1.3,0.6,1.7
	c-0.2,0.4-0.3,0.8-0.2,1.3c0.2,2.5-0.2,4.9-1.2,7.2c-0.2,0.4-0.3,0.9-0.3,1.3c0,0.1-0.1,0.2-0.1,0.3C76.6,53.9,74.7,57,72.4,59.8z"
	/>
<g>
	<g>
		<path class="st2" d="M44.1,24.6c-4.4,8.8-12.5,17.1-9.4,27.7c0.4,1.3,2.5,0.8,2.1-0.6c-2.9-9.9,5.1-17.9,9.2-26.1
			C46.6,24.4,44.8,23.4,44.1,24.6L44.1,24.6z"/>
	</g>
</g>
<g>
	<g>
		<path class="st2" d="M56.7,26.3c-3,3.6-6,7.9-3.5,12.7c0.6,1.2,2.5,0.1,1.9-1.1c-1.9-3.7,0.9-7.3,3.2-10.1
			C59.1,26.7,57.6,25.2,56.7,26.3L56.7,26.3z"/>
	</g>
</g>
<g>
	<g>
		<path class="st3" d="M43.6,6.9C50.5,6.1,58,6.8,64.3,9.7c5.8,2.7,10.6,7,14,12.4c3.5,5.6,5.3,12.1,5.6,18.7c0.3,7.7-2.3,15-7.1,21
			c-4.9,6.1-11.6,10.5-19.2,12.2c-7.3,1.6-15.1,0.5-21.9-2.5c-6.4-2.9-11.9-7.6-15.4-13.7c-3-5.3-4.4-11.4-4.2-17.5
			c0.1-6.1,1.8-12.2,4.9-17.5c3.4-5.8,8.2-9.7,14.1-12.8c2-1,4-1.9,6-2.6c0.7-0.2,0.4-1.4-0.3-1.2c-7,2.3-13.7,6.2-18.3,12
			c-3.9,5-6.3,11-7.2,17.3c-0.9,6.3-0.3,12.9,2.1,18.8c2.6,6.5,7.3,12,13.2,15.7c6.3,4,14,6.1,21.4,5.8c8-0.3,15.7-3.5,21.6-8.9
			c5.8-5.2,10.1-12.4,11.2-20.1c1-6.9-0.2-14.3-3-20.6c-2.6-6.1-6.9-11.4-12.4-15.1c-6-4-12.8-5.5-19.9-5.7c-2,0-3.9,0-5.8,0.3
			C42.8,5.8,42.8,7,43.6,6.9L43.6,6.9z"/>
	</g>
</g>
<g>
	<g>
		<path class="st3" d="M36,29.1c-2.9-2.8-5.7-5.7-8.6-8.5c-0.3-0.3-0.8-0.2-1.1,0.1c-8.6,12.1-10.7,28.6,0,40.3
			c11.2,12.4,30.5,12.5,43.1,2.5c0.3-0.2,0.2-0.7,0-1c-3.7-3.5-7.4-7-10.9-10.6c-0.6-0.6-1.6,0.3-1,1c2.5,2.5,5,5,7.6,7.4
			c0.5,0.5,2.7,1.9,2.8,2.7c0.2,1-0.7,0.8-2,1.4c-1,0.5-1.8,1.2-2.8,1.7c-9.8,5.2-22.3,4.2-31.4-2.1c-9.7-6.8-13.5-19.7-10.4-31
			c0.8-3.1,2.8-8.1,5.3-10.3c1.5-1.4,0.8-0.6,2.3,1.3c1.8,2.2,4.1,4.1,6.1,6.1C35.6,30.7,36.6,29.7,36,29.1L36,29.1z"/>
	</g>
</g>
<g>
	<g>
		<path class="st3" d="M44.2,11.6c15.1-1.5,29.3,5.7,33.3,21c2,7.4,1.3,15.1-2.4,21.8c-0.3,0.5-2.6,4.8-3.2,4.7
			c0.5,0.1-2.9-3.8-2.8-3.7c-1.6-1.6-3.2-3.3-4.9-4.9c-0.6-0.6-1.6,0.3-1,1c2.9,2.9,5.7,5.8,8.6,8.7c0.2,0.2,0.7,0.3,1,0
			c7.8-8.9,9.2-21.7,4.5-32.4c-5.7-13.3-19.2-19-33.1-17.6C43.4,10.3,43.3,11.7,44.2,11.6L44.2,11.6z"/>
	</g>
</g>
<g>
	<g>
		<path class="st3" d="M40.9,27c-3.3-3.3-6.7-6.5-10-9.8c0,0.4-0.1,0.7-0.1,1.1c3.3-2.6,7.2-4.8,11.2-6c0.8-0.3,0.5-1.6-0.4-1.3
			c-4.2,1.3-8.1,3.5-11.5,6.1c-0.3,0.3-0.5,0.7-0.1,1.1c3.3,3.3,6.7,6.5,10,9.8C40.5,28.6,41.5,27.6,40.9,27L40.9,27z"/>
	</g>
</g>
<g>
	<g>
		<path class="st3" d="M45,22.1c-5.2,6.1-11.2,14.4-11.6,22.7c-0.4,6.3,4.2,12.4,10.8,13c6.1,0.5,11.8-4.1,12.5-10.2
			c0.9-9.2-7.6-15.8-9.6-24.2c-0.3-1.4-2.5-0.8-2.1,0.6c1.1,4.7,3.7,8.4,6.2,12.6c3.7,6.4,5.6,17.2-4.3,18.9
			c-8.6,1.5-12.4-7.3-10.4-14.4c1.8-6.3,6-12.3,10.2-17.3C47.5,22.6,45.9,21,45,22.1L45,22.1z"/>
	</g>
</g>
<g>
	<g>
		<path class="st3" d="M57.1,49.6c4.6,0,8.6-3,9-7.8c0.4-6.4-5.4-11-6.8-16.9c-0.3-1.3-2.3-0.7-2,0.5c0.7,2.9,2.1,5.2,3.6,7.7
			c3.2,5.2,5.2,14.2-3.8,14.3C55.7,47.6,55.7,49.6,57.1,49.6L57.1,49.6z"/>
	</g>
</g>
<g>
	<g>
		<path class="st3" d="M57.4,24c-2.7,3.2-5,6.7-6.7,10.5c-0.5,1.2,1.2,2.2,1.8,1c1.6-3.7,3.8-7,6.4-10.1C59.7,24.4,58.3,23,57.4,24
			L57.4,24z"/>
	</g>
</g>
<g>
	<text transform="matrix(1 0 0 1 33.2182 95.0983)" class="st7 st8 st9">去油</text>
</g>
</svg>
