<?xml version="1.0" encoding="utf-8"?>
<!-- Generator: Adobe Illustrator 26.3.1, SVG Export Plug-In . SVG Version: 6.00 Build 0)  -->
<svg version="1.1" id="圖層_1" xmlns="http://www.w3.org/2000/svg" xmlns:xlink="http://www.w3.org/1999/xlink" x="0px" y="0px"
	 viewBox="0 0 103.3 100.7" style="enable-background:new 0 0 103.3 100.7;" xml:space="preserve">
<style type="text/css">
	.st0{fill:#70888A;}
	.st1{fill:#D37460;}
	.st2{fill:#F7EDD0;}
	.st3{fill:#354253;}
	.st4{fill:none;stroke:#354253;stroke-width:0.3265;stroke-miterlimit:10;}
	.st5{fill:none;stroke:#354253;stroke-width:0.2909;stroke-miterlimit:10;}
	.st6{fill:none;stroke:#354253;stroke-width:0.2682;stroke-miterlimit:10;}
	.st7{fill:#354152;}
	.st8{font-family:'SentyTang';}
	.st9{font-size:21px;}
</style>
<path class="st1" d="M79.4,27.1c-1.1,0.2-2.3,0.6-3.2,1.3c-0.9,0.6-1.9,1.3-3,1.5c-1,0.2-1.7-0.3-2.4-1c-0.4-0.4-0.5-0.6-1-0.8
	c-0.6-0.3-1.2-0.4-1.7-0.8c-1.1-0.9-0.7-2.2-1.5-3.2c-0.9-1-2-1.8-3.1-2.5c-1.2-0.7-2.4-1.2-3.7-1.5c-0.4-0.1-3.7-0.7-3.8-0.3
	c0.9-2.4-1.4-5.5-4-5.1c-2.6,0.3-4.1,3.9-2.6,6c-2.6-0.8-5.6,0.3-7.7,2c-2.2,1.7-3.9,3.9-6,5.8c-2.1,1.9-4.7,3.4-7.4,3.2
	c-2.5-0.2-4.7-1.7-7.1-2.5c-2.8-0.9-5.6-0.3-6.6,2.7c-0.5,1.4,0.2,2.4,1,3.6c0.9,1.3,2.8,1.4,3.9,2.6c0.9,1,1.5,2.1,2.1,3.3
	c2.3,4.5,3.7,9.5,6.7,13.6c4.4,6.1,11.2,10.5,18.6,11.8c0,0,0.1,0,0.1,0c5.1,0.9,10.4,0.3,15.2-1.5c2.3-0.9,4.4-2.5,6.7-3.2
	c2.4-0.8,4.8-2,6.7-3.7c1.7-1.6,3.1-3.7,3.6-6c0.3-1.1,0.3-1.5,1.2-2.4c0.9-0.9,1.8-1.9,2.7-2.7c2.6-2.4,5.5-4.7,6.8-8
	c1.1-3.1,0.5-6.7-1.7-9.2C85.8,27.7,82.5,26.5,79.4,27.1z M79.8,42.3c-0.2-3.2-1.3-6.4-3.2-8.9c0.6-0.3,1.2-0.5,1.8-0.8
	c1.9-0.8,4.2-0.8,5.6,1C86.9,37.4,83.1,40.4,79.8,42.3z"/>
<g>
	<g>
		<path class="st0" d="M51.8,15.6c1.4,0.2,1.4,3,1.3,4.1c-0.1,1.7,2.5,1.7,2.7,0c0.2-2.3-0.6-6.1-3.3-6.6
			C50.9,12.7,50.2,15.3,51.8,15.6L51.8,15.6z"/>
	</g>
</g>
<g>
	<g>
		<path class="st0" d="M58.5,22.3c2.7,0.2,4.8,2.2,5,4.9c0.1,1.7,2.8,1.7,2.7,0c-0.3-4.2-3.4-7.3-7.6-7.6
			C56.8,19.5,56.8,22.2,58.5,22.3L58.5,22.3z"/>
	</g>
</g>
<g>
	<g>
		<path class="st0" d="M67.1,30.2c6.2,2.6,9.4,8.6,9.3,15.2c-0.1,7.7-5.4,12.6-11.4,16.5c-1.4,0.9-0.1,3.2,1.3,2.3
			c6.8-4.4,12.6-10.2,12.7-18.8C79.1,38,75.5,31,68.4,28C66.9,27.3,65.5,29.6,67.1,30.2L67.1,30.2z"/>
	</g>
</g>
<g>
	<g>
		<path class="st0" d="M83.7,29.1c7.1,5.5,2.2,14.1-4.4,17.1c-1.5,0.7-0.2,3,1.3,2.3c8.1-3.7,13.3-14.7,5-21.3
			C84.3,26.1,82.4,28,83.7,29.1L83.7,29.1z"/>
	</g>
</g>
<g>
	<g>
		<path class="st0" d="M13.3,31.6c-1.5,4.5,6.7,7.6,9,10.2c4.7,5.3,2.9,13.5,8.6,18.1c1.3,1.1,3.2-0.8,1.9-1.9
			c-4.7-3.9-3.6-10.5-6.5-15.4c-1.1-1.9-2.7-3.5-4.3-4.9c-1.1-1-6.5-4-6-5.5C16.4,30.7,13.8,30,13.3,31.6L13.3,31.6z"/>
	</g>
</g>
<g>
	<g>
		<path class="st2" d="M16.4,32.7c2.6-3.5,8.1,1.2,11.4,1.6c2,0.2,3.9-0.5,5.2-2c0.9-1.1-0.7-2.8-1.6-1.6c-3,3.7-8.1-1.3-11.8-1.5
			c-2.2-0.1-3.8,0.7-5.1,2.4C13.5,32.7,15.5,33.9,16.4,32.7L16.4,32.7z"/>
	</g>
</g>
<g>
	<g>
		<path class="st2" d="M50.8,19c-0.4-1.6,0.7-3,2.3-3.3c1.5-0.3,0.8-2.5-0.6-2.2c-2.9,0.5-4.5,3.3-3.9,6.1
			C48.9,21,51.1,20.4,50.8,19L50.8,19z"/>
	</g>
</g>
<g>
	<g>
		<path class="st2" d="M75.9,32.2c3.8-3,8.8-2.2,11.8,1.5c1,1.2,2.6-0.5,1.6-1.6c-3.9-4.7-10.3-5.2-15.1-1.5
			C73.1,31.4,74.7,33.1,75.9,32.2L75.9,32.2z"/>
	</g>
</g>
<g>
	<g>
		<path class="st2" d="M63.1,27.3c-7.4,0.1-14.7,0.2-22.1,0.4c-4.6,0.1-8.5,0.6-11.4,4.5c-0.9,1.2,1.1,2.4,2,1.2
			c3.5-4.7,11.7-3.4,16.7-3.5c4.9-0.1,9.8-0.2,14.7-0.3C64.5,29.5,64.6,27.2,63.1,27.3L63.1,27.3z"/>
	</g>
</g>
<g>
	<g>
		<path class="st2" d="M55,20.3c-6.7-0.4-14.5-0.2-18,6.5c-0.7,1.3,1.3,2.5,2,1.2c3.1-6,10.2-5.7,16-5.4
			C56.5,22.7,56.5,20.4,55,20.3L55,20.3z"/>
	</g>
</g>
<g>
	<g>
		<path class="st3" d="M49.9,19.5c-0.1-0.9-0.1-1.8,0.1-2.7c0.3-1.2,1.1-1.7,2.4-1.8c2.6,0,2.4,2.7,2.4,4.5c0,1.3,2,1.3,2,0
			c0-1.4,0.1-3.1-0.5-4.4c-0.8-1.6-2.5-2.2-4.2-2.1c-1.5,0.1-3,0.8-3.6,2.3c-0.6,1.4-0.6,3.1-0.4,4.6C48.2,21.2,50.1,20.7,49.9,19.5
			L49.9,19.5z"/>
	</g>
</g>
<g>
	<g>
		<path class="st3" d="M74.3,31.4c5.3-5.3,15.4-3,14.3,5.8c-0.6,5-4.8,9.5-9.3,11.5c-1.2,0.5-0.2,2.2,1,1.7
			c6.4-2.8,12.8-11.2,9.5-18.4c-3.2-7.1-12-7-17-2C72,30.9,73.4,32.2,74.3,31.4L74.3,31.4z"/>
	</g>
</g>
<g>
	<g>
		<path class="st3" d="M38.7,26.8c2.4-6.2,8.1-5.1,13.6-5.1c5.2,0,11.8-1.1,13.8,5.1c0.4,1.2,2.3,0.7,1.9-0.5
			c-2.3-7.6-9.1-6.5-15.7-6.6c-6.8-0.1-12.7-0.8-15.5,6.5C36.4,27.5,38.3,28,38.7,26.8L38.7,26.8z"/>
	</g>
</g>
<g>
	<g>
		<path class="st3" d="M47.9,65.4c-8.3-1.7-18.2-5.7-21.5-14.3c-1.3-3.4-1.6-7.1-3.8-10.1c-0.9-1.3-2-2.5-3.1-3.6
			c-1-1-2.9-1.8-3.7-2.7c-1.5-1.8-0.4-3.1,1.3-4.1c1.9-1.1,2.7-0.5,4.6,0.3c2.3,0.9,5,2.9,7.6,2.6c2.6-0.3,4.2-2.8,6.3-3.9
			c2.5-1.3,5.2-0.8,8-0.7c6.5,0.1,13,0.1,19.6,0.1c5.2,0,8,0.4,11.8,4.8c6.8,8,5.4,19.9-3.1,25.9c-5.8,4.1-13.2,6-20.2,6
			c-1.3,0-1.3,2,0,2c10.5,0,24.8-4.4,28.6-15.4c3.1-9.1-1.5-24.3-12.7-25.2c-5.5-0.4-11.2,0.1-16.7,0c-4.6,0-11.7-1.7-15.7,0.6
			c-0.8,0.5-1.6,1.3-2.4,1.7c-3.4,1.8-6.1,1.5-9.1,0.2c-1.7-0.7-4-2-5.8-1.5c-2.2,0.6-6,4.3-4.9,6.7c0.7,1.5,3.2,2.3,4.4,3.3
			c2.5,2,4.6,4.6,5.6,7.7c1.1,3.4,1.6,7.1,3.7,10c4.8,6.7,13.3,10.1,21,11.7C48.6,67.5,49.2,65.6,47.9,65.4L47.9,65.4z"/>
	</g>
</g>
<g>
	<g>
		<path class="st3" d="M76.7,34.3c2.1-1.2,5.5-1.5,6.1,1.5c0.5,2.3-1.3,4.3-2.9,5.7c-0.9,0.9,0.5,2.2,1.4,1.4c2.5-2.2,4.7-5.6,2.9-9
			c-1.7-3.3-5.8-2.9-8.6-1.4C74.6,33.2,75.6,34.9,76.7,34.3L76.7,34.3z"/>
	</g>
</g>
<g>
	<text transform="matrix(1 0 0 1 33.2178 95.0983)" class="st7 st8 st9">茶醫</text>
</g>
</svg>
