<?xml version="1.0" encoding="UTF-8"?><svg id="_層_1" xmlns="http://www.w3.org/2000/svg" viewBox="0 0 103.35 100.72"><defs><style>.cls-1{fill:#f7edd0;}.cls-2{fill:#d37460;}.cls-3{fill:#354253;}.cls-4{fill:#354152;}.cls-5{fill:#70888a;}</style></defs><path class="cls-2" d="M79.38,60.88c-.09-5.38-.27-10.75-.55-16.12-.1-1.85-.29-3.9-1.67-5.14-.54-.49-.81-.56-1.47-.34-2.57,.84-4.92,2.31-6.82,4.23-.35,.36-.92,1.36-1.38,1.52-.52,.19-1.02-.28-1.47-.52-1.23-.67-2.52-1.22-3.85-1.66-2.66-.87-5.48-1.28-8.28-1.2-1.4,.04-2.8,.2-4.17,.48-.39,.08-3.87,.82-3.86,1.15l-.62-17.9c-.02-.68-.04-1.41,.32-2,.52-.87,1.68-1.13,2.68-1.02s1.96,.51,2.96,.65c1.89,.26,3.16-.5,4.53-1.63,1.26-1.04,2.84-1.36,3.65-2.93,.78-1.52,.4-3.43-.52-4.87-.97-1.51-2.51-2.69-3.8-3.88-1.15-1.06-2.74-1.71-4.25-2.02-3.05-.62-6.42,.1-8.76,2.2-2.56,2.28-3.75,5.68-4.85,8.93,0,2.8-1.63,7.76-2.53,10.44-1.18,3.49-3.04,6.06-4.21,9.55-1.36,4.04-3.58,7.81-4.24,12.07-.29,1.86-.29,4.1,.71,5.78,.52,.87,1.24,.88,2.17,1.17,1.34,.42,2.59,1.07,3.78,1.82,1.82,1.15,3.49,2.51,5.29,3.69,4.24,2.76,9.19,4.4,14.24,4.74,2.52,.17,4.94,.13,7.33-.64,2.62-.85,5.43-1.77,8.19-1,1.57,.44,2.94,1.39,4.43,2.06s3.28,1.03,4.71,.25c2.15-1.16,2.4-4.08,2.37-6.52,0-.44-.01-.88-.02-1.32Z"/><g><path class="cls-5" d="M77.44,38.13c-.39-.08-.76-.02-1.07,.28-.88,.84-1.89,1.05-2.81,.86-1.8,1.43-3.38,3.09-4.72,4.98-7.36-4.17-17.2-6.04-23.67,.46,.48-4.78,.68-9.61,.33-14.38-.1-1.33-.23-2.66-.17-4,.03-.62,.06-1.29,.25-1.88,.05-.09,.06-.15,.07-.19,.17-.03,.34-.07,.51-.12,.87-.3,1.63-.97,1.89-1.87,.13-.44,.1-.98,0-1.43-.07-.32-.18-.62-.32-.91-.05-.21-.1-.34-.15-.4-.07-.09,.13-1.33-.09-1.7-.31-.53-.87-.93-1.49-.99-1.1-.11-2.35,1.18-2.73,2.11-.3,.73-.33,1.54-.44,2.33-.17,1.29-.67,2.37-1.04,3.58-.33,1.07-.17,2.35-.12,3.47,.2,4.1,.25,8.22,.06,12.32-.09,2.05-.25,4.11-.47,6.15-.16,1.5-.93,3.4,1.35,3.71,.99,.13,1.97-.33,2.75-.95,1.83-1.46,3.21-3.28,5.38-4.32,1.86-.89,3.95-1.21,6-1.11,4.26,.21,8.39,2.03,11.92,4.32,1.29,.83,2.51-.2,2.69-1.38,.03-.04,.07-.09,.1-.14,1.51-2.32,3.47-4.27,5.78-5.79,1.19-.78,.99-2.25,.21-3.01Z"/><path class="cls-5" d="M77.01,65.9c-.28,0-.55,.02-.81,.01-3.34-.05-6.1-4.33-9.37-3.59-2.26,.51-4.43,1.37-6.74,1.78-2.23,.39-4.49,.61-6.76,.66-2.35,.05-4.66-.21-6.99-.36s-4.62-.83-6.93-1.1c.65,.95,1.58,1.55,2.57,2.08,.83,.44,2.83,1.94,3.75,1.88,.91-.06,1.8,.29,2.49,.92,.11,.03,.23,.06,.34,.09,6.21,.52,12.47-.17,18.44-2.09,.11,.37,.34,.72,.73,.99,2.41,1.72,8.85,4.4,11.01,1.09,.35-.54,.45-1.31,.05-1.81-.41-.51-1.09-.56-1.78-.55Z"/></g><path class="cls-1" d="M50.47,7.69c-6.1,.4-11.02,4.16-12.95,9.97-.52,1.58,1.96,2.25,2.48,.68,1.55-4.67,5.55-7.75,10.47-8.07,1.65-.11,1.66-2.69,0-2.58h0Z"/><path class="cls-1" d="M47.95,59.4c-3.2,.11-6.03-1.09-8.19-3.44-1.12-1.23-2.94,.6-1.82,1.82,2.58,2.82,6.19,4.33,10.02,4.2,1.65-.06,1.66-2.63,0-2.58h0Z"/><path class="cls-3" d="M42.56,17.5c1.84,.09,3.68,.18,5.53,.28l-.22-1.63c-.67,.2-1.17,.87-1.5,1.46-.56,1-.38,1.88,.28,2.76,.75,1.01,1.77,1.78,2.69,2.63,.82,.76,1.79,1.69,3,1.56,1.28-.14,2.49-1.44,3.47-2.17,1.12-.84,2.41-1.62,3.38-2.65,1.71-1.81,1.22-4.28,.22-6.34-1.98-4.07-6.7-6.69-11.2-6.18-2.56,.29-4.79,1.6-6.82,3.12-.94,.7-2.1,1.43-2.8,2.38-.87,1.17-.92,2.84-1.21,4.22-1.52,7.09-3.87,13.98-6.99,20.52-.46,.96,.97,1.8,1.43,.84,2-4.19,3.71-8.52,5.08-12.96,.7-2.26,1.31-4.54,1.83-6.84,.25-1.12,.47-2.24,.7-3.36,.28-1.34,.94-1.92,1.99-2.74,3.3-2.6,6.96-4.55,11.19-2.98,1.71,.63,3.26,1.77,4.38,3.21s2.49,4.12,1.15,5.81c-.76,.96-2,1.64-2.97,2.37s-2.54,2.46-3.74,1.82c-.94-.51-1.88-1.62-2.65-2.36-.37-.35-1.16-.99-1.11-1.58,.02-.18,.48-.91,.63-.95,.91-.27,.71-1.58-.22-1.63-1.84-.09-3.68-.18-5.53-.28-1.07-.05-1.06,1.6,0,1.66h0Z"/><path class="cls-3" d="M49.04,21.31c-1.66,1.18-3.73,1.7-5.7,1.37-.44-.07-.89,.12-1.02,.58-.11,.4,.13,.94,.58,1.02,2.43,.4,4.96-.11,6.98-1.54,.36-.26,.54-.72,.3-1.13-.21-.36-.77-.56-1.13-.3h0Z"/><path class="cls-3" d="M44.34,23.72c.54,8.03,1.06,16.16-.51,24.11-.21,1.04,1.39,1.49,1.6,.44,1.6-8.11,1.12-16.36,.57-24.55-.07-1.06-1.73-1.07-1.66,0h0Z"/><path class="cls-3" d="M46.8,43.91c3.7-2.18,8.87-2.36,13.02-1.65s7.8,2.62,10.2,5.95c.62,.86,2.05,.03,1.43-.84-2.65-3.69-6.75-5.95-11.19-6.72s-10.2-.6-14.3,1.81c-.92,.54-.09,1.97,.84,1.43h0Z"/><path class="cls-3" d="M69.01,45.12c1.29-2.79,3.85-4.81,6.87-5.42,.44-.09,.69-.61,.58-1.02-.13-.46-.58-.67-1.02-.58-3.39,.68-6.4,3.04-7.86,6.18-.19,.41-.11,.89,.3,1.13,.36,.21,.94,.11,1.13-.3h0Z"/><path class="cls-3" d="M66.99,66.83c2.67,2.15,6.09,3.05,9.47,2.49,.44-.07,.69-.62,.58-1.02-.13-.47-.58-.65-1.02-.58-2.74,.46-5.69-.32-7.86-2.06-.35-.28-.83-.34-1.17,0-.29,.29-.35,.89,0,1.17h0Z"/><path class="cls-3" d="M68.58,63.61c-6.46,4.04-14.44,4.56-21.67,2.49-3.68-1.05-7.16-2.73-10.38-4.79-1.55-.99-2.99-2.13-4.5-3.18-.69-.48-1.41-.91-2.18-1.25-.82-.36-1.77-.57-2.39-1.25-1.23-1.33-.81-3.62-.37-5.19,.61-2.16,1.5-4.25,2.52-6.25,.48-.95-.95-1.79-1.43-.84-1.6,3.15-3.61,7.16-3.08,10.8,.24,1.65,1.14,2.96,2.67,3.65,.86,.39,1.73,.68,2.54,1.18,.96,.58,1.84,1.29,2.75,1.95,6.73,4.93,14.9,8.35,23.37,8,4.58-.19,9.08-1.46,12.98-3.9,.9-.56,.07-2-.84-1.43h0Z"/><path class="cls-3" d="M38.2,58.26c2.74,2.45,6.21,3.91,9.88,4.15,1.06,.07,1.06-1.59,0-1.66-3.21-.21-6.31-1.52-8.71-3.67-.79-.71-1.97,.46-1.17,1.17h0Z"/><g><path class="cls-4" d="M35.7,81.63h.1c1.07-.04,1.88,.45,2.42,1.46v.41c0,.57-.37,1.3-1.1,2.2l.1,.21c-.16,1.5-.24,2.63-.26,3.39-.01,1.25,.07,3.23,.25,5.95-.36,.22-.64,.33-.85,.35-.45,.01-.91-.25-1.38-.78,.22-.33,.33-.85,.34-1.55l.02-1.13c.01-1.06,0-2.5-.05-4.32l-1.72,1.29h-.1c1.66-2.59,2.51-4.85,2.53-6.77l-.32-.5v-.21Zm8.71-.82c.48-.02,.97,.16,1.49,.55l-.1,.52v.72h.1c.4-.01,.82-.2,1.28-.56h.1c.34-.01,.77,.21,1.27,.67l-.32,1.05h.11c.23-.02,.48-.13,.74-.34h.1c.64,.11,.96,.27,.96,.47v.21l-.22,.32-.53-.08-.95,.03c-.14,.03-.21,.1-.21,.22v1.85c0,.14-.11,.21-.32,.21-.44,.02-.97-.06-1.59-.25-.12,.08-.29,.12-.53,.12v1.33h.1c.28-.01,.92-.17,1.92-.48h.21c.53,.06,.82,.18,.85,.37-.14,.32-.28,.5-.42,.53l-1.07,.04c-.36,.01-.89,.06-1.59,.15v1.45c1.26-.27,2.15-.58,2.66-.92,.42,.14,.85,.4,1.27,.78v.1l-.21,.32c-.5-.12-.89-.18-1.16-.16-.39,.02-1.24,.11-2.55,.3v.31c0,1.01-.39,1.84-1.17,2.51-.28,0-.46-.74-.53-2.24v-.1h-.1c-.23,.15-.41,.23-.53,.23-.6-.19-.92-.28-.95-.28v-.1c0-.21,.53-.32,1.59-.36v-1.55c-.6,.16-.95,.25-1.06,.25-.23-.13-.41-.19-.53-.19v-.21c.18,0,.71-.09,1.59-.27v-1.44l-.74,.24c-.29-.13-.5-.19-.64-.19v-.21l1.38-.26v-1.23h-.1c-.23,.14-.44,.22-.63,.22-.42-.12-.77-.18-1.07-.16,0,.45-.5,1.08-1.49,1.91,.78,.27,1.17,.73,1.17,1.39-.13,.63-.69,1.61-1.69,2.94,1.1,.92,3.04,1.63,5.83,2.14,1.97,.27,3.74,.38,5.31,.33v.21c-.31,.12-1.48,.74-3.51,1.88-2.06-.12-4.5-1.03-7.32-2.72,0-.09-.39-.39-1.17-.88h-.1l-.85,.75v-.1l.63-1.05c-.92-.72-1.38-1.39-1.38-2.01l.22-.11c.85,.79,1.42,1.19,1.7,1.18,.64-1.63,.95-2.56,.95-2.81-.81,.25-1.41,.54-1.8,.88-.29-.38-.43-.64-.43-.8,.47-.02,1.14-.97,2.02-2.85h-.1c-.66,.03-1.3,.26-1.92,.69-.35-.19-.52-.42-.52-.7,1.91-.29,2.86-.57,2.86-.83v-.1l-.1-.5h.21c.47-.03,.9,.26,1.28,.87,1.34-.16,2.01-.33,2.01-.49v-.92h-.1c-.23,.15-.44,.23-.63,.23l-.75-.17v-.21c.49-.01,.99-.13,1.49-.36l-.1-.51v-1.44c0-.17,.14-.28,.42-.32Zm-4.77,7.16v.1h.1c.57-.15,.85-.3,.85-.44v-.21c-.47,.36-.79,.55-.95,.55Zm6.15-4.75v1.13c.57-.09,.85-.2,.85-.34v-.92h-.32l-.53,.13Zm.32,1.53l-.32,.02v1.13c.52-.02,.8-.13,.85-.34v-.93l-.53,.12Z"/><path class="cls-4" d="M64.97,81.82c.9,.21,1.35,.43,1.35,.67v.23l-.37,.49-1.11-.07c-6.67,.59-10.01,1.07-10.01,1.44h-.37c-.31-.22-.56-.32-.74-.32v-.25c5.05-.77,8.51-1.37,10.38-1.8,.27-.01,.56-.14,.86-.39Zm-9.14,2.72c.44,.17,.89,.43,1.35,.79-.59,7.03-1.12,10.56-1.6,10.58-.36,.57-.82,.87-1.36,.88-.25-.31-.37-.83-.37-1.54,.66-.02,1.23-3.55,1.73-10.58l.25-.13Zm6.05-.81c.27,.07,.68,.41,1.23,1.03-.08,.14-.12,.3-.12,.48,.77-.21,1.43-.47,1.98-.79,.31,0,.76,.42,1.35,1.27l-.25,.84c.16-.08,.29-.13,.38-.13,.74,.1,1.11,.32,1.11,.68-.16,.37-.32,.57-.49,.62l-1.24-.07v.12c0,1.44-.29,2.16-.86,2.19,0,.16-.21,.24-.62,.26-.05,0-.25-.15-.62-.45l-.99,.03v2.99c0,.07,.04,.11,.12,.11l-.12,.25v2.51c0,.42-.33,.87-.98,1.34h-.12c-.69-.47-1.27-1.21-1.73-2.2l.25-.12,.99,.21v-4.79c-.34,.01-.8,.07-1.36,.17-.27-.15-.51-.22-.74-.21v-.24h.12c1.32-.06,1.98-.2,1.98-.44v-1.19l-2.84,.7c-.66-.12-1-.27-1-.44,.96-.27,2.24-.56,3.83-.86v-1.44c-.77,.19-1.43,.3-1.98,.32-.33-.11-.49-.22-.49-.34l2.47-.45v-1.31c.23-.41,.48-.62,.74-.62Zm-1.49,9.26h.12v.11c-.71,1.03-1.49,1.98-2.34,2.83-.29-.16-.54-.55-.75-1.17,1.24-.6,2.23-1.19,2.96-1.77Zm1.24-13.08c.45-.01,.82,.21,1.11,.68v.48c0,.34-1.07,.65-3.21,.95-.19,.25-.47,.38-.86,.39-.5-.44-.75-.87-.75-1.29h.13c1.32-.05,2.51-.45,3.58-1.21Zm-3.09,10.76h.25c1.23,.08,1.85,.54,1.85,1.36v.24c0,.12-.12,.24-.37,.37h-.12c-1.18-1.06-1.92-1.6-2.23-1.59v-.24l.63-.14Zm4.32-4.7v.11l-.12,1.2c.91-.03,1.36-.36,1.36-1v-.47l-.62,.02-.62,.14Zm-.12,1.92v1.19h.12c.75-.03,1.12-.44,1.12-1.24v-.11h-.38l-.86,.16Zm2.59,2.3c.27-.01,.65,.33,1.12,1.04v.24c0,.27-.66,.62-1.98,1.03,1.18,1.07,2.38,1.78,3.58,2.14v.12c-.53,.61-1.06,1.03-1.6,1.25-.79,.03-1.58-.9-2.35-2.78l-.12-.59-.87,.27v-.24c1.05-.59,1.79-1.42,2.22-2.47Z"/></g></svg>