<?xml version="1.0" encoding="utf-8"?>
<!-- Generator: Adobe Illustrator 26.3.1, SVG Export Plug-In . SVG Version: 6.00 Build 0)  -->
<svg version="1.1" id="圖層_1" xmlns="http://www.w3.org/2000/svg" xmlns:xlink="http://www.w3.org/1999/xlink" x="0px" y="0px"
	 viewBox="0 0 103.3 100.7" style="enable-background:new 0 0 103.3 100.7;" xml:space="preserve">
<style type="text/css">
	.st0{fill:#70888A;}
	.st1{fill:#D37460;}
	.st2{fill:#F7EDD0;}
	.st3{fill:#354253;}
	.st4{fill:none;stroke:#354253;stroke-width:0.3265;stroke-miterlimit:10;}
	.st5{fill:#354152;}
	.st6{font-family:'SentyTang';}
	.st7{font-size:21px;}
	.st8{fill:none;stroke:#354253;stroke-width:0.2909;stroke-miterlimit:10;}
	.st9{fill:none;stroke:#354253;stroke-width:0.2682;stroke-miterlimit:10;}
</style>
<path class="st1" d="M79.4,60.9c-0.1-5.4-0.3-10.8-0.5-16.1c-0.1-1.8-0.3-3.9-1.7-5.1c-0.5-0.5-0.8-0.6-1.5-0.3
	c-2.6,0.8-4.9,2.3-6.8,4.2c-0.4,0.4-0.9,1.4-1.4,1.5c-0.5,0.2-1-0.3-1.5-0.5c-1.2-0.7-2.5-1.2-3.9-1.7c-2.7-0.9-5.5-1.3-8.3-1.2
	c-1.4,0-2.8,0.2-4.2,0.5c-0.4,0.1-3.9,0.8-3.9,1.2c-0.2-6-0.4-11.9-0.6-17.9c0-0.7,0-1.4,0.3-2c0.5-0.9,1.7-1.1,2.7-1s2,0.5,3,0.7
	c1.9,0.3,3.2-0.5,4.5-1.6c1.3-1,2.8-1.4,3.7-2.9c0.8-1.5,0.4-3.4-0.5-4.9c-1-1.5-2.5-2.7-3.8-3.9c-1.1-1.1-2.7-1.7-4.2-2
	c-3-0.6-6.4,0.1-8.8,2.2c-2.6,2.3-3.8,5.7-4.8,8.9c0,2.8-1.6,7.8-2.5,10.4c-1.2,3.5-3,6.1-4.2,9.5c-1.4,4-3.6,7.8-4.2,12.1
	c-0.3,1.9-0.3,4.1,0.7,5.8c0.5,0.9,1.2,0.9,2.2,1.2c1.3,0.4,2.6,1.1,3.8,1.8c1.8,1.1,3.5,2.5,5.3,3.7c4.2,2.8,9.2,4.4,14.2,4.7
	c2.5,0.2,4.9,0.1,7.3-0.6c2.6-0.8,5.4-1.8,8.2-1c1.6,0.4,2.9,1.4,4.4,2.1c1.5,0.7,3.3,1,4.7,0.3c2.1-1.2,2.4-4.1,2.4-6.5
	C79.4,61.8,79.4,61.3,79.4,60.9z"/>
<g>
	<path class="st0" d="M77.4,38.1c-0.4-0.1-0.8,0-1.1,0.3c-0.9,0.8-1.9,1.1-2.8,0.9c-1.8,1.4-3.4,3.1-4.7,5c-7.4-4.2-17.2-6-23.7,0.5
		c0.5-4.8,0.7-9.6,0.3-14.4c-0.1-1.3-0.2-2.7-0.2-4c0-0.6,0.1-1.3,0.3-1.9c0-0.1,0.1-0.1,0.1-0.2c0.2,0,0.3-0.1,0.5-0.1
		c0.9-0.3,1.6-1,1.9-1.9c0.1-0.4,0.1-1,0-1.4c-0.1-0.3-0.2-0.6-0.3-0.9c-0.1-0.2-0.1-0.3-0.2-0.4c-0.1-0.1,0.1-1.3-0.1-1.7
		c-0.3-0.5-0.9-0.9-1.5-1c-1.1-0.1-2.3,1.2-2.7,2.1c-0.3,0.7-0.3,1.5-0.4,2.3c-0.2,1.3-0.7,2.4-1,3.6c-0.3,1.1-0.2,2.3-0.1,3.5
		c0.2,4.1,0.2,8.2,0.1,12.3c-0.1,2.1-0.2,4.1-0.5,6.2c-0.2,1.5-0.9,3.4,1.4,3.7c1,0.1,2-0.3,2.8-1c1.8-1.5,3.2-3.3,5.4-4.3
		c1.9-0.9,3.9-1.2,6-1.1c4.3,0.2,8.4,2,11.9,4.3c1.3,0.8,2.5-0.2,2.7-1.4c0,0,0.1-0.1,0.1-0.1c1.5-2.3,3.5-4.3,5.8-5.8
		C78.4,40.4,78.2,38.9,77.4,38.1z"/>
	<path class="st0" d="M77,65.9c-0.3,0-0.6,0-0.8,0c-3.3,0-6.1-4.3-9.4-3.6c-2.3,0.5-4.4,1.4-6.7,1.8c-2.2,0.4-4.5,0.6-6.8,0.7
		c-2.3,0-4.7-0.2-7-0.4c-2.3-0.1-4.6-0.8-6.9-1.1c0.6,0.9,1.6,1.5,2.6,2.1c0.8,0.4,2.8,1.9,3.7,1.9c0.9-0.1,1.8,0.3,2.5,0.9
		c0.1,0,0.2,0.1,0.3,0.1c6.2,0.5,12.5-0.2,18.4-2.1c0.1,0.4,0.3,0.7,0.7,1c2.4,1.7,8.8,4.4,11,1.1c0.4-0.5,0.4-1.3,0-1.8
		C78.4,65.9,77.7,65.9,77,65.9z"/>
</g>
<g>
	<g>
		<path class="st2" d="M50.5,7.7c-6.1,0.4-11,4.2-13,10c-0.5,1.6,2,2.3,2.5,0.7c1.6-4.7,5.5-7.8,10.5-8.1
			C52.1,10.2,52.1,7.6,50.5,7.7L50.5,7.7z"/>
	</g>
</g>
<g>
	<g>
		<path class="st2" d="M47.9,59.4c-3.2,0.1-6-1.1-8.2-3.4c-1.1-1.2-2.9,0.6-1.8,1.8c2.6,2.8,6.2,4.3,10,4.2
			C49.6,61.9,49.6,59.3,47.9,59.4L47.9,59.4z"/>
	</g>
</g>
<g>
	<g>
		<path class="st3" d="M42.6,17.5c1.8,0.1,3.7,0.2,5.5,0.3c-0.1-0.5-0.1-1.1-0.2-1.6c-0.7,0.2-1.2,0.9-1.5,1.5
			c-0.6,1-0.4,1.9,0.3,2.8c0.8,1,1.8,1.8,2.7,2.6c0.8,0.8,1.8,1.7,3,1.6c1.3-0.1,2.5-1.4,3.5-2.2c1.1-0.8,2.4-1.6,3.4-2.6
			c1.7-1.8,1.2-4.3,0.2-6.3c-2-4.1-6.7-6.7-11.2-6.2c-2.6,0.3-4.8,1.6-6.8,3.1c-0.9,0.7-2.1,1.4-2.8,2.4c-0.9,1.2-0.9,2.8-1.2,4.2
			c-1.5,7.1-3.9,14-7,20.5c-0.5,1,1,1.8,1.4,0.8c2-4.2,3.7-8.5,5.1-13c0.7-2.3,1.3-4.5,1.8-6.8c0.3-1.1,0.5-2.2,0.7-3.4
			c0.3-1.3,0.9-1.9,2-2.7c3.3-2.6,7-4.5,11.2-3c1.7,0.6,3.3,1.8,4.4,3.2c1.1,1.5,2.5,4.1,1.2,5.8c-0.8,1-2,1.6-3,2.4
			c-0.9,0.7-2.5,2.5-3.7,1.8c-0.9-0.5-1.9-1.6-2.7-2.4c-0.4-0.4-1.2-1-1.1-1.6c0-0.2,0.5-0.9,0.6-0.9c0.9-0.3,0.7-1.6-0.2-1.6
			c-1.8-0.1-3.7-0.2-5.5-0.3C41.5,15.8,41.5,17.5,42.6,17.5L42.6,17.5z"/>
	</g>
</g>
<g>
	<g>
		<path class="st3" d="M49,21.3c-1.7,1.2-3.7,1.7-5.7,1.4c-0.4-0.1-0.9,0.1-1,0.6c-0.1,0.4,0.1,0.9,0.6,1c2.4,0.4,5-0.1,7-1.5
			c0.4-0.3,0.5-0.7,0.3-1.1C50,21.3,49.4,21.1,49,21.3L49,21.3z"/>
	</g>
</g>
<g>
	<g>
		<path class="st3" d="M44.3,23.7c0.5,8,1.1,16.2-0.5,24.1c-0.2,1,1.4,1.5,1.6,0.4c1.6-8.1,1.1-16.4,0.6-24.5
			C45.9,22.7,44.3,22.7,44.3,23.7L44.3,23.7z"/>
	</g>
</g>
<g>
	<g>
		<path class="st3" d="M46.8,43.9c3.7-2.2,8.9-2.4,13-1.6c4,0.7,7.8,2.6,10.2,6c0.6,0.9,2.1,0,1.4-0.8c-2.7-3.7-6.8-5.9-11.2-6.7
			c-4.6-0.8-10.2-0.6-14.3,1.8C45,43,45.9,44.5,46.8,43.9L46.8,43.9z"/>
	</g>
</g>
<g>
	<g>
		<path class="st3" d="M69,45.1c1.3-2.8,3.9-4.8,6.9-5.4c0.4-0.1,0.7-0.6,0.6-1c-0.1-0.5-0.6-0.7-1-0.6c-3.4,0.7-6.4,3-7.9,6.2
			c-0.2,0.4-0.1,0.9,0.3,1.1C68.2,45.6,68.8,45.5,69,45.1L69,45.1z"/>
	</g>
</g>
<g>
	<g>
		<path class="st3" d="M67,66.8c2.7,2.2,6.1,3.1,9.5,2.5c0.4-0.1,0.7-0.6,0.6-1c-0.1-0.5-0.6-0.7-1-0.6c-2.7,0.5-5.7-0.3-7.9-2.1
			c-0.3-0.3-0.8-0.3-1.2,0C66.7,65.9,66.6,66.5,67,66.8L67,66.8z"/>
	</g>
</g>
<g>
	<g>
		<path class="st3" d="M68.6,63.6c-6.5,4-14.4,4.6-21.7,2.5c-3.7-1.1-7.2-2.7-10.4-4.8c-1.6-1-3-2.1-4.5-3.2
			c-0.7-0.5-1.4-0.9-2.2-1.3c-0.8-0.4-1.8-0.6-2.4-1.3c-1.2-1.3-0.8-3.6-0.4-5.2c0.6-2.2,1.5-4.3,2.5-6.3c0.5-0.9-0.9-1.8-1.4-0.8
			c-1.6,3.1-3.6,7.2-3.1,10.8c0.2,1.7,1.1,3,2.7,3.7c0.9,0.4,1.7,0.7,2.5,1.2c1,0.6,1.8,1.3,2.7,2c6.7,4.9,14.9,8.4,23.4,8
			c4.6-0.2,9.1-1.5,13-3.9C70.3,64.5,69.5,63,68.6,63.6L68.6,63.6z"/>
	</g>
</g>
<g>
	<g>
		<path class="st3" d="M38.2,58.3c2.7,2.5,6.2,3.9,9.9,4.2c1.1,0.1,1.1-1.6,0-1.7c-3.2-0.2-6.3-1.5-8.7-3.7
			C38.6,56.4,37.4,57.5,38.2,58.3L38.2,58.3z"/>
	</g>
</g>
<g>
	<text transform="matrix(1 0 0 1 33.218 95.0981)" class="st5 st6 st7">健康</text>
</g>
</svg>
