<?xml version="1.0" encoding="UTF-8"?><svg id="_層_1" xmlns="http://www.w3.org/2000/svg" viewBox="0 0 103.35 100.72"><defs><style>.cls-1{fill:#f7edd0;}.cls-2{fill:#d37460;}.cls-3{fill:#354253;}.cls-4{fill:#354152;}.cls-5{fill:#70888a;}</style></defs><path class="cls-2" d="M87.58,41.96c.09-2.44-.09-4.88-.55-7.29-2.47-13.02-13-24.13-25.84-27.39-10.24-2.6-21.51-.14-30,6.07-9.37,6.86-13.18,19.31-12.03,30.61,.1,.95,.23,1.9,.4,2.85,1.75,9.58,7.52,18.41,15.76,23.59,11.22,7.06,26.63,6.65,37.52-.91,8.87-6.16,14.34-16.77,14.72-27.53Zm-11.83,18.18c-3.41-3.28-6.61-6.77-9.58-10.46-1.04-1.3-3.26-1.09-4.35,0-1.28,1.28-1.2,3.19,0,4.35,3.29,3.2,7,6.08,10.38,9.33-.64,.51-2.18,2.03-2.84,2.49-1.72,1.2-3.53,2.25-5.42,3.14-.5-.35-1.17-.47-1.95-.2-11.79,4.09-25.03-.26-32.28-10.39-7.29-10.18-7.7-24.08-1.4-34.87,.37-.64,.77-1.26,1.19-1.87,2.87,3.15,6.06,5.95,9.51,8.48,1.34,.98,3.43,.23,4.21-1.1,.91-1.56-6.97-8.56-9.55-11.43,.21-.19,7.67-4.13,11.22-5.63,.22,0,.45,0,.68-.04,8.85-1.2,18.41,.7,25.63,6.1,6.52,4.88,10.86,12.71,10.91,20.9,0,.7,.23,1.27,.58,1.69-.18,.37-.27,.81-.24,1.33,.15,2.47-.15,4.91-1.16,7.19-.19,.42-.29,.86-.32,1.29-.04,.11-.08,.22-.11,.34-.91,3.45-2.76,6.61-5.11,9.34Z"/><path class="cls-5" d="M72.14,38.11c.39-2.55,1.83-7.94-.7-9.65-3.35-2.27-6.83-4.93-11.06-5.06-3.04-.09-8.21,2.19-10.36,4.36s-1.1,4.26-.16,7.15c-.47-1.43-4.99-2.58-6.12-2.49-2.59,.19-7.85,2.69-9.91,4.29-.65,.51-1.11,.86-1.26,1.64-.17,.91-.05,1.99-.03,2.91,.03,1.88,.15,3.75,.37,5.62,.08,.67,.16,1.36,.11,2.04s-.64,1.45-.6,2.02c.07,1.06,1.96,2.63,2.71,3.26,2.2,1.84,5.04,2.91,7.91,2.95,2.3,.03,4.52-.61,6.54-1.67,.89-.47,1.84-.79,2.76-1.23,.33-.16,3.06-1.24,3.06-1.48,0-.95-.07-1.8,.1-2.74,.12-.69-.04-1.69,.64-2.18,.48-.35,1.15-.37,1.71-.18,.61,.21,.99,.79,1.54,1,.52,.2,1.35,.09,1.9,.06,1.33-.06,2.65-.36,3.9-.85,2.4-.95,5.55-2.03,6.95-4.21,.93-1.45-.26-3.85,0-5.55Z"/><path class="cls-1" d="M35.65,38.99c2.37,1.7,5.14,3.5,8.19,2.99s7.54-2.5,9.67-4.51c.35-.33,.4-.9,.17-1.3-2.15-3.86-8.68-4.76-12.5-3.66-2.38,.69-9.36,3.07-5.76,6.31,1.03,.92,2.55-.59,1.52-1.52-.82-.74,5.79-2.94,6.41-3.01,2.52-.27,7.06,.44,8.46,2.97l.17-1.3c-1.65,1.55-6.24,3.53-8.32,3.81-2.68,.37-4.85-1.13-6.94-2.63-1.13-.81-2.2,1.06-1.09,1.86Z"/><path class="cls-1" d="M40.94,41.98c.96,.57,1.18,1.35,1.27,2.4,.07,.85,.59,1.65,1.54,1.59,.85-.06,1.35-.81,1.37-1.61,.02-.58-.05-.96,.49-1.35,.5-.37,1.21-.47,1.8-.6,1.35-.3,.78-2.38-.57-2.08-1.09,.24-2.22,.56-3.02,1.39-.31,.32-.56,.72-.71,1.14-.08,.23-.14,.47-.16,.71v.31c-.05,.45,.08,.45,.37,0l.83,.11c.29,.16,.17,.17,.2-.15,.02-.17-.04-.42-.08-.6-.09-.45-.25-.89-.46-1.29-.41-.77-1.04-1.37-1.79-1.82-1.19-.71-2.28,1.15-1.09,1.86h0Z"/><path class="cls-1" d="M63.14,32.22c2.36-1.01,5.64-1.79,7.56-3.51,.27-.24,.39-.7,.28-1.05-.76-2.28-5.12-3.63-7.22-4.26-2.76-.83-5.79-.9-8.24,.78-1.23,.84-4.63,2.42-4.2,4.49,.87,4.12,9.06,1,8.25,6.89-.19,1.36,1.89,1.94,2.08,.57,.25-1.82,.35-3.57-1.09-4.91-1.25-1.17-6.68-2.14-5.91-3.64,.24-.47,2.35-1.69,2.72-1.88,2.04-1.07,4.26-.77,6.4-.04,.66,.22,4.09,1.52,4.06,2.22-.01,.38-5.26,2.26-5.78,2.48-1.27,.54-.17,2.4,1.09,1.86h0Z"/><path class="cls-1" d="M61.95,36.29c-.08-1.12,.49-2.23,1.59-2.62,1.29-.46,.74-2.55-.57-2.08-1.96,.7-3.33,2.58-3.17,4.7,.1,1.37,2.26,1.38,2.15,0h0Z"/><path class="cls-1" d="M61.78,35.27c.09-1.64-1.09-2.68-2.32-3.54l-.83,1.97c1.83,.43,3.94,.67,5.3-.92,.9-1.05-.62-2.58-1.52-1.52-.82,.96-2.13,.62-3.21,.37-1.22-.28-1.82,1.28-.83,1.97,.61,.42,1.3,.86,1.26,1.68-.07,1.38,2.08,1.38,2.15,0h0Z"/><path class="cls-1" d="M53.06,27.73c-1.37-.39-2.73,.25-3.52,1.4-.96,1.38-.73,3.12-.5,4.69,.2,1.37,2.28,.79,2.08-.57-.13-.88-.42-3.95,1.37-3.44,1.33,.38,1.9-1.7,.57-2.08h0Z"/><path class="cls-1" d="M35.67,37.27c-1.39-.3-2.93-.15-3.34,1.46-.21,.83-.15,1.79-.19,2.64l-.17,3.32c-.07,1.38,2.08,1.38,2.15,0l.16-3.08,.07-1.42c.03-.61,0-1,.74-.84,1.35,.3,1.93-1.78,.57-2.08h0Z"/><path class="cls-1" d="M64,33.09l.14-.27c.08-.12,.12-.26,.13-.4,.03-.14,.03-.29-.02-.43-.03-.14-.1-.26-.19-.37-.08-.12-.18-.21-.3-.28l-.26-.11c-.19-.05-.38-.05-.57,0l-.26,.11c-.16,.1-.29,.22-.39,.39l-.14,.27c-.08,.12-.12,.26-.13,.4-.03,.14-.03,.29,.02,.43,.03,.14,.1,.26,.19,.37,.08,.12,.18,.21,.3,.28l.26,.11c.19,.05,.38,.05,.57,0l.26-.11c.16-.1,.29-.22,.39-.39h0Z"/><path class="cls-1" d="M69.62,30.82s.3-.07,.21-.06c.02,0,.19,.01,.09,0,.02,0,.26,.09,.22,.06,.09,.05,.08,.05,.13,.1,.13,.13,.17,.42,.13,.51-.23,.53-.16,1.16,.39,1.47,.46,.27,1.24,.15,1.47-.39,.45-1.03,.38-2.16-.38-3.03-.69-.78-1.85-1.06-2.83-.74-.55,.18-.91,.74-.75,1.32,.15,.54,.77,.93,1.32,.75h0Z"/><path class="cls-3" d="M46.97,7.13c6.85-.83,14.37-.12,20.67,2.79,5.75,2.66,10.6,6.98,13.96,12.35s5.32,12.12,5.57,18.7c.29,7.68-2.27,14.96-7.05,20.97s-11.56,10.51-19.2,12.17c-7.29,1.59-15.15,.54-21.94-2.49-6.4-2.86-11.94-7.57-15.43-13.69-3.02-5.3-4.36-11.45-4.22-17.52s1.77-12.24,4.86-17.53c3.37-5.76,8.24-9.74,14.13-12.75,1.95-1,3.97-1.86,6.05-2.56,.73-.25,.42-1.41-.32-1.16-6.96,2.35-13.7,6.2-18.29,12.04-3.91,4.98-6.34,11.04-7.24,17.29s-.3,12.86,2.07,18.79c2.6,6.5,7.3,11.96,13.21,15.69,6.31,3.98,13.97,6.08,21.43,5.81,8-.29,15.7-3.48,21.63-8.86,5.75-5.22,10.05-12.35,11.21-20.09,1.03-6.88-.2-14.29-2.95-20.64s-6.92-11.38-12.44-15.06c-5.95-3.97-12.79-5.52-19.87-5.69-1.95-.05-3.91,.02-5.85,.25-.76,.09-.77,1.29,0,1.2h0Z"/><path class="cls-3" d="M39.35,29.35c-2.86-2.84-5.73-5.68-8.63-8.48-.34-.33-.82-.22-1.07,.14-8.62,12.06-10.68,28.58-.03,40.34,11.19,12.37,30.49,12.54,43.07,2.47,.28-.23,.25-.73,0-.96-3.68-3.48-7.36-6.97-10.94-10.56-.62-.62-1.58,.34-.96,.96,2.49,2.51,5.05,4.96,7.6,7.4,.51,.49,2.69,1.93,2.81,2.67,.17,1.02-.69,.75-1.96,1.41-.96,.5-1.84,1.19-2.8,1.7-9.78,5.2-22.31,4.23-31.38-2.11-9.74-6.81-13.5-19.7-10.4-30.99,.85-3.09,2.78-8.08,5.27-10.34,1.5-1.36,.77-.6,2.3,1.26,1.8,2.19,4.14,4.08,6.15,6.07,.62,.62,1.59-.34,.96-.96h0Z"/><path class="cls-3" d="M47.59,11.8c15.09-1.49,29.25,5.75,33.34,21.03,1.98,7.42,1.32,15.09-2.45,21.82-.28,.49-2.63,4.82-3.22,4.72,.48,.07-2.92-3.77-2.84-3.69-1.62-1.65-3.24-3.3-4.87-4.94-.62-.62-1.58,.34-.96,.96,2.88,2.89,5.72,5.82,8.62,8.7,.25,.25,.72,.28,.96,0,7.8-8.91,9.17-21.65,4.54-32.39-5.73-13.29-19.25-18.96-33.12-17.59-.87,.09-.87,1.45,0,1.36h0Z"/><path class="cls-3" d="M44.25,27.25c-3.31-3.26-6.65-6.5-9.97-9.77l-.14,1.07c3.35-2.58,7.16-4.78,11.21-5.99,.84-.25,.48-1.57-.36-1.31-4.17,1.25-8.09,3.48-11.53,6.13-.34,.26-.48,.73-.14,1.07,3.31,3.26,6.65,6.5,9.97,9.77,.63,.62,1.59-.35,.96-.96h0Z"/><path class="cls-3" d="M32.56,37.76c3.94,2.1,9.04,5.9,13.67,4.37,3.07-1.02,6.34-2.52,9.1-4.19,.37-.23,.53-.85,.15-1.16-2.37-1.95-5.88-3.13-8.71-4.32-4.7-1.97-10.02,2.12-14.2,4.02-.86,.39-.11,1.67,.75,1.28,4.87-2.22,8.99-5.02,14.67-3.08,2.05,.7,4.77,1.76,6.45,3.14l.15-1.16c-2.39,1.44-5.08,2.53-7.66,3.59-4.64,1.9-9.49-1.57-13.61-3.77-.84-.45-1.59,.83-.75,1.28Z"/><path class="cls-3" d="M60.99,32.28c-3.75-.67-7.8-3.27-11.14-5.05v1.31c4.99-2.28,9.2-5.14,15.02-3.15,2.1,.72,4.88,1.8,6.61,3.22l.15-1.19c-3.13,1.9-7.43,4.25-11.04,4.86-.96,.16-.55,1.62,.4,1.46,3.74-.63,8.2-3.07,11.4-5.02,.38-.23,.54-.87,.15-1.19-2.43-1.99-6.02-3.21-8.92-4.42-4.82-2.02-10.26,2.17-14.54,4.12-.52,.24-.47,1.06,0,1.31,3.43,1.83,7.61,4.51,11.5,5.2,.95,.17,1.36-1.29,.4-1.46Z"/><path class="cls-3" d="M61.56,48.36c.09-5.07-.01-10.13,0-15.2,0-.97-1.51-.98-1.51,0,0,5.07,.1,10.13,0,15.2-.02,.97,1.5,.97,1.51,0h0Z"/><path class="cls-3" d="M31.86,37.37c-.1,2.73-.17,5.45-.22,8.18-.03,1.64-.69,4.93-.09,6.39,.44,1.09,1.4,1.57,2.41,2.17,2.66,1.57,7.52,4.58,10.73,4.23,1.92-.21,4.38-1.76,6.11-2.54,1.34-.61,4.13-1.37,5.04-2.64s.52-3.52,.51-4.89c-.04-3.53-.3-7.06-.41-10.6-.03-.95-1.51-.95-1.48,0,.07,2.43,.21,4.86,.31,7.29,.07,1.73,.79,5.48-.04,7.03-.99,1.86-7.77,4.32-9.73,4.67-2.77,.5-5.93-1.6-8.44-2.86-2.84-1.42-3.51-1.69-3.49-5.11,.02-3.78,.14-7.55,.27-11.33,.03-.95-1.44-.95-1.48,0h0Z"/><path class="cls-3" d="M42.97,42.11c.3,4.93,.34,9.85,.11,14.79-.04,.95,1.44,.95,1.48,0,.22-4.93,.19-9.86-.11-14.79-.06-.95-1.54-.95-1.48,0h0Z"/><path class="cls-3" d="M71.3,28.11c.06,2.44,.15,4.88,.22,7.33,.05,1.98,.74,5.39,.03,7.26-.8,2.1-4.75,3.23-6.66,4-3.3,1.32-4.94,1.47-8.3-.24-.85-.43-1.59,.84-.75,1.28,3,1.53,4.32,2.25,7.42,1.17,2.62-.92,6.92-2.1,8.85-4.16,1.29-1.36,.98-3.05,.97-4.93,0-3.9-.19-7.8-.3-11.7-.02-.95-1.5-.95-1.48,0h0Z"/><path class="cls-3" d="M48.53,27.99c-.13,2-.02,4.01,.02,6.01,.02,.95,1.5,.95,1.48,0-.05-2-.15-4.01-.02-6.01,.06-.95-1.42-.95-1.48,0h0Z"/><path class="cls-3" d="M34.93,50v.11c0,.1,.02,.2,.06,.28,.03,.09,.08,.17,.15,.24,.07,.07,.15,.12,.24,.15,.09,.05,.18,.07,.28,.06l.2-.03c.13-.04,.23-.1,.33-.19l.12-.15c.07-.12,.1-.24,.1-.37v-.11c0-.1-.02-.2-.06-.28-.03-.09-.08-.17-.15-.24-.07-.07-.15-.12-.24-.15-.09-.05-.18-.07-.28-.06l-.2,.03c-.13,.04-.23,.1-.33,.19l-.12,.15c-.07,.12-.1,.24-.1,.37h0Z"/><path class="cls-3" d="M39.71,49.96c.95,0,.95-1.48,0-1.48s-.95,1.48,0,1.48h0Z"/><path class="cls-3" d="M37.69,46.6c.95,0,.95-1.48,0-1.48s-.95,1.48,0,1.48h0Z"/><path class="cls-3" d="M41.5,54.11c.95,0,.95-1.48,0-1.48s-.95,1.48,0,1.48h0Z"/><path class="cls-3" d="M46.77,53.77c.95,0,.95-1.48,0-1.48s-.95,1.48,0,1.48h0Z"/><path class="cls-3" d="M52.38,51.3c.95,0,.95-1.48,0-1.48s-.95,1.48,0,1.48h0Z"/><path class="cls-3" d="M48.56,48.95c.95,0,.95-1.48,0-1.48s-.95,1.48,0,1.48h0Z"/><path class="cls-3" d="M52.6,46.37c.95,0,.95-1.48,0-1.48s-.95,1.48,0,1.48h0Z"/><path class="cls-3" d="M44.24,45.18v.11c0,.1,.02,.2,.06,.28,.03,.09,.08,.17,.15,.24,.07,.07,.15,.12,.24,.15,.09,.05,.18,.07,.28,.06l.2-.03c.13-.04,.23-.1,.33-.19l.12-.15c.07-.12,.1-.24,.1-.37v-.11c0-.1-.02-.2-.06-.28-.03-.09-.08-.17-.15-.24-.07-.07-.15-.12-.24-.15-.09-.05-.18-.07-.28-.06l-.2,.03c-.13,.04-.23,.1-.33,.19l-.12,.15c-.07,.12-.1,.24-.1,.37h0Z"/><path class="cls-3" d="M61.79,46.82c.95,0,.95-1.48,0-1.48s-.95,1.48,0,1.48h0Z"/><path class="cls-3" d="M57.13,42.94v.11c0,.1,.02,.2,.06,.28,.03,.09,.08,.17,.15,.24,.07,.07,.15,.12,.24,.15,.09,.05,.18,.07,.28,.06l.2-.03c.13-.04,.23-.1,.33-.19l.12-.15c.07-.12,.1-.24,.1-.37v-.11c0-.1-.02-.2-.06-.28-.03-.09-.08-.17-.15-.24-.07-.07-.15-.12-.24-.15-.09-.05-.18-.07-.28-.06l-.2,.03c-.13,.04-.23,.1-.33,.19l-.12,.15c-.07,.12-.1,.24-.1,.37h0Z"/><path class="cls-3" d="M60.96,41.04v-.11c0-.1-.02-.2-.06-.28-.03-.09-.08-.17-.15-.24-.07-.07-.15-.12-.24-.15-.09-.05-.18-.07-.28-.06l-.2,.03c-.13,.04-.23,.1-.33,.19l-.12,.15c-.07,.12-.1,.24-.1,.37v.11c0,.1,.02,.2,.06,.28,.03,.09,.08,.17,.15,.24,.07,.07,.15,.12,.24,.15,.09,.05,.18,.07,.28,.06l.2-.03c.13-.04,.23-.1,.33-.19l.12-.15c.07-.12,.1-.24,.1-.37h0Z"/><path class="cls-3" d="M70.98,42.79c.95,0,.95-1.48,0-1.48s-.95,1.48,0,1.48h0Z"/><path class="cls-3" d="M69.49,38.65l.11-.11c.07-.07,.12-.15,.15-.24,.05-.09,.07-.18,.06-.28,0-.1-.02-.2-.06-.28-.03-.09-.08-.17-.15-.24l-.15-.12c-.12-.07-.24-.1-.37-.1l-.2,.03c-.13,.04-.23,.1-.33,.19l-.11,.11c-.07,.07-.12,.15-.15,.24-.05,.09-.07,.18-.06,.28,0,.1,.02,.2,.06,.28,.03,.09,.08,.17,.15,.24l.15,.12c.12,.07,.24,.1,.37,.1l.2-.03c.13-.04,.23-.1,.33-.19h0Z"/><path class="cls-3" d="M66.1,42.83v.11c0,.1,.02,.2,.06,.28,.03,.09,.08,.17,.15,.24,.07,.07,.15,.12,.24,.15,.09,.05,.18,.07,.28,.06l.2-.03c.13-.04,.23-.1,.33-.19l.12-.15c.07-.12,.1-.24,.1-.37v-.11c0-.1-.02-.2-.06-.28-.03-.09-.08-.17-.15-.24-.07-.07-.15-.12-.24-.15-.09-.05-.18-.07-.28-.06l-.2,.03c-.13,.04-.23,.1-.33,.19l-.12,.15c-.07,.12-.1,.24-.1,.37h0Z"/><path class="cls-3" d="M64.26,39.65c.95,0,.95-1.48,0-1.48s-.95,1.48,0,1.48h0Z"/><path class="cls-3" d="M63.47,43.91c.95,0,.95-1.48,0-1.48s-.95,1.48,0,1.48h0Z"/><path class="cls-3" d="M51.7,33.93c.95,0,.95-1.48,0-1.48s-.95,1.48,0,1.48h0Z"/><path class="cls-3" d="M56.79,37.67v.11c0,.1,.02,.2,.06,.28,.03,.09,.08,.17,.15,.24,.07,.07,.15,.12,.24,.15,.09,.05,.18,.07,.28,.06l.2-.03c.13-.04,.23-.1,.33-.19l.12-.15c.07-.12,.1-.24,.1-.37v-.11c0-.1-.02-.2-.06-.28-.03-.09-.08-.17-.15-.24-.07-.07-.15-.12-.24-.15-.09-.05-.18-.07-.28-.06l-.2,.03c-.13,.04-.23,.1-.33,.19l-.12,.15c-.07,.12-.1,.24-.1,.37h0Z"/><path class="cls-3" d="M69.41,33.59c.95,0,.95-1.48,0-1.48s-.95,1.48,0,1.48h0Z"/><path class="cls-3" d="M66.79,35.43v-.11c0-.1-.02-.2-.06-.28-.03-.09-.08-.17-.15-.24-.07-.07-.15-.12-.24-.15-.09-.05-.18-.07-.28-.06l-.2,.03c-.13,.04-.23,.1-.33,.19l-.12,.15c-.07,.12-.1,.24-.1,.37v.11c0,.1,.02,.2,.06,.28,.03,.09,.08,.17,.15,.24,.07,.07,.15,.12,.24,.15,.09,.05,.18,.07,.28,.06l.2-.03c.13-.04,.23-.1,.33-.19l.12-.15c.07-.12,.1-.24,.1-.37h0Z"/><path class="cls-3" d="M35.56,42.67c.95,0,.95-1.48,0-1.48s-.95,1.48,0,1.48h0Z"/><path class="cls-3" d="M35.34,47.83c.95,0,.95-1.48,0-1.48s-.95,1.48,0,1.48h0Z"/><g><path class="cls-4" d="M33.78,86.49h.19c2.08,.1,3.12,.72,3.12,1.86-.08,.57-.21,.86-.39,.86l-.49,.02c-.08,0-.76-.79-2.04-2.38-.26,.01-.39-.08-.39-.27v-.09Zm4.77,2h.09c-.67,2.06-1.64,4.33-2.91,6.79h-.1c-.65-.29-.97-1.06-.97-2.32,.65-.57,1.95-2.06,3.9-4.47Zm-3.21-4.79h.09c1.88,.1,2.82,.66,2.82,1.68v.57c-.06,.18-.26,.28-.58,.3l-2.52-2.45,.2-.1Zm9.82-1.86c.65,.28,.97,.49,.97,.62-.07,.45-.1,.7-.1,.76,.1,.69,.19,1.03,.3,1.03,1.23-.35,2.01-.54,2.34-.55,.58,.15,.87,.3,.87,.44v.18c-.08,.51-.28,.77-.58,.78-.58-.11-1-.16-1.26-.14l-1.27,.04c.07,.37,.43,1.74,1.08,4.11,.22,0,.38-.64,.48-1.91-.13,0-.2-.05-.2-.17l.1-.2c1.16,.4,1.74,.91,1.74,1.54v.28c-.02,.53-.47,1.3-1.35,2.32,.65,1.73,1.23,2.59,1.74,2.57,.15,0,.44-.21,.88-.61h.09c0,.12,.03,.81,.1,2.07-.17,.41-.33,.64-.49,.68l-.68,.02c-.75,.03-1.59-.76-2.53-2.36-.28-.74-.48-1.11-.58-1.11-.12,.13-.51,.43-1.17,.89h-.09v-.09l1.07-1.55c-.39-1.03-.97-3.08-1.74-6.15-.91,.16-2.24,.5-3.99,.99v1.6c1.94-.49,2.91-.9,2.91-1.23h.1c.65,.24,1.07,.48,1.26,.7v.38c0,.13-.06,.2-.19,.2h-.09c-.65,.03-.97-.02-.97-.14-1.15,.27-1.86,.55-2.14,.83-.39-.24-.68-.36-.87-.35v1.69c0,2.83-.75,4.27-2.25,4.33l-.58-1.11c.72-.03,1.08-1.42,1.08-4.18v-3.12l-.1-.93,.39-.21c.99,.29,1.51,.56,1.56,.79,1.85-.44,3.08-.77,3.7-.97,0-.23-.16-.82-.49-1.77l.97-.97Zm-.97,6.72c.3,.07,.72,.37,1.26,.89-.19,.96-.29,1.88-.29,2.75v.94c0,.11-.22,.3-.68,.58-.16,0-.52-.23-1.08-.71-.24,0-.56,.21-.97,.6h-.2c-.27,.02-.59-.13-.96-.43,.13-.5,.19-1.1,.19-1.79v-1.51s-.13-.19-.39-.45v-.2c1.08,.09,1.79,.13,2.13,.11,.1,0,.43-.26,.97-.79Zm-1.56,1.57v.09c0,.59,.06,1.41,.19,2.44,.59-.02,.88-.19,.88-.5-.07-1.33-.1-2.12-.1-2.35h-.09c-.59,.05-.88,.16-.88,.32Zm4.09-8.91c1.11-.04,1.79,.4,2.04,1.33,0,.44-.29,.68-.87,.7-.15,0-.61-.39-1.36-1.18-.39-.23-.68-.34-.88-.34v-.29c.68-.15,1.04-.23,1.08-.23Z"/><path class="cls-4" d="M55.61,82.42h.18c1.05,.18,1.57,.47,1.57,.87-.06,.79-.09,1.23-.09,1.32,.22-.01,.49-.5,.82-1.45-.06,0-.09-.03-.09-.09l.19-.1c.21,0,.51,.3,.92,.91v.37c0,.22-.25,.48-.74,.78v.09h.19c4.76-1.01,7.46-1.62,8.09-1.82,0-.1,.12-.23,.37-.39,.79,.3,1.19,.51,1.19,.62v.09c-.29,.45-.5,.67-.65,.68-.31-.18-.55-.26-.73-.25h-.37c-1.4,.06-3.42,.42-6.07,1.09v.09c.55,.12,.83,.55,.83,1.28v.19h.09c1.29-.19,1.93-.38,1.93-.55v-1.04c0-.09,.09-.19,.28-.29,.85,.09,1.28,.32,1.28,.7-.05,.12-.08,.22-.08,.29h.08c.49-.1,1.01-.33,1.57-.72,.43,.17,.86,.44,1.28,.8-.18,.42-.28,.86-.28,1.32,.23,0,.54-.17,.92-.5,.61,.19,1.1,.49,1.47,.88l-.28,.38c-.46-.1-.88-.15-1.28-.13l-.92,.03v2.07c0,.12-.06,.19-.18,.19-.33,.01-.92-.06-1.74-.21l-.64,.02c0,.12-.18,.63-.55,1.53h.09c.78-.13,1.42-.44,1.93-.92,.51,.08,1,.34,1.47,.79-.18,1-.37,2.26-.55,3.77l-.45,.3h-.09c-.33,.02-.73-.22-1.2-.7-1.02,.16-2.03,.45-3.02,.86h-.09c-.34,.02-.62-.15-.83-.52,.19-.8,.28-1.62,.28-2.45,0-.28-.15-.62-.46-1.01l.18-.1c1.35,.08,2.05,.11,2.11,.1v-.09c-.12-.43-.19-.8-.19-1.12v-.09c-.22,0-.65,.15-1.28,.42-.53-.16-.9-.24-1.11-.24,0,1.36-.8,3.18-2.39,5.45v-.2c.86-2.8,1.29-4.85,1.29-6.15l-1.66,.63-.91-1.36v2.72c0,2-.31,3.02-.92,3.05h-.18c-.44,.02-.75-.47-.91-1.47,.36-.01,.54-.24,.54-.68v-3.19h-.09c0,.88-1.19,2.14-3.58,3.8h-.09v-.09c1.52-1.94,2.5-3.7,2.94-5.28h-.09c-.27,.01-.61,.22-1.01,.6-.79-.14-1.19-.28-1.19-.42,1.26-.3,2.06-.52,2.39-.66,0-.25,.09-.38,.28-.39v-.09c-1.17-.21-1.75-.78-1.75-1.71v-.66c0-.16,.12-.26,.37-.3,.27-.01,.55,.45,.83,1.38h.09c.03-.25,.12-.38,.28-.39,.06,.94,.27,1.4,.64,1.38v-3.57l-.18-.28v-.18Zm-.27,4.61v.09l.45-.02v-.28h-.28c-.12,.03-.17,.1-.17,.21Zm.27,.45c.06,.11,.09,.24,.09,.38h.09v-.38h-.18Zm2.39-2.15s-.24,.28-.73,.69v.47l.09,.18c.35-.14,.68-.34,1-.6,.86,.24,1.29,.44,1.29,.6v.19c0,.12-.06,.19-.19,.2-1.07-.03-1.75-.03-2.02-.02v.09c1.11,1.1,1.88,1.76,2.3,1.98h.09c0-.16,.03-.63,.09-1.42-.06-1.13-.09-1.85-.09-2.15-.12-.06-.21-.09-.28-.09-.07,0-.16,.04-.28,.11-.68-.16-1.12-.24-1.29-.24Zm5.7-4.35h.09c.79,.43,1.19,.92,1.19,1.46v.09c0,.53-1.32,.95-3.95,1.27v-.18c1.39-.54,2.31-1.26,2.76-2.17l-.09-.46Zm-2.02,7.86c-.21-.12-.39-.17-.55-.16,0,.33-.03,.86-.09,1.6h.09c.4-.01,1.14-.17,2.2-.46v-1.31l-1.65,.34Zm-.46-2.04v1.59h.09c1.35-.05,2.02-.24,2.02-.54,0-.1-.03-.48-.09-1.13l-1.1,.42-.92-.34Zm1.65,5.38v.18c.04,1.5,.13,2.25,.28,2.25,.63-.03,1.46-.18,2.48-.47v-2.44l-2.76,.48Zm1.85-5.8v1.42l.91-.13v-1.31l-.91,.03Zm0,1.88v1.13c.45-.14,.75-.22,.91-.23v-1.03h-.28l-.64,.12Z"/></g></svg>