<?xml version="1.0" encoding="UTF-8"?><svg id="_層_1" xmlns="http://www.w3.org/2000/svg" viewBox="0 0 103.35 100.72"><defs><style>.cls-1{fill:#f7edd0;}.cls-2{fill:#d37460;}.cls-3{fill:#354253;}.cls-4{fill:#354152;}.cls-5{fill:#70888a;}</style></defs><path class="cls-5" d="M63.33,35.33c-.77-2.17-1.92-4.2-3.1-6.19-.83-1.41-2.17-3.02-3.74-2.57-.88,.25-1.45,1.09-1.89,1.9-1.52,2.79-2.43,5.92-2.63,9.09-1.47-1.56-1.84-3.83-2.19-5.95s-.85-4.4-2.46-5.81c-5.19-4.53-11.52,9.91-12.62,13.47-1.43,4.65-1.03,10.17,2.27,13.74,2.56,2.78,6.69,4,10.35,3.05s6.68-4.02,7.56-7.69c2.73,1.14,6.07-.22,7.76-2.65s1.91-5.64,1.24-8.52c-.15-.63-.33-1.25-.55-1.86Z"/><path class="cls-2" d="M84.22,41.58c.09-2.44-.09-4.88-.55-7.29-2.47-13.02-13-24.13-25.84-27.39-10.24-2.6-21.51-.14-30,6.07-9.37,6.86-13.18,19.31-12.03,30.61,.1,.95,.23,1.9,.4,2.85,1.75,9.58,7.52,18.41,15.76,23.59,11.22,7.06,26.63,6.65,37.52-.91,8.87-6.16,14.34-16.77,14.72-27.53Zm-11.83,18.18c-3.41-3.28-6.61-6.77-9.58-10.46-1.04-1.3-3.26-1.09-4.35,0-1.28,1.28-1.04,3.05,0,4.35,2.94,3.66,6.49,6.1,9.87,9.35-.64,.51-1.66,2.01-2.32,2.47-1.72,1.2-3.53,2.25-5.42,3.14-.5-.35-1.17-.47-1.95-.2-11.79,4.09-25.03-.26-32.28-10.39-7.29-10.18-7.7-24.08-1.4-34.87,.37-.64,.77-1.26,1.19-1.87,2.87,3.15,6.06,5.95,9.51,8.48,1.34,.98,3.43,.23,4.21-1.1,.91-1.56-6.94-8.27-9.52-11.14,.21-.19,7.64-4.42,11.19-5.92,.22,0,.45,0,.68-.04,8.85-1.2,18.41,.7,25.63,6.1,6.52,4.88,10.86,12.71,10.91,20.9,0,.7,.23,1.27,.58,1.69-.18,.37-.27,.81-.24,1.33,.15,2.47-.15,4.91-1.16,7.19-.19,.42-.29,.86-.32,1.29-.04,.11-.08,.22-.11,.34-.91,3.45-2.76,6.61-5.11,9.34Z"/><path class="cls-1" d="M44.14,24.59c-4.45,8.83-12.52,17.09-9.4,27.72,.39,1.33,2.47,.76,2.08-.57-2.91-9.92,5.06-17.87,9.19-26.06,.62-1.23-1.23-2.33-1.86-1.09h0Z"/><path class="cls-1" d="M56.71,26.25c-2.99,3.6-5.95,7.95-3.54,12.67,.63,1.23,2.49,.15,1.86-1.09-1.9-3.71,.92-7.31,3.21-10.06,.88-1.06-.64-2.59-1.52-1.52h0Z"/><path class="cls-3" d="M43.61,6.9c6.85-.83,14.37-.12,20.67,2.79,5.75,2.66,10.6,6.98,13.96,12.35s5.32,12.12,5.57,18.7c.29,7.68-2.27,14.96-7.05,20.97-4.85,6.09-11.56,10.51-19.2,12.17s-15.15,.54-21.94-2.49c-6.4-2.86-11.94-7.57-15.43-13.69-3.02-5.3-4.36-11.45-4.22-17.52s1.77-12.24,4.86-17.53c3.37-5.76,8.24-9.74,14.13-12.75,1.95-1,3.97-1.86,6.05-2.56,.73-.25,.42-1.41-.32-1.16-6.96,2.35-13.7,6.2-18.29,12.04-3.91,4.98-6.34,11.04-7.24,17.29s-.3,12.86,2.07,18.79c2.6,6.5,7.3,11.96,13.21,15.69,6.31,3.98,13.97,6.08,21.43,5.81,8-.29,15.7-3.48,21.63-8.86,5.75-5.22,10.05-12.35,11.21-20.09,1.03-6.88-.2-14.29-2.95-20.64s-6.92-11.38-12.44-15.06c-5.95-3.97-12.79-5.52-19.87-5.69-1.95-.05-3.91,.02-5.85,.25-.76,.09-.77,1.29,0,1.2h0Z"/><path class="cls-3" d="M35.99,29.13c-2.86-2.84-5.73-5.68-8.63-8.48-.34-.33-.82-.22-1.07,.14-8.62,12.06-10.68,28.58-.03,40.34,11.19,12.37,30.49,12.54,43.07,2.47,.28-.23,.25-.73,0-.96-3.68-3.48-7.36-6.97-10.94-10.56-.62-.62-1.58,.34-.96,.96,2.49,2.51,5.05,4.96,7.6,7.4,.51,.49,2.69,1.93,2.81,2.67,.17,1.02-.69,.75-1.96,1.41-.96,.5-1.84,1.19-2.8,1.7-9.78,5.2-22.31,4.23-31.38-2.11-9.74-6.81-13.5-19.7-10.4-30.99,.85-3.09,2.78-8.08,5.27-10.34,1.5-1.36,.77-.6,2.3,1.26,1.8,2.19,4.14,4.08,6.15,6.07,.62,.62,1.59-.34,.96-.96h0Z"/><path class="cls-3" d="M44.22,11.57c15.09-1.49,29.25,5.75,33.34,21.03,1.98,7.42,1.32,15.09-2.45,21.82-.28,.49-2.63,4.82-3.22,4.72,.48,.07-2.92-3.77-2.84-3.69-1.62-1.65-3.24-3.3-4.87-4.94-.62-.62-1.58,.34-.96,.96,2.88,2.89,5.72,5.82,8.62,8.7,.25,.25,.72,.28,.96,0,7.8-8.91,9.17-21.65,4.54-32.39-5.73-13.29-19.25-18.96-33.12-17.59-.87,.09-.87,1.45,0,1.36h0Z"/><path class="cls-3" d="M40.88,27.03c-3.31-3.26-6.65-6.5-9.97-9.77l-.14,1.07c3.35-2.58,7.16-4.78,11.21-5.99,.84-.25,.48-1.57-.36-1.31-4.17,1.25-8.09,3.48-11.53,6.13-.34,.26-.48,.73-.14,1.07,3.31,3.26,6.65,6.5,9.97,9.77,.63,.62,1.59-.35,.96-.96h0Z"/><path class="cls-3" d="M45.01,22.11c-5.18,6.1-11.16,14.39-11.63,22.69-.35,6.31,4.25,12.39,10.75,12.97,6.06,.54,11.83-4.13,12.45-10.19,.95-9.17-7.64-15.79-9.58-24.22-.32-1.39-2.47-.8-2.15,.59,1.09,4.71,3.73,8.45,6.15,12.56,3.75,6.36,5.64,17.17-4.26,18.86-8.6,1.47-12.41-7.32-10.36-14.42,1.82-6.31,6-12.33,10.2-17.26,.92-1.08-.64-2.67-1.57-1.57h0Z"/><path class="cls-3" d="M57.07,49.6c4.57-.04,8.62-3,8.95-7.79,.44-6.35-5.37-11.01-6.8-16.85-.31-1.28-2.29-.74-1.98,.54,.71,2.9,2.1,5.22,3.64,7.75,3.16,5.21,5.21,14.21-3.81,14.3-1.32,.01-1.32,2.06,0,2.05h0Z"/><path class="cls-3" d="M57.41,23.96c-2.74,3.18-4.99,6.67-6.7,10.5-.54,1.19,1.23,2.24,1.77,1.03,1.65-3.67,3.76-7.04,6.38-10.08,.86-.99-.59-2.45-1.45-1.45h0Z"/><g><path class="cls-4" d="M40.65,81.83c1.31-.05,2.21,.34,2.71,1.16-.22,.51-.33,1.18-.33,2,.29-.01,1.05-.25,2.28-.71,.86,.06,1.29,.25,1.29,.57,0,.37-.18,.66-.54,.86-.15,0-.54-.01-1.18-.06-.74,.1-1.32,.15-1.73,.16v.1c0,.82,.11,1.55,.32,2.2l6.06-1.27c.65,.17,.97,.33,.97,.49v.21c0,.25-.14,.54-.43,.85l-1.3-.05-.97,.03c-2.84,.1-4.64,.41-5.4,.93-.06,0-.35-.03-.86-.08h-.11v.11c.38-.01,.67,.46,.87,1.44-.09,.53-.7,1.35-1.85,2.47h.11c1.03-.04,2.47-.34,4.33-.89l.43-.02c-.28-.68-.75-1.43-1.41-2.25,.14-.08,.24-.11,.32-.11,2.31,.77,3.47,1.73,3.47,2.9v.32c-.1,.84-.32,1.27-.66,1.28-.94-.1-1.41-.5-1.41-1.21l-.43,.12c-.18,0-.46-.02-.86-.07-3.44,.4-5.42,.86-5.95,1.36,0,.12-.21,.26-.65,.44v-.1c1.3-2.02,2.13-3.87,2.48-5.54h-.1c-1.2,.26-2.71,.63-4.54,1.12-.62-.26-1.01-.39-1.19-.38v-.21c3.13-.68,5.11-1.13,5.95-1.37v.11c.12-.07,.29-.12,.53-.12v-.32c0-.08,.08-.47,.23-1.16v-.94c-1.29,.25-2.12,.46-2.49,.62-.49-.26-.78-.39-.86-.39v-.21c.3-.01,1.42-.23,3.35-.65v-2.83l-.54-.82c.07,0,.1-.03,.1-.1Z"/><path class="cls-4" d="M53.05,85.03c2.47,.13,3.7,.82,3.7,2.06v.69c0,.11-.14,.25-.42,.42l-.51,.02-2.26-2.6c-.33-.16-.51-.29-.51-.38v-.21Zm5.34,2.19h.21v.09c-.08,.75-1.17,3.34-3.29,7.77h-.21c-.68-.36-1.03-1.18-1.03-2.44v-.09c2.88-3.25,4.32-5.02,4.32-5.33Zm-3.6-5.33c1.82-.07,2.95,.52,3.39,1.76v.79c0,.1-.1,.2-.31,.32h-.21c-.39,.01-1.14-.69-2.27-2.1-.55-.4-.82-.62-.82-.67l.21-.1Zm8.11,.4c.33-.01,.92,.3,1.75,.93-.21,.96-.31,1.73-.31,2.3v.39c.9-.03,1.48-.41,1.74-1.15l.51-.12c.21,0,.93,.46,2.15,1.42v.1c-.34,1.07-.62,3.14-.82,6.19l-.92,.82h-.1c-.39,.02-.73-.29-1.03-.94-.36-.19-.7-.28-1.03-.27h-.31c-.9,.24-1.38,.36-1.45,.36-.07,0-.17-.02-.31-.08-.34,.01-1.2,.34-2.56,.98h-.31c-.53-.21-.9-.5-1.13-.84v-.21c.21-.73,.38-2.03,.51-3.89,0-.62-.31-1.33-.92-2.15l.21-.11c.68,.04,1.63,.17,2.87,.39l.72-.12v-2.69l-.1-.69,.82-.62Zm-1.95,5.24v.59l.1,.99c.69-.16,1.1-.24,1.23-.25v-1.59c0-.14-.07-.2-.21-.19-.75,.1-1.13,.24-1.13,.44Zm.1,1.98c0,.19,.14,.92,.41,2.17,.5-.01,.78-.12,.82-.33v-1.89l-.72,.12-.51-.08Zm3.19-2.7v1.39s.25-.04,.62-.12c.39,.12,.7,.17,.92,.16,0-1.19-.07-1.78-.21-1.78-.89,.03-1.33,.15-1.33,.35Zm.1,2.38v1.99c.85-.16,1.33-.25,1.44-.25v-1.79l-.21,.11h-.21l-1.03-.06Z"/></g></svg>