<?xml version="1.0" encoding="UTF-8"?><svg id="_層_1" xmlns="http://www.w3.org/2000/svg" viewBox="0 0 103.35 100.72"><defs><style>.cls-1{fill:#f7edd0;}.cls-2{fill:#d37460;}.cls-3{fill:#354253;}.cls-4{fill:#354152;}.cls-5{fill:#70888a;}</style></defs><g><path class="cls-5" d="M46.34,18.96c.1,.53,.18,1.03,.25,1.48,.19,1.35,1.84,2.17,3.05,1.99,.72-.11,1.3-.44,1.7-.92,.97,.35,2.01,.55,3.07,.57,4.21,.07,8.04-3,8.04-7.37,0-4.37-3.3-7.35-7.12-8.77-.67-.25-1.39-.13-2,.21-2.43-.3-5.03,1.03-6.94,2.47-2.69,2.03-3.81,5.58-1.81,8.52,.47,.7,1.08,1.32,1.77,1.83Z"/><path class="cls-5" d="M77.69,13.97c-1.53-.82-3.64,.22-5.14,1.33-3.3,2.44-6.44,5.11-9.99,7.17s-7.61,3.48-11.7,3.13c-6.17-.52-11.24-4.86-15.89-8.94-1.07-.94-2.18-1.9-3.52-2.38-.98-.35-3.1-.59-3.77,.51-.73,1.18,.62,2.82,1.26,3.78,1.81,2.72,4.3,5,7.19,6.53,2.41,1.28,5.24,2.18,6.75,4.45,1.13,1.71,1.28,3.86,1.29,5.91,.06,9.48-2.15,18.97-6.37,27.47-1.04,2.09-2.22,4.2-2.35,6.53s1.22,4.94,3.52,5.33c1.54,.26,3.94-.18,5.01-1.33s1.65-2.15,2.28-3.58c2.67-6.05,4.56-12.9,7.23-18.94,1.39,7.15,4.31,14,8.51,19.95,.83,1.17,1.73,2.34,2.95,3.09s2.83,1.02,4.09,.33c1.52-.83,2.1-2.81,1.84-4.52s-1.18-3.25-2.01-4.77c-3.55-6.45-5.95-13.53-7.05-20.81-.82-5.38-.73-11.45,2.89-15.51,3.59-4.03,9.8-5.05,13.1-9.32,1.15-1.48,1.76-3.82,.37-5.08-.15-.14-.31-.25-.48-.34Zm-28.94,16.38c-.2,.31,.04,.02,.58,.05,.63,.03,1.28,.92,1.88,1.08,1.73,.46,3.47,.08,5.2-.55h.01c.16,.1,.32,.18,.5,.24,.22,1.39,.26,2.79,.12,4.19-.24,.2-.45,.43-.61,.72-.89,1.57-1.92,2.93-3.19,4.21-.03,.03-.05,.05-.07,.08-.31,.05-.62,.15-.9,.29-.85-.74-1.67-1.65-2.63-2.22-.11-1.6-.5-2.87-.61-4.48-.08-1.07-.66-2.02-1.55-2.48,.48-.21,.92-.57,1.27-1.12Z"/></g><path class="cls-2" d="M52.98,33.37c0-.29,.1-.18-.01,.04,0-.1,.05-.18,.13-.25,.09-.1,.08-.09-.03,.03-.12,.11-.12,.13-.02,.04,.11-.08,.09-.07-.04,.01-.27-.03,.16-.07,.27-.07,.16,0,.24,.08,.38,.13-.14-.05-.35-.17-.09-.02-.24-.13-.19-.27-.03,.03,.1,.19,0-.48,.02,.05-.03-1.5-1.25-2.78-2.78-2.78s-2.81,1.27-2.78,2.78c.07,2.87,2.34,5.32,5.27,5.36s5.2-2.57,5.26-5.36c.03-1.5-1.3-2.78-2.78-2.78s-2.74,1.27-2.78,2.78h0Z"/><path class="cls-1" d="M57.06,5.99c-8.91-3.14-16.6,6.98-11.13,14.71,.96,1.36,3.23,.06,2.26-1.32-4.16-5.88,1.36-13.27,8.18-10.87,1.59,.56,2.27-1.96,.69-2.52h0Z"/><path class="cls-1" d="M53,31.67c-1.81-1.7-4.85-1.09-5.43,1.47-.73,3.22,2.54,4.91,4.28,6.96,.95,1.13,2.56-.5,1.62-1.62s-2.16-1.85-3.04-2.97c-.4-.5-.88-1.3-.61-1.97,.29-.71,1.05-.76,1.57-.27,1.07,1.01,2.69-.61,1.62-1.62h0Z"/><path class="cls-3" d="M52.98,21.66c-3.92-.13-7.85-2.93-7.91-7.11s2.54-6.91,6.42-7.67c4.23-.83,7.97,1.96,8.94,6.04,1.25,5.24-2.54,8.37-7.45,8.74-1.24,.09-1.25,2.04,0,1.94,5.61-.42,10.08-3.55,9.56-9.62-.46-5.38-4.89-9.63-10.39-9.14-5.1,.45-8.85,4.2-9.02,9.33-.17,5.44,4.71,9.27,9.85,9.44,1.25,.04,1.25-1.9,0-1.94Z"/><path class="cls-3" d="M53.1,39.15c-1.44-1.09-2.86-2.35-3.97-3.79-1.3-1.69-.77-4.22,2.26-2.65,.57,.29,.65,.61,1.3,.83,.33,.11,.71-.02,.94-.25,.45-.43,1.11-1.38,1.69-1.52,2.17,.45,2.84,1.42,2,2.91-.21,.37-.48,.7-.81,.97-1.21,1.26-2.67,2.34-4.1,3.33-1.02,.71-.05,2.39,.98,1.68,2.58-1.78,7.3-4.68,5.98-8.46-.47-1.34-1.68-2.26-3.09-2.41-1.94-.21-2.79,.94-4.02,2.13l.94-.25c-.61-.21-1.04-1.02-1.64-1.33-.65-.33-1.46-.46-2.17-.35-1.38,.21-2.58,1.28-2.95,2.63-.93,3.32,3.46,6.52,5.69,8.2,1,.75,1.97-.93,.98-1.68h0Z"/><path class="cls-3" d="M52.59,49.75c-1.13,3.88-2.64,7.61-4.07,11.38-.73,1.91-1.4,3.85-2,5.81s-1.15,4.21-2.75,5.68c-1.13,1.03-2.76,1.02-4.2,.89-.88-.08-3.11-.26-3.68-1.09,.18,.25,.06-.12,.09-.3,.07-.41,.16-.81,.28-1.21,.31-1.11,.71-2.19,1.12-3.27,2.01-5.33,4.39-10.5,5.86-16.01,.44-1.65,1.2-3.44,1.31-5.15,.1-1.53,.05-3.09,.08-4.63l.21-12.06c0-.27-.15-.52-.37-.65-4.29-2.52-8.57-5.11-12.56-8.09-1.07-.8-2.13-1.63-3.06-2.6-.85-.88-2.24-2.59-1.09-3.78,.98-1.02,2.59-.49,3.63,.08,2.21,1.2,4.24,2.84,6.29,4.28,2.18,1.53,4.35,3.07,6.53,4.59,1.28,.89,2.62,2.23,4.25,2.3,.9,.04,1.81,.01,2.72,.02,2.14,.01,4.31,.13,6.45,.04,1.35-.06,2.53-1.17,3.6-1.9l6.32-4.28,5.17-3.5c.72-.49,1.44-1.01,2.22-1.4,.97-.48,2.42-.78,3.28,.11,1.2,1.24-.32,3.01-1.2,3.9-2.93,2.98-6.7,5.11-10.21,7.33-1.58,.99-3.57,1.95-4.9,3.27-.44,.44-.38,.84-.38,1.42l-.1,13.89c0,.59-.07,1.22-.01,1.8,.07,.67,.39,1.34,.61,1.97,1.46,4.24,2.95,8.47,4.45,12.71l2.61,7.4c.32,.91,.7,1.81,.99,2.74s.24,.95-.62,1.24c-1.35,.46-2.9,.67-4.32,.6-1.77-.08-2.34-2.11-2.98-3.49-2.81-6.09-5.3-12.31-7.61-18.6-.17-.46-.34-.93-.51-1.39-.33-.91-1.79-.52-1.46,.4,1.67,4.64,3.44,9.25,5.34,13.8,.64,1.52,1.29,3.04,1.98,4.54s1.31,3.15,2.23,4.53c.68,1.02,1.45,1.61,2.68,1.72,1.35,.12,2.78-.08,4.1-.38,.85-.19,2.12-.45,2.65-1.24,.7-1.06-.22-2.67-.6-3.69-1.73-4.77-3.37-9.56-5.06-14.35-.62-1.77-1.24-3.53-1.85-5.31-.37-1.07-.88-2.17-1.12-3.27,.04,.18,.02,.15,.02-.07,0-.26,0-.52,0-.77l.02-2.57,.09-12.96-.37,.65c4.17-3.08,8.81-5.45,12.9-8.64,1.74-1.35,4.06-3.1,4.5-5.4s-1.38-3.9-3.55-3.85c-2.41,.06-4.81,2.22-6.76,3.54l-7.96,5.39-2.87,1.94c-.53,.36-.89,.61-1.55,.66-2.74,.21-5.59-.04-8.34-.05-.24,0-.52,.03-.77,0-.74-.12-1.52-.85-2.13-1.27-.79-.55-1.58-1.1-2.37-1.65-2.64-1.85-5.27-3.72-7.92-5.55-2.02-1.4-4.46-3.66-7.12-3.29-2.29,.32-3.47,2.45-2.62,4.59,.76,1.92,2.71,3.37,4.3,4.6,1.81,1.4,3.7,2.68,5.61,3.92,2.51,1.63,5.07,3.19,7.65,4.7l-.37-.65-.2,11.37c-.03,1.75-.05,3.51-.09,5.26,0,.15-.04,.39,.02,.08-.08,.43-.23,.86-.35,1.27-.38,1.39-.76,2.79-1.12,4.18-1.55,5.9-4.36,11.37-6.33,17.12-.42,1.23-1.49,3.55-.24,4.6,.95,.79,2.41,1.07,3.59,1.25,1.46,.22,3.07,.31,4.49-.15,4.09-1.33,4.78-7.34,5.99-10.77,1.63-4.63,3.59-9.11,4.97-13.83,.27-.94-1.19-1.34-1.46-.4Z"/><path class="cls-3" d="M84.21,42.06c-.01,1.54-.12,3.07-.36,4.59-.19,1.22,1.68,1.75,1.87,.52,.26-1.7,.41-3.39,.43-5.11,0-1.25-1.93-1.25-1.94,0h0Z"/><path class="cls-3" d="M82.65,51.47c-.16,1.39-.8,2.56-1.76,3.56-.87,.9,.51,2.28,1.37,1.37,1.34-1.4,2.11-3,2.33-4.93,.14-1.24-1.8-1.23-1.94,0h0Z"/><path class="cls-3" d="M78.44,59.19c-.66,1.39-1.78,2.45-2.97,3.4-.97,.79,.41,2.15,1.37,1.37,1.3-1.05,2.54-2.27,3.27-3.8,.53-1.12-1.14-2.11-1.68-.98h0Z"/><path class="cls-3" d="M70.32,11.33c-1.31-.87-2.72-1.54-4.21-2.03-1.19-.39-1.7,1.48-.52,1.87,1.34,.44,2.57,1.05,3.74,1.83,1.04,.69,2.02-.99,.98-1.68h0Z"/><path class="cls-3" d="M80.21,24.41c1.01,1.33,1.75,2.79,2.21,4.39,.35,1.2,2.22,.69,1.87-.52-.51-1.76-1.31-3.4-2.41-4.86-.74-.99-2.43-.02-1.68,.98h0Z"/><path class="cls-3" d="M83.63,32.68c.5,1.65,.77,3.32,.8,5.04,.02,1.25,1.96,1.25,1.94,0-.03-1.89-.32-3.75-.87-5.56-.36-1.19-2.24-.68-1.87,.52h0Z"/><path class="cls-3" d="M19.7,42.06c.01,1.72,.16,3.41,.43,5.11,.19,1.23,2.06,.71,1.87-.52-.24-1.52-.35-3.05-.36-4.59,0-1.25-1.95-1.25-1.94,0h0Z"/><path class="cls-3" d="M21.26,51.47c.22,1.93,.99,3.53,2.33,4.93,.87,.9,2.24-.47,1.37-1.37-.96-1-1.6-2.17-1.76-3.56-.14-1.23-2.09-1.24-1.94,0h0Z"/><path class="cls-3" d="M25.74,60.17c.73,1.53,1.97,2.75,3.27,3.8,.96,.78,2.35-.59,1.37-1.37-1.19-.96-2.3-2.01-2.97-3.4-.54-1.13-2.21-.14-1.68,.98h0Z"/><path class="cls-3" d="M50.29,73.42c1.73,.51,3.52,.38,5.28,.11,1.23-.19,.71-2.06-.52-1.87-1.41,.22-2.86,.3-4.25-.11-1.2-.35-1.71,1.52-.52,1.87h0Z"/><path class="cls-3" d="M36.51,13c1.17-.78,2.41-1.39,3.74-1.83,1.18-.39,.68-2.26-.52-1.87-1.49,.49-2.9,1.16-4.21,2.03-1.04,.69-.06,2.37,.98,1.68h0Z"/><path class="cls-3" d="M23.96,23.43c-1.1,1.46-1.9,3.1-2.41,4.86-.35,1.2,1.53,1.72,1.87,.52,.46-1.61,1.21-3.06,2.21-4.39,.75-1-.93-1.97-1.68-.98h0Z"/><path class="cls-3" d="M20.35,32.17c-.55,1.81-.84,3.67-.87,5.56-.02,1.25,1.92,1.25,1.94,0,.03-1.73,.3-3.39,.8-5.04,.37-1.2-1.51-1.71-1.87-.52h0Z"/><g><path class="cls-4" d="M42.55,78.74c1.16,.23,1.74,.5,1.74,.83v.1c0,.59-.72,1.42-2.15,2.46h.1c1.28-.23,2.03-.49,2.26-.78,.66,.13,1.11,.35,1.34,.65v.1l-.1,.2c-.15,0-.53,0-1.14-.05-.29,0-1.32,.14-3.08,.41l.21,.29v.99c.26,0,1.05-.23,2.36-.68,.34-.01,.68,.14,1.03,.45,0,.38-.17,.62-.51,.72-.17,0-.44-.02-.82-.07-1.64,.06-2.46,.26-2.46,.58-.27,.57-.41,.98-.41,1.21,.21,0,.69-.09,1.44-.25-.21-.53-.31-.83-.31-.88h.1c.58,.5,.92,.76,1.03,.75,1.5-.25,2.87-.53,4.11-.84,.55,.16,.82,.31,.82,.46,0,.36-.14,.59-.41,.72-.47,.01-.88,0-1.23-.06-.79,.1-1.55,.16-2.27,.18h-.31c1.91,1.23,3.93,2.22,6.06,2.97v.19c-1.47,.72-2.22,1.08-2.26,1.08-.94,.03-2.62-1.29-5.04-3.99h-.1c-1.64,.06-2.46,.36-2.46,.89-1.66,2.44-3.27,3.92-4.83,4.45,2.14-2.33,3.3-3.9,3.5-4.71h-.1c-1.76,.47-2.72,.7-2.88,.71-.55-.1-.82-.23-.82-.37v-.1c2.88-.53,4.32-.88,4.32-1.05l.72-1.42h-.1l-1.96,.37c-.41-.14-.62-.27-.62-.38v-.09c2.12-.08,3.19-.49,3.19-1.21v-.7c-.16,0-1.09,.24-2.78,.7-.63-.11-1.01-.16-1.13-.16v-.19c3.22-.56,4.83-.95,4.83-1.17,.82-1.36,1.23-2.37,1.23-3.02-.07-.13-.1-.23-.1-.3Zm-.41,8.16h.1c.55,.36,.82,.71,.82,1.07-.12,.4-1.15,.71-3.08,.9,0,.1,.21,.29,.62,.57,.7-.15,1.56-.51,2.56-1.09,.89,.42,1.37,.73,1.44,.94-.21,.7-.31,1.4-.31,2.1v1.59c0,.13-.07,.2-.21,.21h-.1c-.4,.02-.81-.1-1.23-.35-.1,.07-.31,.11-.62,.12,.59,.52,1.2,.9,1.85,1.13,.41-.62,.62-1.05,.62-1.31v-.1l-.1-.19,.21-.11c.76,.27,1.14,.62,1.14,1.06v.19l-.83,1.13c2.06,.98,3.26,1.47,3.6,1.46v.1c-.29,.31-1.01,.67-2.15,1.08h-.1c-.42,.01-1.38-.52-2.88-1.59-1.05,.64-1.7,.96-1.95,.97,0-.05,.48-.54,1.44-1.45v-.1c-.27-.25-.41-.45-.41-.58-1.98,1.74-2.97,2.87-2.97,3.39l-.21,.1h-.1c-.45-.26-.9-.81-1.34-1.64,.89-.31,1.34-.65,1.34-1.04v-6.07c0-.1,.14-.24,.41-.41l-.1-.2v-.1c1.48-.58,2.34-1.18,2.56-1.79Zm-3.59-7.13h.41c.46-.02,.94,.76,1.44,2.33v.09l-.72,.13h-.1c-.83-.41-1.24-1.16-1.24-2.25v-.09c.03-.14,.1-.21,.21-.22Zm1.95,11.86v1.29l2.56-.59v-.98c-.07,0-.17-.03-.31-.09-.92,.1-1.67,.22-2.26,.38Zm0,1.59v1.99l1.74-.86c-.27-.53-.41-.98-.41-1.37-.07,.07-.51,.15-1.33,.25Zm.21-2l1.95-.67c.12,.06,.26,.09,.41,.09v-1.29h-.51c-1.23,.06-1.85,.28-1.85,.68v1.19Z"/><path class="cls-4" d="M60.03,81.55c.38,.06,.96,.21,1.73,.46-.08,.83-.11,1.42-.11,1.78v.52h.22c.41-.02,1.09-.32,2.05-.91,.58,.21,1.01,.48,1.3,.79,0,.38-.18,.66-.54,.85-.12,0-.55,0-1.29-.05l-1.73,.16c.05,2.3,.13,3.45,.22,3.45l2.28-.61h.1c.65,.1,.97,.22,.97,.38,0,.38-.14,.66-.43,.85l-.87,.03c-.46,.02-1.18,.08-2.15,.18,.07,1.05,.1,1.81,.1,2.3v1.67c3.1-.33,4.65-.67,4.65-1,.31,0,.85,.25,1.63,.78v.22c0,.14-.08,.21-.23,.21l-1.51-.05c-6.63,.73-9.95,1.27-9.95,1.62-.06,0-.27,.04-.65,.12-.88-.25-1.46-.37-1.73-.36v-.21c3.36-.61,5.24-.92,5.62-.93v-3.98l-2.05,.39c-.49-.19-.77-.29-.86-.29v-.21c.35-.01,1.33-.19,2.91-.52v-3.67c-.34,.01-1.27,.26-2.81,.74,0-.08-.03-.11-.1-.1-.39,.77-1.44,1.96-3.14,3.57v-.22c1.39-2.36,2.14-4.56,2.27-6.57-.1,0-.21-.09-.32-.3v-.1h.1c1.12-.04,1.81,.42,2.06,1.38l-.33,1.37h.1c1.44-.26,2.16-.45,2.16-.6v-2.83c0-.1,.11-.21,.33-.33Z"/></g></svg>