<?xml version="1.0" encoding="UTF-8"?><svg id="_層_1" xmlns="http://www.w3.org/2000/svg" viewBox="0 0 103.35 100.72"><defs><style>.cls-1{fill:#f7edd0;}.cls-2{fill:#d37460;}.cls-3{fill:#354253;}.cls-4{fill:#354152;}.cls-5{fill:#70888a;}</style></defs><path class="cls-5" d="M53.02,5.78c-.28-.27-.6-.5-.94-.66-.93-.45-1.69,.09-2.5,.59-.86,.52-1.72,1.2-2.66,1.55s-1.85,.56-2.73,1.07c-.94,.56-1.56,1.36-2.39,1.99-1.08-1.41-1.61-3.07-2.89-4.4-1.27-1.32-3.05-2.33-4.97-2.34-.79,0-1.75,.12-2.4,.57-.7,.49-.75,1.35-.89,2.12-.42,2.22-.63,5.35,1.19,7.1,1.83,1.75,4.46,2.62,7.08,2.97,1.04,.14,1.93,.36,2.78-.2s1.58-1.17,2.62-1.45c.71-.19,1.51-.21,2.22,.01s.96,.72,1.69,.56c1.14-.25,2.46-1.32,3.32-2.02,1.89-1.53,3.65-3.89,2.41-6.23-.22-.43-.54-.86-.93-1.23Z"/><path class="cls-2" d="M68.82,42.44c-.46-.92-1.02-1.8-1.69-2.61-.69-.85-1.48-1.62-2.2-2.45-.36-.42-.56-.74-1.02-.89-.37-.12-.67,.06-1.02-.27-.3-.29-.42-.7-.45-1.09s.04-.79,.04-1.19c.02-1.04-.47-1.91-.79-2.87s-.67-1.9-1.09-2.83c-.88-1.93-2.02-3.79-3.67-5.25-2.5-2.23-6.49-3.35-9.59-1.88-1.95,.92-2.78,2.82-4.18,4.25-1.55,1.58-2.66,2.88-3.23,5.01-.28,1.02-.49,2.06-.81,3.07-.14,.44-.47,.96-.49,1.41-.02,.49,.29,1.11,.36,1.62,.04,.32,.07,.65-.05,.96-.17,.43-.61,.73-1.05,.95-1.01,.51-1.82,1.23-2.66,1.94-1.01,.85-1.69,2.01-2.02,3.22-.65,2.4-.09,4.93,.75,7.23,.23,.62,.61,3.08,1.62,2.96,1.16-.14,1.44-2.83,1.46-3.59,.03-1.49-.29-2.97-.19-4.46,.08-1.11,.45-2.28,1.28-3.11,.54-.54,.82-.82,1.22-.21,.33,.5,.38,1.42,.51,2,.42,1.96,.63,3.95,.85,5.93,.09,.79,.35,1.71,.3,2.5s-.41,1.51-.47,2.29c-.12,1.62,.21,3.27,.92,4.75,.75,1.56,1.95,2.53,3.13,3.75,2.02,2.1,4.27,4.24,7.39,4.81,.76,.14,1.42-.03,1.84,.54,.48,.66,.57,1.96,.7,2.73,.15,.92,.23,1.84,.23,2.77,0,.73-.48,1.66-.24,2.37,.51,1.5,1.75-.21,2.05-.89,.72-1.63,1.37-3.32,1.08-5.08,.84-.17,1.58-.22,2.39,.1,1.23,.48,2.11,2.36,3.33,.82,1.15-1.45-.39-3.32-1.42-4.85-2.63-3.88-1.86-8.86-.77-13.32s2.4-9.2,.63-13.47c.17,.42,1.18,1,1.53,1.38,.49,.54,.91,1.12,1.27,1.73,.74,1.26,1.21,2.67,1.36,4.09s-.14,2.68-.49,4.06c-.2,.79-.13,1.63,.02,2.42,.13,.68,.2,3.01,1.54,2.68,1.14-.29,2.02-3.41,2.32-4.33,1.03-3.18,.96-6.65-.54-9.66Z"/><g><path class="cls-5" d="M56.54,64.99c-.3-.74-.62-1.45-.94-2.12-1.07-2.25-2.73-4.25-4.85-5.76-.32-.23-.67-.33-1.01-.35-.96-.51-2.55-.09-2.59,1.25-.07,2.23,1.69,3.78,3.33,5.2,2.04,1.76,3.53,4.05,3.98,6.59,.22,1.25,.21,2.57-.07,3.82-.16,.69-.6,3.51,.46,3.76,.53,.12,1.46-.76,1.76-1.07,1.47-1.54,1.5-4.15,1.33-6.07-.15-1.71-.71-3.54-1.4-5.25Z"/><path class="cls-5" d="M39.45,38.72c-.41-1.36-2.21-1.36-3.03-.36-3.6,4.43-3.32,9.49-2.49,14.69,.34,2.11,2.38,.21,2.78-.81,.38-.95,.1-1.93,.04-2.9s-.11-2.02-.02-3.04,.28-2.05,.63-3.03c.22-.62,.73-2.36,1.39-2.69,.59-.3,1-.89,.76-1.66l-.06-.21Z"/><path class="cls-5" d="M69.66,43.05c-.73-1.75-1.82-3.41-3.36-4.67-.7-.57-1.47-1.08-2.3-1.48-.74-.35-1.6-.54-2.27-1.01-.77-.54-1.09-1.47-1.5-2.24-.23-.42-.29-.76-.85-.72-.45,.03-.81,.43-.97,.77-.89,1.85-.16,3.68,1.68,4.79,1.89,1.14,3.81,1.58,5.19,3.37,3.08,3.97,2.09,9.02,.45,13.3-.2,.53-.07,1.31,.56,1.57,.72,.31,1.04-.63,1.37-1.15,.81-1.27,1.48-2.61,1.97-4,.97-2.76,1.17-5.79,.03-8.54Z"/><path class="cls-5" d="M59.35,53.15c-.92,1.41-2.36,2.24-4.11,2.53-.88,.14-1.38,1.13-1.16,1.86,.26,.85,1.15,1.2,2.04,1.06,2.56-.41,4.77-1.89,6.09-3.92,1.09-1.68-1.77-3.2-2.86-1.53Z"/></g><path class="cls-2" d="M51.58,6.83c.6,.9,.78,1.99,.46,3.01-.3,.95-1.04,1.74-1.91,2.3-1.04,.66-2.23,1.05-3.44,1.35-1.42,.35-2.87,.62-4.31,.92-1.04,.22-.6,1.68,.44,1.46,2.97-.62,6.29-1.01,8.73-2.82,1.07-.8,1.91-1.9,2.18-3.15,.28-1.31,.04-2.68-.72-3.83-.55-.83-1.99-.07-1.43,.76h0Z"/><path class="cls-2" d="M40.92,14.56c-1-.61-2.2-.65-3.36-.61-1.04,.03-2.16,.14-3.07-.39-2.05-1.2-1.8-3.95-1.87-5.86-.05-1.37-.24-2.74-.95-3.97-.5-.86-1.93-.1-1.43,.76,.6,1.05,.7,2.25,.73,3.41,.04,1.29,.02,2.61,.38,3.87,.29,1.02,.88,2.03,1.76,2.72,.96,.74,2.11,1,3.35,1s2.57-.27,3.63,.37c.89,.54,1.72-.77,.84-1.31h0Z"/><path class="cls-1" d="M46.71,25.23c-2.03,.34-4,1.69-4.84,3.61-.48,1.1-.92,3.97,1.16,3.56l-.42-1.53c-1.34,.43-2.15,2.07-1.29,3.32l.28-1.08c-1.33,.69-1.64,2.64-.47,3.64,.77,.66,1.9-.46,1.12-1.12-.41-.35-.33-.91,.15-1.16,.36-.19,.52-.74,.28-1.08-.25-.37-.1-.85,.35-.99,.98-.32,.58-1.72-.42-1.53,.18-.03,.33,.04,.44,.2,.02,.08,.02,.07,0-.03,.02-.1-.01-.02-.02-.14-.01-.19,0-.38,.02-.56-.02,.17,0,.06,.03-.1s.08-.33,.13-.49c.12-.36,.31-.71,.54-1.02,.81-1.1,2.06-1.76,3.39-1.99,1-.17,.58-1.7-.42-1.53h0Z"/><path class="cls-1" d="M34.58,4.08c.16,.15,.32,.3,.46,.46,.04,.05,.08,.1,.12,.15,.03,.04,.07,.09,.02,.02,.06,.08,.12,.16,.18,.25,.12,.18,.23,.36,.32,.55,.03,.06,.05,.11,.08,.17,.02,.05,.04,.09,.01,.02,.04,.1,.08,.21,.12,.32,.07,.2,.12,.4,.17,.61,.02,.1,.04,.19,.05,.29-.01-.08,0-.06,0,.01,0,.06,.01,.12,.02,.18,.01,.21,.01,.42,0,.63,0,.1-.01,.2-.03,.29,.02-.15,0,.02-.01,.05-.01,.06-.02,.12-.04,.18-.09,.4,.12,.88,.55,.97,.4,.09,.88-.12,.97-.55,.45-2.09-.29-4.3-1.89-5.72-.31-.28-.82-.33-1.12,0-.28,.3-.33,.82,0,1.12h0Z"/><path class="cls-1" d="M36.87,5.42c2.79,2.52,4.23,6.37,3.39,10.08-.22,.99,1.3,1.42,1.53,.42,.96-4.25-.59-8.72-3.8-11.62-.75-.68-1.88,.43-1.12,1.12h0Z"/><path class="cls-1" d="M50.53,4.63c-.07,.31-.17,.47-.43,.71-.23,.22-.51,.38-.85,.55-.67,.33-1.57,.57-2.31,.93-1.61,.79-2.57,2.45-2.23,4.24,.08,.42,.59,.66,.97,.55,.44-.12,.63-.55,.55-.97-.03-.16-.01,.02-.02-.13,0-.09,0-.17,0-.26,0-.24,0-.23,.06-.43,.08-.31,.19-.55,.37-.8,.39-.54,1.08-.85,1.72-1.09,1.45-.54,3.3-1.15,3.68-2.87,.09-.42-.13-.86-.55-.97-.4-.11-.88,.13-.97,.55h0Z"/><path class="cls-1" d="M38.17,37.72c-3.62,3.04-5.75,7.8-5.23,12.55,.11,1,1.69,1.01,1.58,0-.48-4.38,1.42-8.62,4.77-11.43,.78-.66-.34-1.77-1.12-1.12h0Z"/><path class="cls-3" d="M62.98,35.89c1.28-7.35-5.38-14.61-12.75-14.11-3.68,.25-7.34,2.01-9.58,4.99-2.89,3.84-2.32,9.14-1.95,13.64,.24,2.91,.63,5.81,1.18,8.67,.46,2.41,1.07,4.77,2.77,6.62,.6,.65,1.56-.32,.97-.97-1.33-1.45-1.86-3.3-2.25-5.18-.46-2.24-.81-4.51-1.07-6.78s-.42-4.57-.47-6.87,0-4.46,.86-6.51c2.73-6.42,12.01-8.27,17.09-3.67,2.65,2.4,4.52,6.17,3.89,9.8-.15,.86,1.17,1.23,1.32,.36h0Z"/><path class="cls-3" d="M58.39,71.21c.22,.07,.43,.15,.65,.23,.05,.02,.11,.04,.16,.06,.02,0,.15,.07,.06,.02,.1,.05,.21,.09,.31,.14,.4,.19,.78,.4,1.15,.65,.08,.06,.16,.11,.25,.17,.17,.12-.05-.04,.05,.03,.04,.03,.09,.07,.13,.1,.17,.14,.33,.29,.48,.44,.07,.08,.15,.16,.22,.24,.03,.03,.05,.07,.08,.1,.13,.16-.07-.1,.05,.06s.24,.35,.34,.54c.17,.32,.63,.44,.94,.25,.32-.21,.43-.6,.25-.94-.96-1.78-2.86-2.82-4.73-3.44-.34-.11-.76,.13-.84,.48-.09,.38,.11,.72,.48,.84h0Z"/><path class="cls-3" d="M40.31,51.08c-1.61,4.02,.19,8.54,2.56,11.86s5.97,5.74,9.92,6.91c.85,.25,1.21-1.07,.36-1.32-3.6-1.06-6.9-3.21-9.1-6.29s-3.9-7.11-2.42-10.81c.33-.82-1-1.17-1.32-.36h0Z"/><path class="cls-3" d="M61.77,40.88c-.09,2.85,.47,5.85-.37,8.63s-3.22,5.49-6.34,5.88c-.86,.11-.87,1.48,0,1.37,3.46-.42,6.1-2.86,7.37-6.04s.61-6.56,.71-9.84c.03-.88-1.34-.88-1.37,0h0Z"/><path class="cls-3" d="M61.33,50.03c.03,1.07-.02,2.15-.18,3.22-.14,.95-.31,1.99-.92,2.76-1.01,1.3-2.83,1.76-4.34,2.18-.85,.24-.49,1.56,.36,1.32,1.82-.51,3.85-1.11,5.06-2.67,.69-.89,.96-1.97,1.13-3.06,.2-1.24,.29-2.49,.26-3.75-.02-.88-1.39-.88-1.37,0h0Z"/><path class="cls-3" d="M60.08,56.43c-.7,2.64-1.64,5.52-.06,8.02,.8,1.26,1.82,2.37,2.53,3.68,.82,1.53,.85,3.22,.01,4.75-.42,.77,.76,1.46,1.18,.69,.72-1.32,.99-2.8,.69-4.28s-1.26-2.8-2.17-4.02-1.81-2.38-1.77-3.99c.03-1.53,.51-3.02,.9-4.48,.22-.85-1.1-1.22-1.32-.36h0Z"/><path class="cls-3" d="M59.31,33.41c.36,2.02,2.15,2.88,3.83,3.7,2.36,1.15,4.24,3.07,5.44,5.41,1.49,2.89,1.15,5.54,.02,8.46-.93,2.42-2.05,4.8-1.89,7.45,.06,.87,1.42,.88,1.37,0-.18-2.79,1.19-5.26,2.11-7.81s1.13-5.18,.02-7.83c-.98-2.35-2.68-4.47-4.75-5.94-1.61-1.14-4.43-1.56-4.83-3.8-.15-.87-1.47-.5-1.32,.36h0Z"/><path class="cls-3" d="M57.46,34.88c-.13,.94-.26,1.93,.21,2.8s1.32,1.31,2.16,1.77c2.25,1.23,3.86,3.23,4.66,5.66,1.46,4.42-.49,9.63,2.31,13.66,.5,.72,1.69,.03,1.18-.69-1.13-1.62-1.5-3.81-1.48-5.76,.03-2.43,.12-4.8-.57-7.17-.56-1.9-1.55-3.69-2.96-5.09-.68-.68-1.46-1.25-2.31-1.71-.47-.26-1.04-.48-1.43-.86-.65-.61-.57-1.45-.46-2.25,.12-.86-1.2-1.23-1.32-.36h0Z"/><path class="cls-3" d="M38.43,36.21c-2.46,2.54-5.37,5.12-5.77,8.82-.2,1.89,.05,3.79,.54,5.62s1.1,3.88-.35,5.37c-.61,.63,.35,1.6,.97,.97,2.69-2.76,.35-6.59,.17-9.8-.11-2.01,.19-3.89,1.39-5.54s2.64-3.04,4.02-4.47c.61-.63-.35-1.6-.97-.97h0Z"/><path class="cls-3" d="M38.36,40.86c-1.89,1.56-2.14,4.04-2.12,6.33,.01,1.4,.06,2.81-.41,4.16s-1.31,2.5-2.18,3.59c-.54,.68,.42,1.66,.97,.97,.81-1.02,1.6-2.08,2.15-3.27s.81-2.52,.84-3.87c.06-2.4-.37-5.22,1.71-6.94,.68-.56-.29-1.52-.97-.97h0Z"/><path class="cls-3" d="M46.74,56.66c-1.4,1.15-.97,3.08,.11,4.28,.75,.83,1.73,1.43,2.52,2.22s1.48,1.72,2.03,2.72c1.04,1.88,1.63,3.97,2.01,6.08,.4,2.22,1.11,4.89,.05,7.03-.39,.79,.79,1.48,1.18,.69,.9-1.81,.78-3.79,.49-5.74-.3-2.06-.67-4.15-1.37-6.11-.65-1.82-1.56-3.54-2.83-5.01-.74-.85-1.63-1.5-2.48-2.24s-1.9-2.01-.75-2.95c.68-.56-.29-1.52-.97-.97h0Z"/><path class="cls-3" d="M49.48,57.44c3.5,2.16,6.19,5.56,7.2,9.58,.53,2.09,.58,4.34-.01,6.43-.65,2.29-2.43,3.79-3.35,5.91-.35,.8,.83,1.5,1.18,.69,.5-1.16,1.33-2.08,2.03-3.11s1.2-2.13,1.51-3.31c.6-2.27,.53-4.7-.04-6.97-1.09-4.36-4.03-8.06-7.83-10.4-.75-.46-1.44,.72-.69,1.18h0Z"/><path class="cls-3" d="M39.73,29.3c1,1.06,2.72,1.28,4.11,1.23s2.85-.46,3.92-1.45c.65-.6-.32-1.56-.97-.97-.79,.73-1.89,1.01-2.95,1.05s-2.4-.04-3.15-.83c-.61-.64-1.57,.33-.97,.97h0Z"/><path class="cls-3" d="M39.85,32.12c.74,.3,1.5,.52,2.29,.64s2.06,.38,2.34-.63c.09-.34-.12-.76-.48-.84s-.74,.11-.84,.48c.04-.1,.1-.19,.2-.25-.06,.03-.05,.03,.04-.02-.13,.05,.13,0-.01,0s-.29,0-.43-.02c-.09,0-.19-.02-.28-.03-.02,0-.22-.03-.1-.01-.16-.02-.32-.05-.49-.08-.64-.13-1.27-.32-1.87-.56-.33-.14-.77,.15-.84,.48-.09,.4,.12,.7,.48,.84h0Z"/><path class="cls-3" d="M39.35,34.61c1.69,.36,3.62,.53,5.31,.04,1.55-.45,2.65-1.61,3.66-2.81,.57-.67-.4-1.64-.97-.97-.85,1-1.75,2.08-3.06,2.45-1.45,.42-3.13,.26-4.58-.04-.86-.18-1.23,1.14-.36,1.32h0Z"/><path class="cls-3" d="M39.77,37.36c1.3,.09,2.63-.09,3.86-.53,.34-.12,.6-.47,.48-.84-.11-.33-.48-.61-.84-.48-.57,.2-1.17,.35-1.77,.44,.13-.02-.08,0-.09,0-.08,0-.16,.02-.24,.02-.15,.01-.29,.02-.44,.03-.32,.01-.64,0-.95-.02-.36-.02-.7,.33-.68,.68,.02,.39,.3,.66,.68,.68h0Z"/><path class="cls-3" d="M45.4,23.18c-.15-.51,.35-1.01,.73-1.29,.43-.32,.99-.36,1.51-.41,1.29-.11,2.57-.24,3.86-.25s2.68-.02,3.82,.49c.4,.18,1.01,.53,1.28,.9s.12,.97,.04,1.38c-.18,.86,1.14,1.23,1.32,.36,.14-.67,.25-1.39,.01-2.05s-.8-1.03-1.33-1.41c-1.43-1.01-3.45-1.07-5.13-1.05-.94,0-1.89,.08-2.83,.17-.77,.07-1.59,.07-2.34,.28-1.32,.36-2.67,1.8-2.25,3.24,.24,.85,1.56,.49,1.32-.36h0Z"/><path class="cls-3" d="M41.93,17c1.4-1.46,1.03-3.94,.68-5.76-.41-2.12-1.34-4.17-2.79-5.77-1.37-1.51-3.24-2.58-5.3-2.68-1.16-.06-2.36,.26-3.5-.03-.58-.15-1.15-.36-1.69-.61-.7-.33-1.26,.6-.61,1.04,1.8,1.2,1.37,3.59,1.17,5.43s-.06,3.58,1.17,5.05,2.91,2.17,4.66,2.51c.95,.18,1.91,.22,2.87,.28,1.05,.07,2.14,.22,2.89,1.02,.53,.57,1.38-.28,.85-.85-1.39-1.49-3.49-1.28-5.34-1.47s-4.07-.89-5.25-2.55c-1.24-1.76-.56-3.88-.46-5.85,.09-1.79-.4-3.56-1.96-4.59l-.61,1.04c1.18,.56,2.37,.93,3.69,.88,1.12-.05,2.23-.18,3.33,.14,.9,.26,1.73,.74,2.44,1.35,1.47,1.26,2.45,3.01,2.99,4.85,.27,.94,.44,1.91,.49,2.89s.14,2.1-.58,2.85c-.53,.56,.31,1.41,.85,.85h0Z"/><path class="cls-3" d="M42.95,13.55c-.09-1.29-.18-3.26,.76-4.29s2.62-1.38,3.86-1.8c1.13-.38,2.53-.75,3.38-1.65s.95-2.11,.9-3.26c-.03-.77-1.18-.78-1.2,0-.06,2.12,1.97,3.08,2.65,4.88,.59,1.57,0,3.39-1.15,4.55-1.37,1.4-3.48,2.4-5.43,2.43s-3.66,.31-5.13,1.71c-.56,.53,.29,1.38,.85,.85,.76-.72,1.71-1.18,2.75-1.31s2.12,.03,3.18-.22c1.82-.42,3.86-1.6,5.03-3.06,1.03-1.29,1.54-2.97,1.23-4.62-.16-.87-.59-1.61-1.14-2.3-.69-.87-1.67-1.71-1.64-2.91h-1.2c.03,.61,.04,1.24-.19,1.82-.25,.65-.79,.97-1.4,1.24-1.32,.6-2.75,.94-4.09,1.51-1.1,.46-2.21,1.04-2.71,2.18-.57,1.28-.62,2.86-.52,4.24,.06,.77,1.26,.77,1.2,0h0Z"/><path class="cls-3" d="M42.71,16.49c.07-1.32,.59-2.58,1.58-3.47,1.16-1.04,2.79-1.17,4.18-1.76,2.77-1.17,4.38-4.19,3.37-7.11-.25-.73-1.41-.41-1.16,.32,.51,1.47,.27,3.08-.75,4.28s-2.51,1.6-4,2.08c-1.29,.41-2.4,1.06-3.22,2.15-.77,1.02-1.14,2.25-1.2,3.52-.04,.77,1.16,.77,1.2,0h0Z"/><path class="cls-3" d="M29.79,4.06c2.51,1.33,4.7,3.24,6.22,5.65s2.37,5.38,4.99,6.97c.66,.4,1.27-.64,.61-1.04-2.61-1.58-3.33-4.82-5-7.19s-3.76-4.12-6.22-5.43c-.68-.36-1.29,.67-.61,1.04h0Z"/><path class="cls-3" d="M41.19,16.57c.03,1.04,.93,1.65,1.89,1.79,1.15,.18,2.42,.14,3.56-.04s2.24-.59,3.32-.13c.85,.37,1.47,1.1,1.6,2.03,.11,.76,1.26,.44,1.16-.32-.26-1.86-2.1-3.15-3.91-3.12-1.17,.02-2.29,.42-3.47,.46-.58,.02-2.91,.27-2.94-.67-.02-.77-1.22-.77-1.2,0h0Z"/><path class="cls-3" d="M43.28,13.51c.56-.63,1.34-1.03,2.19-1.09,1.02-.08,2.02,.38,3.01,.55,1.81,.31,3.87,.15,5.18-1.28,.52-.57-.32-1.42-.85-.85-1.43,1.55-3.7,1.1-5.5,.63s-3.62-.22-4.89,1.2c-.51,.57,.33,1.43,.85,.85h0Z"/><path class="cls-3" d="M49.37,10.71c.16-.02-.12,.01-.01,0,.04,0,.09-.01,.13-.02,.14-.02,.28-.03,.41-.05,.22-.03,.44-.07,.66-.13,.72-.19,1.44-.53,2.05-.95,.93-.64,1.59-1.6,1.6-2.76,0-.77-1.2-.77-1.2,0,0,.06,0,.12,0,.18,0,.03,0,.07,0,.1,0,.1,.03-.16,0,0-.02,.09-.04,.17-.06,.26-.01,.04-.03,.08-.04,.12,0,.03-.02,.05-.03,.08,.03-.07,.03-.08,0-.02-.05,.1-.1,.2-.17,.3-.01,.02-.13,.19-.07,.1-.04,.05-.07,.09-.11,.13-.22,.25-.45,.42-.72,.59-.56,.35-1.04,.57-1.67,.73-.11,.03-.21,.05-.32,.07-.06,0-.11,.02-.17,.03-.04,0-.18,.02,0,0-.21,.02-.41,.05-.62,.08-.32,.05-.5,.45-.42,.74,.09,.34,.42,.47,.74,.42h0Z"/><path class="cls-3" d="M44.21,12.53c.88-.31,1.49-1.1,1.43-2.05-.02-.24-.06-.48-.11-.72-.03-.12-.05-.23-.08-.35,0-.04-.02-.08-.02-.12-.03-.17,0,.07,0-.03-.01-.09-.02-.19-.01-.28,0-.05,0-.09,0-.14,0,.06-.01,.05,0,0,.01-.04,.02-.09,.03-.13,0-.03,.06-.12,.01-.03,.02-.03,.04-.06,.05-.09-.05,.09,.03-.03,.05-.05,.23-.23,.23-.62,0-.85s-.62-.23-.85,0c-.64,.65-.54,1.53-.36,2.34,.04,.19,.08,.36,.09,.51,0,.06,0,.12,0,.17,0,0-.01,.11,0,.05,0,.05-.02,.1-.04,.15,0,.01-.05,.11-.02,.05,.03-.07-.04,.06-.04,.07-.02,.03-.04,.06-.06,.09,.05-.07,0,0-.03,.03-.02,.03-.05,.05-.08,.08-.02,.01-.11,.09-.03,.03-.03,.02-.06,.04-.09,.06s-.07,.04-.1,.06c-.15,.08,.1-.03-.07,.03-.29,.11-.52,.41-.42,.74,.09,.29,.42,.53,.74,.42h0Z"/><path class="cls-3" d="M40.3,14.64c-1.33-1.54-3.15-1.92-5.05-2.31-.89-.18-1.77-.41-2.6-.78-.71-.32-1.49-.73-1.86-1.45s-1.4-.08-1.04,.61c.79,1.51,2.79,2.21,4.34,2.6,1,.25,2.03,.38,3.02,.68,.92,.28,1.72,.79,2.35,1.52,.51,.59,1.35-.27,.85-.85h0Z"/><path class="cls-3" d="M38.37,11.7c-.93-1.27-2.23-2.05-3.74-2.44-1.14-.3-3.15-.52-3.41-1.97-.06-.32-.45-.5-.74-.42-.34,.09-.48,.42-.42,.74,.28,1.57,1.98,2.25,3.34,2.59,.77,.19,1.57,.34,2.28,.72,.64,.34,1.22,.81,1.65,1.39,.19,.26,.52,.39,.82,.22,.26-.15,.41-.56,.22-.82h0Z"/><path class="cls-3" d="M34.49,5.99c-.04-1.01-.36-2.01-.94-2.84-.18-.26-.53-.4-.82-.22-.26,.16-.41,.55-.22,.82,.13,.18,.24,.37,.34,.57,.03,.05,.05,.11,.08,.16,.01,.03,.11,.2,.03,.06,.05,.09,.08,.19,.11,.29,.07,.21,.13,.42,.17,.63,0,.04,.01,.09,.02,.13,.01,.07,0,.06,0-.03,0,.03,0,.06,.01,.09,.01,.12,.02,.23,.02,.35,.01,.31,.27,.62,.6,.6s.61-.26,.6-.6h0Z"/><path class="cls-3" d="M37.86,10.24c.18-.73,.35-1.47,.43-2.22,.06-.63,.01-1.24-.08-1.86-.15-1.06-.49-2.14-1.41-2.78-.27-.19-.67-.05-.82,.22-.17,.3-.05,.64,.22,.82,.61,.42,.77,1.38,.86,2.07,.15,1.19-.06,2.29-.35,3.44-.18,.75,.97,1.07,1.16,.32h0Z"/><path class="cls-3" d="M60.89,27.89c-1.14-.38-2.31-.72-3.5-.95-.47-.09-.95-.18-1.42-.18-.73,0-1.46,.16-2.17,.32-.86,.2-.49,1.52,.36,1.32,.63-.15,1.27-.3,1.93-.27,.35,.01,.68,.08,1.05,.16,1.14,.23,2.27,.56,3.38,.92,.84,.28,1.2-1.04,.36-1.32h0Z"/><g><path class="cls-4" d="M35.15,86.31c1.95,.14,2.92,.79,2.92,1.97v.46c0,.1-.1,.2-.29,.3l-.49,.02c-.46-.31-.98-.92-1.56-1.83-.08,0-.37-.27-.87-.82,.12-.07,.22-.1,.29-.1Zm4.48,2h.09v.09c-.52,1.59-1.49,3.82-2.91,6.7h-.1c-.4,.02-.73-.53-.97-1.65v-.66c.21-.01,1.51-1.51,3.9-4.48Zm-3.31-4.69h.19c1.88-.07,2.82,.53,2.82,1.79v.46c0,.13-.07,.2-.2,.21h-.29c-.34,.02-.89-.5-1.65-1.54-.09,0-.38-.26-.88-.81v-.1Zm9.25-3.16c.42-.01,.91,.35,1.46,1.08-.07,.21-.1,.43-.1,.67,.94-.16,1.52-.3,1.75-.44,.46,.2,.69,.35,.69,.45v.18c0,.33-.13,.56-.39,.68-.24-.12-.5-.18-.78-.16l-1.56,.05v2.08l-.1,.18c.27,0,.69,.2,1.27,.62l-.3,1.8c.07,.64,.1,1.13,.1,1.5l-.2,.1h-.3c-1.21-.13-1.86-.21-1.94-.21h-.19v.48l-.1,.67c.75-.16,1.53-.38,2.34-.66,.71,.1,1.07,.25,1.07,.44-.09,.26-.25,.45-.48,.57h-.1c-.37,.02-.59,0-.68-.06l-2.24,.27c0,.12-.07,.47-.2,1.05l.29,.17c1.96-.44,3.23-.68,3.79-.7,.46-.02,.78,.12,.97,.43v.19c-.26,.29-.39,.45-.39,.48-.14,0-.49-.01-1.07-.06-1.24,.11-2.08,.17-2.53,.19,.55,.55,2.01,1.44,4.38,2.67-1.45,.81-2.26,1.21-2.43,1.22-.74,.02-1.58-.77-2.53-2.36-.39-.87-.62-1.3-.68-1.3h-.1c-.52,.93-1.07,1.7-1.65,2.33-1.04,.79-1.72,1.2-2.04,1.21,1.16-1.33,1.81-2.43,1.95-3.28-.1,0-.84,.16-2.25,.46-.32-.18-.55-.26-.68-.26v-.18c2.14-.27,3.21-.53,3.21-.78l.29-1.24c-.12,.07-.64,.18-1.55,.34-.27-.11-.46-.16-.58-.16v-.09c0-.09,.75-.28,2.24-.55l.09-1.13c-.4,.06-.79,.23-1.16,.51-.29,0-.72-.17-1.27-.52l.1-.94v-2.07c0-.09,.1-.19,.29-.3,.51-.02,.96,.09,1.36,.33,.35-.07,.62-.12,.78-.12v-.47c0-.44-.07-.65-.2-.65-.06,0-.26,.13-.58,.39-.41,.02-.8-.22-1.17-.71l.1-.94h-.1c-.19,0-.45,.08-.78,.22-.71-.18-1.07-.32-1.07-.43,1.03-.29,1.71-.44,2.04-.45v-1.69c0-.13-.1-.19-.29-.17v-.19c.96,.03,1.58,.13,1.85,.31l-.1,.67v.75l1.86-.35c-.07-.85-.1-1.38-.1-1.59,.06,0,.29-.17,.69-.5Zm-3.12,6.71c0,.4,.1,.99,.29,1.78l.49-.02c.13,0,.2-.07,.2-.2v-1.98c-.65,.14-.97,.27-.97,.41Zm.78-3.61c0,.11,.1,.52,.29,1.22,.16-.07,.65-.18,1.47-.34v-1.13l-.1-.19c-1.1,.21-1.65,.35-1.65,.43Zm.68,1.39v.09c.33-.01,.75,.22,1.27,.71l-.1,.2h.1c.13,0,.45-.21,.97-.61v-.19c-.27,.01-.73-.06-1.36-.23l-.88,.03Zm1.17,1.47v2.16c.52-.06,.78-.16,.78-.31-.06-.85-.09-1.48-.09-1.89l-.69,.03Z"/><path class="cls-4" d="M66.47,83.15h.1c.4-.02,1.08,.3,2.05,.96v.22c0,.21-.14,.31-.43,.33-.15,0-.65-.04-1.51-.15-1.42,.12-3.04,.36-4.87,.7,.36,.51,.54,.89,.54,1.13v.11c0,.35-.14,.77-.43,1.27h.21c.88-.04,1.92-.22,3.14-.54,.86,.74,1.29,1.14,1.29,1.21l-2.59,5.54c-.94,1.5-1.87,2.26-2.81,2.3l-.86,.03c-.24,0-.56-.78-.97-2.37h.1c.44,.26,.83,.38,1.19,.37h.22c1.09-.05,2.17-1.83,3.25-5.36,0-.05,.03-.26,.1-.63l-1.08-.07-1.3,.05c-1.32,2.37-2.4,3.83-3.24,4.41,0,.25-.79,.66-2.38,1.24v-.11c2.48-2.74,4.07-5.55,4.76-8.44-1.14,.04-3.01,.56-5.62,1.57-1.19-.31-1.91-.46-2.16-.45v-.21c8.79-1.63,13.19-2.62,13.19-2.98,0-.08,.04-.11,.11-.11Zm-7.05-1.97c.32-.23,.63-.41,.94-.56l1.5,.78c.16,.4,.21,.88,.13,1.44-.08,.56-.21,1.05-.38,1.46l-.41,.29c-.11,.07-.22,.08-.33,.03-.11-.05-.18-.14-.21-.27-.15-.88-.32-1.49-.52-1.83-.19-.34-.49-.62-.88-.84l-.07-.05s-.02-.01-.04-.01-.05,0-.1,.01-.12,.02-.22,.03c-.06,0-.13,.02-.21,.03,.27-.15,.54-.32,.81-.51Z"/></g></svg>