<?xml version="1.0" encoding="UTF-8"?><svg id="_層_1" xmlns="http://www.w3.org/2000/svg" viewBox="0 0 103.35 100.72"><defs><style>.cls-1{fill:#f7edd0;}.cls-2{fill:#d37460;}.cls-3{fill:#354253;}.cls-4{fill:#354152;}.cls-5{fill:#70888a;}</style></defs><g><path class="cls-4" d="M34,80.61c1.1,.49,1.65,.97,1.65,1.46-.4,.45-1.15,.86-2.25,1.21v.09c.33,.03,.49,.12,.49,.27-.06,.8-.09,1.28-.09,1.42,.9-.66,1.62-1.41,2.14-2.26l-.1-.18c.07,0,.1-.03,.1-.09,.71,.31,1.07,.68,1.07,1.09-.73,.72-1.8,1.26-3.21,1.63v.29c1.6-.23,2.67-.49,3.21-.78,1.05,.21,1.57,.38,1.57,.51v.09c-.11,.25-.34,.39-.69,.4h-.39c-1.73,.08-2.93,.19-3.61,.34v3.21l-.09,.47h.09c1.24-.21,1.86-.45,1.86-.73-.69-.92-1.21-1.75-1.56-2.49,.06-.12,.09-.25,.09-.39h.1c1.37,1.38,3.16,2.48,5.36,3.3h.19v.18l-2.25,.92h-.09l-.3-.17c-.2,.53-.3,1.41-.3,2.66v1.9c0,.34-.19,.63-.58,.87h-.29c-.41,.02-.83-.22-1.27-.71v-.09h.19v-2.46h-.09c0,.1-.06,.23-.19,.39l-.49-.08-.68,.03c-.14,.02-.21,.09-.21,.19,0,.32,.03,.79,.1,1.42,.37-.21,.63-.31,.78-.32,0,.08,.19,.2,.58,.36l-.29,.68s-.24-.03-.58-.08c-1.43,.05-2.83,.42-4.2,1.1-.31,.01-.63-.13-.97-.43l.1-1.14v-1.61c0-.63-.03-1.57-.1-2.83-.5,.29-1.18,.6-2.04,.93v-.1c1.52-1.42,2.66-2.84,3.41-4.28v-.18c-.17,0-.95,.18-2.35,.55-.84-.16-1.3-.24-1.36-.24v-.19c2.54-.43,3.88-.7,4-.81-.06-.12-.09-.22-.09-.28l.19-.1c0,.08,.17,.2,.48,.36l.58-.02c.13,0,.19-.07,.19-.19v-2.08c-.1,.07-.65,.18-1.65,.35v.09c0,.08,.1,.17,.29,.27,0-.09,.1-.18,.3-.29h.09v.66c0,.08,.23,.32,.69,.73v.09c-1.7-.12-2.54-.59-2.54-1.41l-.68,.02v-.18c.52-.02,.78-.28,.78-.78l.48-.02c.1,0,.2,.08,.3,.27,2.65-1.14,4.02-1.95,4.1-2.41-.07-.12-.1-.21-.1-.28,.07,0,.1-.04,.1-.1Zm-2.64,5.76c.19,.31,.29,.56,.29,.75v.37c0,.59-.78,1.44-2.34,2.54,.69-.02,1.11,.06,1.27,.24h.48c0-.22,.19-.35,.58-.41l.19-.3v-3.21l-.48,.02Zm-.97,4.09l-.1,.48v.56c0,.31,.03,.79,.1,1.42,.7-.15,1.22-.23,1.56-.25v-1.32s-.13-.2-.39-.46l-.19,.1h-.19c-.45-.35-.71-.53-.78-.53Zm0,2.84v.09c0,.14,.1,.71,.29,1.69h.3c.65-.04,.97-.27,.97-.71v-1.14h-.1c-.06,0-.48,.09-1.26,.25,0-.13-.06-.19-.19-.19Zm3.31-2.86c-.26,.5-.39,.97-.39,1.42l.09,.38h.1c.2,0,.46-.11,.78-.32,.16,0,.42,.08,.78,.26v-2.08c-.91,.18-1.36,.29-1.36,.34Z"/><path class="cls-4" d="M56.6,83.59c.59,.21,1.16,.64,1.7,1.29,0,.12-.15,.27-.45,.45-.86-.21-1.35-.31-1.48-.31-3.18,.18-5.68,.47-7.51,.86v.11c.4,.05,.78,.3,1.14,.76v.21l-.11,.23c.4,0,1.19,.05,2.39,.18,1.71-.02,2.92-.44,3.63-1.25,.33,0,.98,.35,1.94,1.07-.38,1.21-.56,2.57-.56,4.08v.34c0,.45-.3,.82-.91,1.11-.14,0-.63-.32-1.48-.97-1.32,.02-2.53,.37-3.64,1.04-.54-.17-.96-.38-1.25-.64,.23-1.23,.34-2.33,.34-3.31v-.33c-.15-.66-.34-.98-.56-.98,0,.79-.76,2.75-2.28,5.87-2.01,2.22-3.3,3.34-3.87,3.35,1.8-1.74,3.16-4.91,4.09-9.53,.08-.08,.11-.37,.11-.88v-.22c-.44,.08-1.16,.27-2.15,.57l-1.83-.31v-.22c7.9-1.3,12.14-2.16,12.74-2.58Zm-4.67,4.79v1.21c0,.39,.04,1.01,.12,1.88h.11c.32-.01,1.34-.17,3.07-.48v-3.42c-1.93,.29-3.04,.56-3.3,.81Z"/><path class="cls-4" d="M68.84,88.42h-.09c.2,.31,.3,.55,.3,.74-.13,.7-.46,1.06-.97,1.08-.65-1.07-.97-1.69-.97-1.86h-.09v1.99c0,3.09-.23,4.64-.69,4.65l-.79,.03c-.17,0-.4-.4-.68-1.2,.39-.15,.58-.41,.58-.78v-3.12c-1.61,1.7-2.75,2.56-3.42,2.58v-.1c1.49-1.79,2.43-3.46,2.83-5.01l-.1-.56h-.2l-.3,.21h-.09l-.97-.24v-.19c1.5-.33,2.25-.55,2.25-.65v-2.75c0-.21-.1-.42-.3-.65l.2-.1c.5-.01,1.06,.22,1.67,.7l-.1,1.14v1.42h.1c.18,0,.5-.18,.96-.51,.25,.12,.59,.23,1.03,.33l.06,.47c-.25,.21-.55,.32-.89,.34l-1.26,.04v.66c.32,.09,.84,.42,1.56,.98,.03-.03,.07-.06,.1-.09l.28,.46Zm-3.99-1.66c.32,.4,.48,.65,.48,.75h.1v-.85h-.1l-.48,.1Zm4.75,2.76c-.05,.08-.13,.12-.26,.11-.12,0-.24-.05-.36-.12s-.19-.15-.23-.25c-.05-.16-.11-.33-.19-.49s-.16-.3-.24-.42c-.08-.11-.13-.17-.15-.16,.13-.05,.33-.16,.61-.31v-.93c0-.41,0-.79,0-1.13v-.53c0-.14-.02-.27-.07-.37s-.1-.18-.16-.24-.1-.1-.13-.12h-.02c.06-.04,.16-.08,.3-.13,.14-.04,.28-.08,.42-.12,.14-.03,.24-.05,.29-.04,.1,.02,.18,.09,.25,.2,.21-.22,.38-.47,.54-.76,.15-.29,.27-.55,.36-.79,.09-.24,.13-.41,.12-.5-.01-.09-.06-.2-.15-.32-.08-.12-.16-.22-.22-.3-.02-.03-.03-.04-.04-.05,0-.03,.13-.01,.38,.04,.26,.05,.56,.16,.92,.3,.36,.15,.69,.35,.99,.62,0,.05-.04,.13-.1,.24-.06,.11-.13,.23-.21,.35-.08,.12-.16,.21-.25,.28-.4,.32-.8,.56-1.2,.73s-.75,.27-1.04,.33c.01,.03,.03,.06,.05,.09,.05,.1,.1,.18,.16,.26,.06,.08,.12,.13,.18,.15-.12,.31-.19,.64-.23,1.01-.03,.37-.05,.73-.04,1.08,.61-.35,1.11-.64,1.52-.88,0-.18-.01-.35-.02-.52,0-.17-.02-.31-.03-.42,0-.11-.02-.18-.03-.19,0-.01-.03-.04-.08-.08s-.1-.08-.15-.12c-.06-.05-.1-.08-.13-.11s-.05-.04-.05-.05c.07-.03,.17-.06,.31-.1,.14-.04,.27-.07,.4-.09,.13-.02,.23-.04,.29-.04,.09,0,.17,.04,.24,.11,.07,.07,.14,.14,.2,.23,.05,.08,.11,.14,.16,.2,.05,.06,.12,.1,.19,.12-.06,.36-.1,.7-.1,1.03,0,.33,0,.64,.01,.93,.02,.37,.02,.67-.01,.91,0,0-.04,.04-.1,.09-.06,.05-.12,.12-.2,.2-.08,.07-.17,.16-.29,.28-.2-.03-.34-.15-.43-.38-.08-.22-.15-.45-.18-.68-.02-.1-.04-.19-.05-.25-.01-.06-.03-.1-.06-.11,.02,0,.05,0,.08,0h.02s-.04,0-.06,0h-.05s-.08-.02-.13-.03c.06,0,.11-.02,.15-.04,.04-.02,.07-.05,.1-.11,0-.05,0-.19,0-.41-.04,.06-.08,.12-.13,.18-.26,.36-.54,.76-.86,1.23-.31,.46-.59,.92-.83,1.39Zm6.2-.82s.08-.05,.12-.07c.04-.02,.08-.03,.13-.03,.09,.03,.22,.13,.38,.31s.34,.38,.52,.59c.14,.16,.26,.31,.38,.44,.12,.13,.21,.21,.27,.25-.22,.45-.4,1.02-.55,1.7s-.27,1.31-.36,1.88c-.06,.37-.11,.65-.15,.83,0,0-.03,.01-.07,.05-.04,.03-.1,.07-.16,.11s-.14,.09-.21,.13c-.11,.08-.21,.14-.29,.19-.09,.05-.13,.08-.14,.08-.18-.03-.3-.12-.37-.26-.07-.14-.11-.28-.13-.42-.01-.06-.03-.11-.04-.15-.01-.04-.03-.06-.05-.07,.01,0,.03,0,.06,.01,0,0,.02,0,.03,0-.02,0-.04,0-.06,0-.01,0-.03-.01-.04-.01-.04-.02-.08-.04-.12-.05,.06,0,.11,0,.15-.03,.04-.02,.07-.06,.11-.12v-.02c-.3-.02-.66-.02-1.07,0-.41,.02-.77,.04-1.06,.08l-.06,.07c-.06,0-.12-.02-.16-.04-.01,0-.02,0-.03,.01-.34,.07-.64,.16-.91,.29-.26,.12-.47,.23-.63,.33-.08,.05-.14,.08-.18,.1l-1.13-.49c.11,0,.22-.01,.33-.02-.02-.08-.04-.19-.05-.33-.01-.14-.01-.26,0-.35,0-.07-.06-.29-.16-.66-.1-.37-.22-.79-.36-1.26-.14-.47-.26-.88-.37-1.24s-.17-.55-.19-.59c-.02-.04,0-.08,.06-.1,.06-.03,.14-.03,.25-.02,.12,.01,.24,.04,.37,.08,.53-.03,1.2-.12,2-.26,.81-.14,1.58-.28,2.3-.44,.72-.15,1.22-.27,1.48-.36h.02c.07-.04,.14-.08,.18-.13Zm-3.46,1.52c-.16,.02-.29,.04-.39,.06-.35,.06-.61,.13-.79,.2-.18,.07-.32,.14-.42,.2-.04,.02-.07,.04-.09,.05,.04,.38,.12,.82,.24,1.34,.49-.06,.99-.17,1.49-.34,0-.31-.01-.61-.02-.89,0-.28,0-.49-.01-.63Zm-1.42,2.03c.18,.76,.37,1.39,.58,1.89,.34-.08,.68-.17,1-.28-.06-.12-.11-.23-.14-.33-.02-.06-.04-.11-.06-.15-.02-.04-.04-.06-.07-.06h0s.04,0,.07,0h.03s-.04,0-.06,0c-.01,0-.03,0-.05-.01-.04-.01-.08-.03-.13-.04,.07,0,.12-.01,.16-.03,.04-.02,.07-.06,.1-.12,0-.03,.01-.14,.01-.31v-.65c-.25,.08-.44,.15-.57,.22-.14,.07-.24,.14-.32,.19l-.55-.32Zm5.88-8.77s.07,0,.18,.05c.11,.04,.25,.09,.41,.16,.16,.07,.32,.15,.48,.25,.16,.09,.28,.19,.37,.29-.12,.17-.23,.5-.35,.98-.09,.33-.2,.7-.33,1.11-.13,.41-.32,.84-.55,1.28-.02,.04-.09,.09-.19,.18-.11,.09-.23,.18-.37,.28-.14,.1-.26,.18-.38,.26-.11,.07-.18,.12-.21,.13-.15,.03-.28-.06-.38-.27-.11-.21-.2-.47-.29-.75-.07-.19-.13-.37-.2-.52-.06-.16-.13-.27-.21-.33,.04,0,.1,0,.16,.03,.07,.02,.15,.06,.24,.1,.12,.05,.24,.1,.36,.14s.23,.05,.31,.02c.08-.09,.21-.35,.39-.78,.18-.43,.26-1.03,.25-1.78-.16,.03-.37,.09-.63,.15-.26,.07-.49,.13-.7,.19-.05,.53-.16,1.06-.35,1.6s-.44,1.01-.78,1.4c-.33,.39-.75,.64-1.24,.74,.33-.45,.61-.99,.83-1.61,.22-.62,.37-1.23,.45-1.83-.24,.08-.43,.13-.57,.17-.14,.04-.25,.06-.33,.08-.08,.01-.16,.02-.23,.02l-.44-.8c.17,.02,.47,0,.9-.08,.43-.07,.88-.17,1.37-.28s.9-.21,1.26-.29c.35-.09,.54-.13,.57-.15h.02s.05-.05,.08-.07c.03-.02,.07-.04,.11-.05Zm-2.52,9.89c.25-.05,.44-.1,.57-.15,.13-.05,.22-.09,.29-.13,.05-.03,.09-.06,.13-.07,.03-.5,.07-1.05,.1-1.65,.03-.6,.06-1.13,.09-1.58-.79,.1-1.46,.19-2.01,.26,.15,.13,.29,.22,.42,.28-.14,.32-.22,.66-.27,1,.18-.05,.32-.09,.42-.14,.09-.05,.16-.09,.21-.13,.03-.03,.06-.05,.09-.07,.03-.02,.06-.03,.1-.04,.05,0,.12,.02,.18,.05,.07,.04,.13,.08,.2,.13,.06,.05,.14,.11,.24,.19v.3s0,.03-.02,.06c-.01,.03-.02,.06-.03,.09,0,.03-.02,.05-.03,.07-.01,.03-.03,.07-.04,.09-.02,.05-.04,.08-.07,.11-.02,.03-.07,.04-.12,.04s-.15-.02-.26-.06c-.08-.03-.21-.04-.37-.05-.17,0-.35,0-.54,0,0,.26,0,.51,0,.75,.01,.33,0,.6-.02,.82,.29-.08,.53-.14,.72-.17Z"/></g><path class="cls-5" d="M43.95,9.18c.89,2.03,1.5,4.21,1.78,6.41,.24,1.84,.54,4.08-.63,5.66-1.35,1.83,1.71,3.59,3.04,1.78,1.55-2.1,1.4-4.95,1.11-7.42-.34-2.87-1.11-5.57-2.27-8.21-.91-2.07-3.94-.28-3.04,1.78h0Z"/><path class="cls-5" d="M42.97,12.23c-.08-.76-.53-1.35-1.11-1.69-.24-.35-.62-.62-1.17-.71-4.35-.71-9.73-2.13-14.1-1.13-3.87,.89-6.22,3.98-9.04,6.69-5.59,5.37-12.6,12.43-10.62,20.91,.22,.96,1.1,1.4,1.98,1.51,3.77,.46,7.61-.31,10.97-2.06,3.49-1.82,5.76-4.72,8.12-7.75,1.09-1.4,2.25-2.83,3.7-3.86,1.62-1.15,3.5-1.88,5.23-2.84,3.28-1.82,6.46-5,6.03-9.06Z"/><path class="cls-5" d="M67.6,56.51c-.02-.18-.05-.36-.07-.55h0c-.06-.43-.12-.85-.18-1.27,0-1.86-.2-3.76-.53-5.64,.22-.31,.33-.69,.28-1.13-.39-2.93-1.26-5.65-2.8-8.18-.26-.43-.39-1.47-.8-1.61-2.51-6.72-6.19-12.33-10.52-18.13-.67-.9-1.77-1.33-2.81-.74-.13,.07-.25,.17-.36,.28-.45-.06-.9-.1-1.36-.11-.17-.73-.71-1.38-1.45-1.55-1.09-.25-2.22,.33-2.53,1.44l-.18,.63c-1.44,.38-2.83,.95-4.14,1.67-2.63,.44-4.48,1.91-5.78,3.88-1.44,1.45-2.59,3.16-3.4,5.04-1.08,1.71-2.02,3.51-2.84,5.35-1.88,4.18-3.7,8.65-4.37,13.21-.61,4.21-.07,8.65,2.56,12.12,2.57,3.4,6.63,5.97,10.38,7.89,4.17,2.14,8.68,3.02,13.35,2.59,4.2-.38,8.45-1.45,11.77-4.17,3.2-2.61,4.75-5.96,5.3-9.59,.36-.33,.57-.82,.49-1.44Zm-23.97,4.55s.03,.05,.05,.08h-.06v-.08Zm6.19-.15s.02,.05,.02,.07h-.09s.04-.05,.06-.07Z"/><path class="cls-5" d="M94.19,33.96c-.88-2.46-2.06-4.78-3.97-6.73-.5-.51-1.28-.96-1.66-1.55-.36-.56-.59-1.27-.94-1.86-.85-1.45-1.46-3.07-2.5-4.4-1.87-2.37-4.61-2.24-7.38-2.27-1.32-.01-2.54-.08-3.81-.33s-2.61-.14-3.81,.33c-1.11,.43-2.1,1.17-2.84,2.09-.33,.41-.47,.85-.73,1.28-.32,.53-.9,.95-1.32,1.42-1.63,1.81-2.93,3.89-4.15,6-.63,1.08-2.8,3.87-.92,4.9,.58,.32,1.34,.1,1.84-.34s.81-1.05,1.12-1.64c1.19-2.27,2.62-4.41,4.26-6.37,1.41-1.7,3.1-3.33,5.24-3.88,1.33-.34,2.73-.23,4.1-.12,1.48,.12,3,.26,4.33,.92,1.73,.87,2.91,2.54,3.93,4.2,3.69,5.97,6.35,12.58,7.81,19.44-.44,5.11-1.68,10.16-3.68,14.89-.86,2.04-1.91,4.08-3.65,5.44-2.05,1.61-4.76,2.04-7.34,2.41l-10.01-3.98c-.98-.39-2.03-.79-3.06-.58s-1.95,1.3-1.58,2.28c.42,1.09,1.88,1.19,3.05,1.32,4.01,.46,7.29,3.49,11.23,4.33,3.98,.86,8.23-.69,11.25-3.42s4.93-6.51,6.1-10.41c1.05-3.54,1.53-7.24,1.44-10.93-.07-2.68-.28-5.38-.99-7.97-.41-1.51-.83-3.02-1.36-4.48Z"/><path class="cls-2" d="M85.9,26.89c-1.13-2.3-2.8-4.36-5.15-5.49-2.44-1.17-5.03-1.53-7.7-1.82-1.34-.15-2.67,.96-3.15,2.17-.06,.05-.12,.1-.19,.16-2.92,2.76-5.25,5.93-7.7,9.09-.32,.41-.65,.85-.72,1.36-.19,1.32,1.22,2.32,1.53,3.52,.28,1.08,.52,2.17,.86,3.23s.91,1.81,1.36,2.78c1,2.17,1.87,4.4,2.45,6.72,.68,2.71,.95,5.55,.53,8.31-.18,1.21-.59,2.36-.92,3.53-.23,.83-.78,2.09,0,2.78,.38,.34,.9,.48,1.4,.61,1.88,.49,3.75,1.06,5.59,1.69,.92,.32,1.84,.65,2.75,1,.76,.29,1.48,.68,2.3,.71,2.48,.09,5.11-1.07,6.71-2.81,2.06-2.25,3.06-5.4,4.3-8.18,.59-1.33,1.08-2.72,1.4-4.14,.78-3.49,.6-7.12-.13-10.6-1.07-5.12-3.23-9.95-5.53-14.62Zm-7.04,2.39c0-.06,0-.12-.03-.14,.05,.06,.05,.11,.03,.14Z"/><path class="cls-5" d="M85.39,53.03s.04,.19,.02,0,0-.06-.01-.02c0,.12,.06-.27,.01-.11s.11-.19,.04-.09c-.02,.02-.04,.06-.05,.08-.05,.11,.17-.2,.05-.08-.09,.1,.08-.06,.1-.07-.14,.1,.24-.08,.07-.03-.51,.15-.89,.73-.72,1.26s.71,.88,1.26,.72c.9-.27,1.53-1.29,1.2-2.21-.18-.51-.71-.9-1.26-.72-.5,.16-.91,.72-.72,1.26h0Z"/><path class="cls-5" d="M82.44,45.91c.36,.41,.36,.93,.18,1.42-.19,.52,.22,1.13,.72,1.26,.58,.16,1.07-.2,1.26-.72,.44-1.19,.11-2.48-.71-3.42-.37-.42-1.08-.37-1.45,0-.42,.42-.37,1.03,0,1.45h0Z"/><path class="cls-5" d="M80.42,39.23c.29,.24,.55,.69,.14,.99-.45,.33-.67,.89-.37,1.41,.26,.44,.96,.7,1.41,.37,1.38-1.01,1.7-3.06,.27-4.22-.43-.35-1.03-.42-1.45,0-.36,.36-.43,1.1,0,1.45h0Z"/><path class="cls-5" d="M70.4,31.92c-.96,.61-1.45,1.79-1.11,2.9,.16,.53,.72,.87,1.26,.72s.88-.73,.72-1.26c-.02-.06-.04-.12-.05-.18,.01,.12,.02,.11,.01-.01,0-.12,0-.13,0-.01,.01-.06,.03-.12,.05-.18-.07,.24,.16-.24,.01-.04,.04-.05,.08-.09,.13-.14-.09,.06-.08,.06,.02,0,.47-.3,.66-.91,.37-1.41-.27-.47-.94-.67-1.41-.37h0Z"/><path class="cls-5" d="M66.76,40.03c-.17,.12-.35,.25-.48,.41-.2,.25-.31,.45-.42,.75-.09,.24-.02,.58,.1,.79s.37,.42,.61,.47c.26,.06,.56,.05,.79-.1s.38-.35,.47-.61c0-.02,.02-.04,.02-.06l-.1,.25c.04-.08,.08-.16,.13-.23l-.16,.21c.06-.08,.13-.15,.21-.21l-.21,.16s.04-.03,.06-.04c.22-.15,.4-.35,.47-.61,.07-.25,.04-.57-.1-.79s-.35-.41-.61-.47-.57-.05-.79,.1h0Z"/><path class="cls-5" d="M82.72,58.63s-.04,.07-.06,.1c-.08,.17,.11-.11,.04-.04-.03,.02-.06,.06-.08,.08-.06,.08,.21-.13,.05-.03-.03,.02-.07,.04-.1,.06-.13,.08,.05-.04,.08-.03-.02,0-.12,.03-.14,.04-.11,.04,.27-.02,.07-.01-.54,.03-1.05,.45-1.03,1.03,.02,.53,.45,1.06,1.03,1.03,.79-.05,1.55-.46,1.92-1.19,.24-.48,.14-1.14-.37-1.41-.47-.25-1.15-.14-1.41,.37h0Z"/><path class="cls-5" d="M76.78,60.54s-.1,.02-.15,.03c.15-.02,.16-.02,.05-.02h-.08c-.12-.01-.1,0,.05,0,0,0-.22-.05-.22-.06,.13,.06,.14,.06,.04,.01-.04-.02-.09-.05-.13-.08-.45-.3-1.16-.1-1.41,.37-.27,.52-.11,1.09,.37,1.41,.59,.39,1.34,.48,2.02,.32,.52-.13,.89-.75,.72-1.26s-.71-.86-1.26-.72h0Z"/><g><path class="cls-1" d="M8.03,35.4c.9-2.02,2.96-2.99,4.62-4.3,.89-.7,1.51-1.6,2.35-2.31s1.52-1.64,1.92-2.68c.09-.23,.13-.5,.28-.7,.17-.23,.44-.34,.58-.61,.07-.13,.27-1.47-.07-1.4,1.03-.21,1.85-.57,2.43-1.43,.54-.8,1.2-1.53,1.94-2.15,.48-.4,1-.71,1.52-1.05,.43-.28,.75-.68,1.12-1.05,4.52-4.56,11.17-6.57,17.46-5.27,1.29,.27,1.84-1.72,.55-1.98-3.09-.64-6.2-.58-9.14,.09-.03-.03-.05-.06-.08-.09-.1-.09-.2-.18-.31-.27-1.28-1.06-2.83-1.79-4.48-2.06-.67-.11-1.25-.18-1.89,.06-.71,.26-1.4,.57-2.06,.93-.2,.11-.4,.22-.55,.38s-.16,.3-.25,.47c-.08,.16-.2,.27-.34,.4-.3,.27-.63,.57-.99,.77,.72-.41,1.44-.53,2.25-.67,.72-.12,1.39-.36,2.13-.39,1.47-.06,2.95,.35,4.18,1.16-1.57,.56-3.06,1.29-4.46,2.2-3.23-.4-6.4,.27-9.16,2.06-1.11,.72-1.13,2.32-.02,1.6,1.7-1.11,5.23-1.19,7.2-1.32-.23,.02-5.56,4.29-6.6,4.89-1.05,.61-2.35,.52-3.56,.37-1.19-.15-2.39-.21-3.57,.04-.55,.12-.74,.39-1.05,.85s3.79,1.29,5.18,1.49c.14,.02,.38,0,.46,.14,.08,.13,0,.6,0,.75-.04,.62-.36,1.2-.77,1.65-.52,.57-1.19,.97-1.81,1.42-1.51,1.09-2.79,2.47-4.01,3.88-.67,.78-1.35,1.61-1.55,2.62-.12,.6-.07,1.23,.12,1.81,.15-.11,.31-.21,.46-.31"/><path class="cls-1" d="M56.71,24.71c-.92-1.54-1.75-3.25-2.88-4.64-.24-.3-.53-.56-.85-.77-1.07-.72-2.71-1.01-3.72-.03-.25,.24-.43,.54-.55,.86-.07,.2-.12,.4-.16,.61-.06,.33-.02,.34-.37,.38-1.24,.15-2.6-.33-3.79-.61-.44-.1-.93-.19-1.31,.04-.42,.26-.54,.87-.34,1.33s.66,.76,1.14,.9,.99,.13,1.49,.12c1.05-.02,2.13-.06,3.15-.37,1.02-.31,1.85-1.11,2.99-.92,.74,.13,1.3,.57,1.67,1.2,.48,.82,.98,1.63,1.47,2.45,.79,1.31,1.57,2.63,2.36,3.94,.34,.56,.62,1.28,1.12,1.7s1.1,.78,1.73,1c-.28-.1-.38-1.08-.31-1.31,.11-.41,.33-.61,.05-1.07-.96-1.61-1.93-3.22-2.89-4.82Z"/><path class="cls-1" d="M71.41,31.2c-.77-.42-1.73-.4-2.49,.03-.77,.44-1.23,1.29-1.23,2.17,0,.48,.14,.98,.41,1.38,.17,.25,.53,.39,.8,.21,.25-.16,.39-.53,.21-.8-.03-.04-.17-.23-.15-.27,.03,.08,.04,.09,.01,.03,0-.02-.02-.05-.03-.07-.01-.04-.02-.08-.03-.11-.01-.05-.02-.1-.03-.15h0v-.04c-.01-.09-.01-.18,0-.28,0-.03,0-.05,0-.08v-.02s.02-.09,.02-.1c.02-.09,.05-.17,.08-.25,0-.02,.02-.03,.02-.05,.02-.05,.05-.09,.08-.14,.02-.04,.05-.11,.09-.13-.05,.07-.06,.08-.02,.03,.01-.01,.03-.03,.04-.04,.03-.03,.06-.07,.1-.1,.02-.02,.04-.03,.06-.05,.05-.04,.04-.03-.03,.02,.01-.05,.2-.13,.25-.15,.02-.01,.1-.07,.12-.06-.08,.03-.09,.04-.03,.02,.02,0,.05-.02,.07-.03,.09-.03,.19-.05,.28-.07h.02c.05,0,.1,0,.16-.01,.05,0,.1,0,.16,0,.02,0,.04,0,.06,0h.01s.05,.01,.08,.02c.05,.01,.1,.02,.15,.04,.02,0,.05,.02,.07,.02,.06,.02,.05,.02-.03-.02,.02,0,.12,.06,.14,.07,.27,.15,.65,.08,.8-.21,.14-.27,.08-.65-.21-.8Zm-2.54,2.05s0-.02,0-.04v.04Z"/><path class="cls-1" d="M81.91,38.15s.05,.04,.08,.05c.04,.03,.08,.07,.12,.11,.04,.04,.09,.08,.13,.13,.02,.02,.04,.04,.06,.07h0s.03,.04,.03,.05c.05,.08,.11,.16,.15,.24,.02,.05,.1,.25,.04,.07,.02,.06,.05,.12,.07,.18,.02,.06,.03,.11,.05,.17,0,.03,.01,.05,.02,.08,0,.03,.01,.05,.01,.05,0,.05,0,.1,0,.11,0,.07,0,.13,0,.2-.02,.31,.29,.6,.59,.59,.34-.02,.56-.26,.59-.59,.1-1.31-.89-2.62-2.18-2.88-.3-.06-.65,.09-.72,.41-.07,.29,.09,.66,.41,.72,.06,.01,.13,.03,.19,.05,.03,0,.06,.02,.09,.03,.01,0,.05,.02,.06,.02,.02,.01,.05,.02,.07,.03,.06,.03,.11,.06,.17,.1Z"/><path class="cls-1" d="M82.3,38.5c.03,.06,.04,.07,.03,.05-.01-.02-.02-.03-.03-.05h0Z"/><path class="cls-1" d="M67.39,38.53c-.3-.04-.58-.04-.88,.04-.23,.06-.46,.17-.65,.31-.43,.31-.78,.76-.86,1.3-.02,.16-.03,.31,.06,.45,.07,.12,.21,.24,.35,.27,.15,.03,.32,.03,.45-.06,.12-.08,.25-.2,.27-.35,.01-.09,.04-.17,.07-.25,.03-.07,.07-.13,.11-.19,.06-.07,.12-.13,.18-.18,.07-.05,.15-.09,.23-.13,.07-.03,.15-.05,.23-.06,.09,0,.18,0,.27,0l-.13-.02c.16,.02,.3,.03,.45-.06,.12-.07,.24-.21,.27-.35,.03-.15,.03-.32-.06-.45-.08-.12-.2-.25-.35-.27Z"/><path class="cls-1" d="M85.94,50.55c-.3,.09-.51,.42-.41,.72,.1,.3,.41,.5,.72,.41,.05-.02,.11-.03,.16-.04,.03,0,.06,0,.09,0,.06,0,.11,0,.17,0,.02,0,.04,0,.06,.01,.06,.01,.12,.03,.17,.05,.03,0,.05,.02,.08,.03,.1,.06,.21,.11,.31,.18h-.02s.05,.02,.07,.04c.04,.04,.09,.08,.13,.12,.02,.02,.04,.05,.07,.08,.03,.05,.06,.09,.09,.14,.03,.05,.05,.09,.07,.14,0,.02,.02,.04,.02,.07,.02,.06,.03,.11,.04,.17h0s0,.05,0,.08c.01,.31,.26,.6,.59,.59,.31-.01,.6-.26,.59-.59-.06-1.46-1.59-2.61-3.01-2.2Z"/><path class="cls-1" d="M87.3,51.91h0c.08,.08,.05,.03,0,0Z"/><path class="cls-1" d="M83.13,56.65c-.29-.09-.65,.11-.72,.41-.07,.32,.1,.62,.41,.72,.02,0,.05,.02,.07,.02,.05,.02,.09,.05,.14,.07,.02,.01,.04,.03,.06,.04,.04,.04,.08,.07,.11,.1,.04,.04,.07,.08,.1,.12,.01,.02,.03,.04,.04,.06,.03,.05,.06,.1,.08,.15,.01,.02,.02,.04,.03,.07,.04,.1,.07,.21,.09,.31v.06c.01,.06,.01,.12,.01,.18,0,.03,0,.05,0,.08h0v.04s-.02,.06-.03,.09c-.01,.05-.03,.1-.05,.15-.01,.03-.03,.05-.04,.08-.15,.27-.07,.65,.21,.8,.28,.15,.64,.07,.8-.21,.7-1.23,.02-2.92-1.33-3.34Zm-.04,1.28h0c.06,.04,.02,.02,0,0Zm.2,.2h0s-.05-.06,0,0Z"/><path class="cls-1" d="M75.46,60.49h0c-.01,.11,0,.05,0,0Z"/><path class="cls-1" d="M75.47,60.46h0Z"/><polygon class="cls-1" points="75.53 60.39 75.54 60.38 75.54 60.39 75.53 60.39"/><path class="cls-1" d="M78.03,60.13l-1.17-.22c-.24-.45-.75-.78-1.26-.75-.34,.02-.66,.16-.91,.39-.26,.25-.38,.56-.42,.91-.04,.31,.3,.6,.59,.59,.33-.01,.53-.24,.58-.54,0,0,0,0,0,0,0-.01,0-.02,0-.04v.01s.01-.02,.01-.02h0l.03-.03s.01-.02,0,0c.01-.02,.03-.03,.04-.04-.02,.02-.06,.04,0,0h.01l.04-.03s.05,0,.06,0c0,0,.02,0,.03,0h.04v.03s.05,.02,.07,.03c.01,.01,.02,.03,.03,.04h0s.02,.04,.03,.06c0,.03,.01,.08,.01,.09,.03,.18,.23,.38,.41,.41l1.45,.27c.3,.06,.65-.08,.72-.41,.07-.29-.09-.66-.41-.72Zm-2.37,.21h-.02s0,0,.02,0Zm-.06,0h0s.02,0,.04,0h0s-.04,0-.05,0Zm.06,0h0Zm.1,.04s.02,0,.03,.02l-.03-.02Zm.08,.09s0,.01,.01,.03v-.03Z"/><path class="cls-1" d="M75.48,60.46s.01-.02,.02-.03h0v.03Z"/><polygon class="cls-1" points="75.47 60.46 75.47 60.46 75.47 60.46 75.47 60.46"/><path class="cls-1" d="M75.46,60.49s0-.02,.01-.02v.02h-.01Z"/><polygon class="cls-1" points="75.45 60.51 75.45 60.52 75.45 60.51 75.45 60.5 75.45 60.51"/><path class="cls-1" d="M82.47,43.49c-.31,.02-.6,.26-.59,.59,.01,.3,.26,.61,.59,.59,.07,0,.14,0,.22,0,.02,0,.04,0,.07,0,.13,.03,.25,.06,.37,.1h0s.06,.03,.08,.04c.05,.03,.11,.06,.16,.09,.03,.02,.06,.04,.1,.07h0s.07,.06,.05,.05c.03,.02,.06,.05,.08,.07,.05,.05,.1,.1,.14,.15,.02,.02,.03,.04,.05,.06h0c.08,.12,.14,.23,.2,.35,0,.03,.02,.05,.03,.08,.02,.06,.04,.13,.05,.19,0,.03,.01,.05,.02,.08,0,.07,0,.14,0,.21,0,.31,.27,.6,.59,.59,.32-.01,.58-.26,.59-.59,.03-1.47-1.33-2.81-2.81-2.72Z"/><path class="cls-1" d="M83.47,44.97s.05,.04,.05,.05c-.02-.02-.03-.03-.05-.05h0Z"/><path class="cls-1" d="M33.14,30.62c-.42,.18-.8,.54-1.08,.89-1.65,2.02-2.35,4.61-3.44,6.95-.76,1.64-1.73,3.2-2.2,4.94-.28,1.05-.36,2.18-.09,3.24,.21,.85,.96,2.59,2.14,2.09,.62-.26,.8-1.25,.47-1.78-.21-.35-.52-.44-.58-.93-.05-.38,.05-.79,.17-1.14,.27-.77,.68-1.3,.83-2.12,.36-1.9,1.07-3.73,2.09-5.38,.55-.89,1.17-1.54,1.45-2.54,.24-.86,.56-1.79,1.43-2.19,.79-.36,.75-1.32,.14-1.84-.44-.37-.9-.37-1.32-.19Z"/><path class="cls-1" d="M29.25,56.62c-.45-.76-.79-1.59-.98-2.56-.1-.48-.2-1.01-.13-1.49,.06-.42,.24-.61-.06-.99-.5-.63-1.54-.56-2,.06-2.62,3.53,.59,7.62,3.37,9.82,.53,.42,1.18,.83,1.84,.68,1.54-.35,.79-2.11,.09-2.84-.83-.87-1.57-1.72-2.14-2.68Z"/><path class="cls-1" d="M46.42,9.12c-.07-.31-.12-.64-.13-.98,0-.7,.3-1.52-.63-1.75-1.31-.32-2.35,.84-1.99,2.14,.21,.77,.76,1.42,1.01,2.19,.32,.99,.36,1.99,.25,3.02-.14,1.31,1.92,1.3,2.06,0,.1-.95,.08-1.99-.11-2.93-.12-.59-.33-1.13-.46-1.69Z"/><path class="cls-1" d="M81.44,18.26c-1.1-.36-2.28,.38-3.39,.58-1.22,.23-2.39,.09-3.59-.1-1.26-.2-2.65-.45-3.86,.11-1.25,.57-2.07,1.72-3.02,2.65-.08,.08-.16,.15-.24,.22-.85,.74-1.91,1.25-2.86,1.85,.08-.51,.68-1.21,.95-1.67,.19-.32,.26-.45,.27-.8,0-.29,.06-.54,.25-.77,1.15-1.39,2.41-2.83,4.13-3.5,1.91-.75,3.74-.18,5.68,.04,2.07,.23,3.97-1,6.01-.62,2.48,.46,3.51,3.61,3.97,5.72,0,0-3.12-3.33-4.3-3.72Z"/><path class="cls-1" d="M75.89,22.2c1.17,.61,2.21-1.16,1.04-1.78-3.29-1.71-6.65,.11-8.87,2.66-1.67,1.92-3.2,3.97-4.7,6.02-.75,1.03-1.5,2.06-2.26,3.09-.21,.28-1.05,1.12-.99,1.44,.08,.38,1.1,.69,1.42,.75,.48,.09,.53-.06,.81-.43s.55-.73,.83-1.1c.57-.75,1.14-1.51,1.7-2.26,1.12-1.49,2.24-2.97,3.37-4.45,1.7-2.24,4.46-5.61,7.65-3.95Z"/></g><path class="cls-3" d="M63.49,66.96c6.47-.16,10.65,4.94,17.18,4.57,3.83-.22,7.42-1.84,10.08-4.59,6.53-6.74,7.73-18.23,5.91-26.99-1.36-6.57-5.19-11.16-8.59-16.74-1.39-2.27-3.41-7.16-6.66-7.3-.57-.02-1.13,.36-1.68,.48-2.65,.57-3.91-.48-6.4-.64-1.86-.12-2.92,.07-4.4,1.14-2.11,1.53-3.65,4.06-5.3,6.05-1.93,2.32-3.85,4.29-4.73,7.2-.28,.92,1.15,1.31,1.43,.39,.9-2.98,3.51-5.54,5.46-7.89,2.72-3.27,4.68-5.19,9.46-4.73,3.09,.3,6.33-.85,8.75,1.61,2.77,2.81,4.97,7.49,7.13,10.79,3.01,4.59,4.57,9.99,4.82,15.46,.33,7.4-1.68,16.83-7.88,21.54-4.8,3.65-10.19,3.27-15.17,.53-3.01-1.65-5.94-2.45-9.4-2.36-.95,.02-.96,1.51,0,1.48h0Z"/><path class="cls-3" d="M43.88,19.39c-6.48,.92-11.39,4.73-14.13,10.59-2.93,6.26-7.74,13.98-7.52,21.12,.41,13.34,15.76,23,28.18,21.4,6.17-.79,13.68-3.84,16.75-9.59s1.57-12.93-.19-18.77c-1.1-3.64-2.76-6.66-4.67-9.91-2.2-3.73-3.76-7.77-5.91-11.52-.92-1.6-2.32-4.79-4.61-4.77-3.03,.02-2.4,4.24-7.32,1.53-.84-.46-1.59,.82-.75,1.28,2.82,1.55,4.27,.6,6.82-.34,3.4-1.24,4.79,3.34,6.08,5.91s2.51,5.38,4,7.96c3.03,5.23,5.33,10.24,6.32,16.27,1.5,9.15-1.97,15.63-10.7,18.87-12.61,4.68-32.15-2.88-32.51-18.31-.15-6.58,4.14-13.15,6.73-19.01s6.95-10.29,13.84-11.27c.94-.13,.54-1.56-.39-1.43Z"/><path class="cls-3" d="M50.12,20.31c-.27-4.83-1.07-9.62-3.16-14.01-.14-.3-.54-.41-.84-.34-.95,.22-1.86,.47-2.79,.77-.49,.16-.64,.64-.44,1.09,1.66,3.78,3.31,8.28,.53,11.97-.57,.76,.71,1.5,1.28,.75,3.11-4.13,1.34-9.24-.53-13.47l-.44,1.09c.93-.3,1.84-.55,2.79-.77l-.84-.34c1.97,4.15,2.71,8.71,2.96,13.26,.05,.95,1.54,.96,1.48,0h0Z"/><path class="cls-3" d="M44.73,11.53c-1.92,.76-2.66,2.03-3.75,3.7-1.86,2.84-3.11,4.41-6.01,5.99-1.43,.78-2.79,1.65-4.07,2.65-3.02,2.36-4.87,5.33-7.35,8.17-3.19,3.65-10.78,7.91-14.62,3.17-2.61-3.23-.04-10.73,2.75-13.46,2.54-2.48,5.65-3.91,8.08-6.56,2.06-2.25,3.36-4.61,6.44-5.62,2.65-.86,5.4-.5,8.1-.24,3.72,.35,7.29,.71,10.1,3.44,.68,.67,1.73-.38,1.05-1.05-2.06-2-4.86-3.16-7.65-3.62-4.63-.77-10.64-1.4-14.8,1.31-2.38,1.55-3.45,4.05-5.4,6.04s-4.4,3.03-6.42,4.78c-3.86,3.33-4.3,8.22-4.95,13.01-.45,3.34,.07,4.08,3.56,4.95,4.34,1.08,9.16,0,12.59-2.86,4.46-3.72,6.77-8.89,11.93-12.03,2.06-1.26,4.9-1.92,6.46-3.87,1.69-2.12,1.42-5.32,4.36-6.47,.88-.35,.5-1.78-.39-1.43Z"/><path class="cls-3" d="M75.63,30.86c-2.29,5.9-3.43,11.96-3.46,18.29,0,.95,1.48,.96,1.48,0,.03-6.19,1.17-12.13,3.41-17.89,.35-.89-1.09-1.28-1.43-.39h0Z"/><path class="cls-3" d="M71.39,57.08l-.17,3.38c-.05,.95,1.43,.95,1.48,0l.17-3.38c.05-.95-1.43-.95-1.48,0h0Z"/><path class="cls-3" d="M33.27,31.93c-1.99,4.71-6.24,9.8-5.22,15.19,.18,.94,1.61,.54,1.43-.39-.9-4.75,3.43-10.16,5.22-14.4,.37-.88-1.06-1.26-1.43-.39h0Z"/><path class="cls-3" d="M27.48,51.35c-.08,3.87,1.6,6.44,4.14,9.22,.64,.71,1.69-.34,1.05-1.05-2.29-2.51-3.78-4.66-3.71-8.17,.02-.95-1.46-.95-1.48,0h0Z"/><path class="cls-3" d="M84.32,54.64c1.12,1.33,3.32,1.19,4.11-.41s-.45-3.54-2.27-3.34c-.94,.1-.95,1.59,0,1.48,.72-.08,1.32,.56,.91,1.26s-1.26,.5-1.71-.04c-.61-.73-1.66,.32-1.05,1.05h0Z"/><path class="cls-3" d="M77.4,60.97c-.13,.73-.33,1.2-1.18,1.09-.66-.08-1.03-.5-.86-1.16,.24-.92-1.19-1.32-1.43-.39-.37,1.44,.46,2.72,1.93,2.99,.69,.12,1.47,.04,2.05-.36s.8-1.09,.92-1.77c.17-.93-1.26-1.33-1.43-.39h0Z"/><path class="cls-3" d="M80.64,59.28c.1,1.55,1.95,2.65,3.3,1.73,1.26-.85,1.09-3-.28-3.66-.86-.41-1.61,.87-.75,1.28,.37,.18,.61,.79,.24,1.12-.33,.3-1.01-.05-1.04-.47-.06-.95-1.54-.95-1.48,0h0Z"/><path class="cls-3" d="M81.38,47.76c.97,1.29,2.95,1.21,3.68-.3s-.36-3.2-1.94-3.5c-.93-.18-1.33,1.25-.39,1.43,.59,.11,1.21,.53,1.07,1.21-.1,.47-.76,.91-1.13,.41-.57-.75-1.86-.01-1.28,.75h0Z"/><path class="cls-3" d="M76.64,20.84c2.38,1.02,5.04,1.32,6.99,3.34,1.74,1.8,2.91,5.95,4,8.25,3.29,6.93,4.73,12.68,2.88,20.2-1.63,6.65-5.44,16.11-14.24,13.54-3.51-1.02-6.7-4.85-10.53-3.3-.87,.35-.49,1.79,.39,1.43,3.41-1.38,7.72,3.07,11.08,3.6,2.02,.32,4.1-.03,5.96-.85,6.09-2.68,7.83-9.78,9.14-15.67,1.55-6.98,0-12.45-3-18.82-1.52-3.24-2.84-7.63-5.2-10.35-2.03-2.35-4.02-1.48-6.74-2.65-.87-.37-1.62,.9-.75,1.28h0Z"/><path class="cls-3" d="M74.74,19.03c-4.21-.64-5.58,1.59-8.16,4.62s-4.78,5.84-5.92,9.53c-.28,.91,1.15,1.3,1.43,.39,.89-2.86,2.52-5.23,4.41-7.53,2.04-2.48,4.23-6.13,7.85-5.58,.93,.14,1.34-1.29,.39-1.43h0Z"/><path class="cls-3" d="M78.32,41.09c1.09,2.07,3.9,2.48,5.03,.24,.9-1.79,.11-3.91-1.99-4.1-.95-.09-.94,1.4,0,1.48s1.04,1.14,.71,1.87c-.58,1.29-1.9,.84-2.47-.24-.44-.85-1.72-.1-1.28,.75h0Z"/><path class="cls-3" d="M71.34,31.19c-.74,.23-1.54,.39-2.18,.87-.71,.53-1.06,1.43-.85,2.3,.48,2.01,3.26,2.42,4.2,.52,.42-.85-.86-1.6-1.28-.75-.48,.96-1.87,.35-1.43-.61,.29-.62,1.36-.73,1.93-.91,.91-.28,.52-1.72-.39-1.43h0Z"/><path class="cls-3" d="M44.39,11.39c-6.82-.93-14.7,.53-20.12,4.99-3.58,2.94-5.39,7.16-8.47,10.5-1.36,1.48-3.11,2.58-4.55,4s-2.65,3.66-4.72,4.11c-.93,.2-.54,1.63,.39,1.43,2.28-.5,3.55-2.62,5.1-4.19,2.3-2.34,4.76-4.12,6.69-6.81,2.79-3.88,5.41-7.75,9.78-9.99,4.69-2.41,10.3-3.31,15.51-2.6,.93,.13,1.34-1.3,.39-1.43h0Z"/><path class="cls-3" d="M24.25,16.42c-2.48,2.04-1.94,6.43-1.86,9.25,.03,.95,1.51,.96,1.48,0-.07-2.39-.65-6.5,1.43-8.21,.74-.61-.32-1.65-1.05-1.05h0Z"/><path class="cls-3" d="M18.34,23.4c-1.15,1.4-1.95,2.93-2.22,4.74-.32,2.14,.49,4.4-.59,6.4-.46,.84,.82,1.59,1.28,.75,.7-1.29,.81-2.55,.78-4-.06-2.6,.08-4.73,1.8-6.84,.6-.73-.44-1.79-1.05-1.05h0Z"/><path class="cls-3" d="M18.9,22.43c-1.43,.72-4.86,1.23-6.2,.03-.71-.64-1.76,.41-1.05,1.05,1.92,1.74,5.85,1.28,7.99,.21,.85-.43,.1-1.71-.75-1.28h0Z"/><path class="cls-3" d="M26.75,14.61c-2.21-.08-4.32,.51-6.16,1.73-.79,.52-.05,1.81,.75,1.28,1.64-1.08,3.44-1.59,5.41-1.52,.95,.03,.95-1.45,0-1.48h0Z"/><path class="cls-3" d="M31.99,13.66c.55,1.13,.66,2.36,.34,3.57-.24,.92,1.19,1.32,1.43,.39,.42-1.62,.24-3.22-.49-4.71-.42-.86-1.7-.11-1.28,.75h0Z"/><path class="cls-3" d="M32.46,12.08c-.97-1.33-2.44-2.12-4.11-2.09-.95,.02-.96,1.5,0,1.48,1.11-.02,2.16,.45,2.83,1.36,.56,.76,1.84,.02,1.28-.75h0Z"/><path class="cls-3" d="M67.69,39.4c-1.49-.16-3.32,1.4-2.71,2.97,.65,1.66,2.87,1.4,3.61-.02,.44-.84-.84-1.59-1.28-.75-.12,.22-.3,.47-.59,.47-.19,0-.38-.13-.39-.33-.04-.59,.92-.91,1.35-.86,.4,.04,.74-.37,.74-.74,0-.44-.34-.7-.74-.74h0Z"/></svg>