<?xml version="1.0" encoding="UTF-8"?><svg xmlns="http://www.w3.org/2000/svg" viewBox="0 0 1000 1000"><defs><style>.cls-1{mix-blend-mode:multiply;}.cls-2{stroke:#fff;stroke-linecap:square;stroke-width:5.7px;}.cls-2,.cls-3,.cls-4{fill:none;stroke-miterlimit:10;}.cls-5{isolation:isolate;}.cls-3,.cls-4{stroke:#327b79;stroke-width:3.58px;}.cls-6{fill:#73c6c3;}.cls-6,.cls-7,.cls-8{stroke-width:0px;}.cls-7{fill:#327b79;}.cls-8{fill:#fff;}.cls-4{stroke-dasharray:0 0 17.75 17.75;}</style></defs><g class="cls-5"><g id="_圖層_1"><g class="cls-1"><path class="cls-2" d="m878.01,182.96v-55.27c0-3.15-2.55-5.7-5.7-5.7h-55.27"/><path class="cls-2" d="m182.96,121.99h-55.26c-3.15,0-5.7,2.55-5.7,5.7v55.27"/><path class="cls-2" d="m817.04,878.01h55.27c3.15,0,5.7-2.55,5.7-5.7v-55.27"/><path class="cls-2" d="m121.99,817.04v55.27c0,3.15,2.55,5.7,5.7,5.7h55.26"/></g><path class="cls-7" d="m500,909.71c-223.77,0-405.81-182.05-405.81-405.81S276.23,98.08,500,98.08s405.82,182.05,405.82,405.82-182.05,405.81-405.82,405.81Zm0-803.85c-219.47,0-398.03,178.56-398.03,398.03s178.56,398.03,398.03,398.03,398.03-178.55,398.03-398.03S719.47,105.86,500,105.86Z"/><rect class="cls-7" x="494.16" y="25.48" width="11.69" height="100.35"/><polygon class="cls-7" points="769.4 238.62 765.26 234.49 797.68 202.09 801.8 206.22 769.4 238.62"/><rect class="cls-7" x="878.06" y="498.05" width="100.35" height="11.68"/><rect class="cls-7" x="780.61" y="764.51" width="5.84" height="45.84" transform="translate(-327.3 784.67) rotate(-45)"/><rect class="cls-7" x="494.16" y="881.95" width="11.69" height="92.57"/><rect class="cls-7" x="193.55" y="784.51" width="45.84" height="5.84" transform="translate(-493.41 383.73) rotate(-45)"/><rect class="cls-7" x="21.59" y="498.05" width="100.35" height="11.68"/><rect class="cls-7" x="213.55" y="197.44" width="5.84" height="45.84" transform="translate(-92.42 217.63) rotate(-45)"/><rect class="cls-7" x="630.54" y="131.49" width="45.83" height="3.89" transform="translate(279.57 685.72) rotate(-67.44)"/><polygon class="cls-7" points="850.03 361.01 848.54 357.42 890.88 339.88 892.38 343.47 850.03 361.01"/><polygon class="cls-7" points="890.88 667.91 848.54 650.37 850.03 646.78 892.38 664.32 890.88 667.91"/><polygon class="cls-7" points="660.43 896.27 642.88 853.92 646.48 852.43 664.02 894.78 660.43 896.27"/><polygon class="cls-7" points="339.58 896.27 335.98 894.78 353.53 852.43 357.12 853.91 339.58 896.27"/><rect class="cls-7" x="106.63" y="655.4" width="45.84" height="3.89" transform="translate(-242.49 100.15) rotate(-22.58)"/><rect class="cls-7" x="127.6" y="327.53" width="3.89" height="45.84" transform="translate(-243.8 336.02) rotate(-67.5)"/><rect class="cls-7" x="344.61" y="110.52" width="3.89" height="45.84" transform="translate(-24.68 142.81) rotate(-22.5)"/><polygon class="cls-8" points="524.79 174.75 475.21 174.75 500 138.05 524.79 174.75"/><polygon class="cls-8" points="475.21 829.14 524.79 829.14 500 865.85 475.21 829.14"/><polygon class="cls-8" points="827.2 526.74 827.2 477.16 863.9 501.95 827.2 526.74"/><polygon class="cls-8" points="172.81 477.16 172.81 526.74 136.1 501.95 172.81 477.16"/><line class="cls-3" x1="198.19" y1="500" x2="207.14" y2="500"/><line class="cls-4" x1="224.89" y1="500" x2="783.98" y2="500"/><line class="cls-3" x1="792.85" y1="500" x2="801.8" y2="500"/><line class="cls-3" x1="500" y1="198.2" x2="500" y2="207.14"/><line class="cls-4" x1="500" y1="224.89" x2="500" y2="783.98"/><line class="cls-3" x1="500" y1="792.86" x2="500" y2="801.8"/><path class="cls-6" d="m870.86,286.99c-3.98,10.49-11.81,14.21-22.71,14.01-19.71-.37-39.44-.12-59.16-.1-7.97,0-9.34,1.09-11.45,8.9-26.03,96.56-52.06,193.12-78.07,289.68-.55,2.03-.89,4.11-1.38,6.42,1.79.23,3.14.43,4.49.58,30.44,3.45,52.68,32.61,47.92,62.82-4.41,27.94-26.67,47.04-55.49,47.5-7.99.13-15.99.02-24.49.02,10.96,32.19,5.12,59.33-22.9,78.4-21.85,14.87-45.91,15.03-67.8.08-28.19-19.24-34.14-46.47-23.12-78-36.94,0-73.64,0-110.47,0,9.36,35.48,2.85,59.35-20.61,76.51-20.51,15.01-48.99,16.38-69.94,1.79-28.79-20.06-34.5-47.55-22.81-79.66-6.05-3.14-10.34-7.5-11.14-14.42-1.4-12.15,6.97-20.19,21.02-20.19,115.56,0,231.13,0,346.69-.01,2.76,0,5.53.05,8.27-.22,10.35-1.02,17.66-9.15,17.67-19.51,0-10.39-7.23-18.6-17.51-19.71-2.74-.29-5.51-.28-8.27-.28-104.91.05-209.83.11-314.74.17-7.49,0-14.99.15-22.48-.04-21.33-.54-38.3-13.33-43.13-33.82-14.62-62.09-28.99-124.25-43.02-186.48-5.55-24.61,10.92-44.47,36.18-44.63,51.66-.32,103.33-.54,154.99-.76,86.77-.38,173.53-.76,260.3-.99,4.4-.01,6.06-1.43,7.14-5.62,5.96-23.06,12.24-46.04,18.44-69.04,6.28-23.28,21.41-34.99,45.46-35.08,19.72-.08,39.45.35,59.16-.16,10.92-.28,18.7,3.27,22.95,13.56v8.28Zm-212.94,123.9c-6.89,0-13.79-.08-20.67.25-1.42.07-3.81,1.68-3.96,2.82-3.47,25.14-6.68,50.32-9.92,75.49-.05.35.21.74.46,1.53,1.34.13,2.84.4,4.35.4,19.69.03,39.39,0,59.08.05,2.75,0,4.74-.15,5.63-3.53,6.71-25.44,13.61-50.84,20.66-77.03-19.07,0-37.35-.01-55.63,0Zm-252.24.94c.97,7.98,1.83,15.5,2.82,23,2.24,17.17,4.59,34.32,6.79,51.49.38,2.97.71,5.19,4.7,5.16,20.48-.17,40.96-.1,61.43-.14.55,0,1.1-.3,1.99-.56,0-26.11,0-52.22,0-78.94-25.85,0-51.36,0-77.72,0Zm114.06-.43c0,26.52,0,52.79,0,79.54,22.05,0,44.19,0,67.29,0,3.51-26.17,7.05-52.58,10.66-79.54-26.42,0-51.96,0-77.95,0Zm-201.09,79.67c20.28,0,40.31,0,60.92,0,0-1.76.19-3.45-.03-5.09-3.05-23.23-6.1-46.46-9.37-69.66-.22-1.55-2.23-4.07-3.43-4.08-21.85-.25-43.7-.18-66.35-.18,6.25,27.05,12.22,52.9,18.26,79.02Zm327.31,35.84c-7.87,0-15.75-.16-23.62.14-1.58.06-4.29,1.7-4.46,2.9-3.45,24.54-6.62,49.11-9.82,73.69-.07.56.12,1.15.3,2.64,5.73,0,11.55,0,17.37,0,8.66,0,17.32.02,25.98-.01,5.43-.02,9.62-1.95,11.17-7.65,6.21-22.95,12.42-45.9,18.59-68.86.19-.7.02-1.49.02-2.84-11.99,0-23.77,0-35.54,0Zm-162.53.5c-20.59,0-41.12,0-62.48,0,.92,7.59,1.78,15.11,2.76,22.6,2.28,17.36,4.56,34.73,7.04,52.06.21,1.49,1.87,3.97,2.88,3.98,16.48.25,32.97.18,49.8.18,0-26.52,0-52.42,0-78.83Zm36.24-.12c0,26.2,0,52.27,0,78.66,17.34,0,34.4,0,52.1,0,3.48-26.11,6.96-52.17,10.5-78.66-21.06,0-41.64,0-62.59,0Zm-183.68,38.87c2.42,10.54,4.86,21.08,7.24,31.62,1.13,4.99,3.98,8.31,9.23,8.38,13.95.18,27.91.06,42.78.06-.84-6.56-1.6-12.68-2.4-18.79-2.43-18.73-4.82-37.47-7.42-56.18-.21-1.53-1.87-4.09-2.89-4.1-18.26-.25-36.53-.18-55.55-.18,3.12,13.59,6.06,26.39,8.99,39.19Zm304.23,177.47c.01-14.76-11.99-26.84-26.61-26.76-14.35.08-26.36,11.97-26.6,26.32-.24,14.63,11.71,26.76,26.46,26.87,14.92.11,26.73-11.57,26.74-26.43Zm-224.42-.14c-.05-14.7-12.21-26.8-26.77-26.62-14.44.18-26.23,12-26.36,26.46-.14,14.78,11.68,26.7,26.5,26.73,14.86.03,26.68-11.76,26.63-26.58Z"/></g></g></svg>